%
M48
M72
T01C0.02362
T02C0.03150
T03C0.03500
T04C0.04400
T05C0.04600
T06C0.11024
T07C0.13000
%
T01
X405356Y292100
X208505Y292100
X208505Y95250
X405356Y95250
T02
X262619Y422770
X262619Y430644
X459470Y422770
X459470Y430644
X456054Y320841
X448180Y320841
X448919Y254994
X456793Y254994
X459470Y233793
X459470Y225919
X259942Y254994
X252068Y254994
X262619Y233793
X262619Y225919
X162206Y251470
X162206Y259344
X147462Y319187
X155336Y319187
X251330Y320841
X259204Y320841
X344312Y319187
X352186Y319187
X359056Y259344
X359056Y251470
X352186Y122337
X344312Y122337
X359056Y62494
X359056Y54620
X162206Y54620
X162206Y62494
X155336Y122337
X147462Y122337
X251330Y123990
X259204Y123990
X259942Y58144
X252068Y58144
X448919Y58144
X456793Y58144
X456054Y123990
X448180Y123990
T03
X408869Y259837
X398869Y259837
X388869Y259837
X378869Y259837
X337609Y251815
X327609Y251815
X130759Y251815
X140759Y251815
X182019Y259837
X192019Y259837
X202019Y259837
X212019Y259837
X408869Y62986
X398869Y62986
X388869Y62986
X378869Y62986
X337609Y54965
X327609Y54965
X130759Y54965
X140759Y54965
X182019Y62986
X192019Y62986
X202019Y62986
X212019Y62986
T04
X484903Y332967
X474903Y332967
X464903Y332967
X477993Y309344
X490296Y309482
X462206Y299128
X452206Y299128
X442206Y299128
X432206Y299128
X419106Y307494
X415730Y319896
X425730Y319896
X435730Y319896
X389529Y320289
X379529Y320289
X369529Y320289
X369568Y304167
X359568Y304167
X345356Y303744
X322856Y309994
X310720Y310457
X293446Y309482
X281143Y309344
X265356Y299128
X255356Y299128
X245356Y299128
X235356Y299128
X222255Y307494
X218879Y319896
X228879Y319896
X238879Y319896
X268052Y332967
X278052Y332967
X288052Y332967
X321753Y333892
X331753Y333892
X341753Y333892
X379568Y304167
X389568Y304167
X389568Y274167
X379568Y274167
X369568Y274167
X359568Y274167
X345356Y263744
X322856Y269994
X310720Y270457
X293446Y269482
X281143Y269344
X265356Y269128
X255356Y269128
X245356Y269128
X235356Y269128
X222255Y267494
X192718Y274167
X182718Y274167
X172718Y274167
X162718Y274167
X148505Y263744
X126005Y269994
X113869Y270457
X490296Y269482
X477993Y269344
X462206Y269128
X452206Y269128
X442206Y269128
X432206Y269128
X419106Y267494
X484903Y136116
X474903Y136116
X464903Y136116
X477993Y112494
X490296Y112632
X462206Y102278
X452206Y102278
X442206Y102278
X432206Y102278
X419106Y110644
X415730Y123045
X425730Y123045
X435730Y123045
X389529Y123439
X379529Y123439
X369529Y123439
X369568Y107317
X359568Y107317
X345356Y106894
X322856Y113144
X310720Y113606
X293446Y112632
X281143Y112494
X265356Y102278
X255356Y102278
X245356Y102278
X235356Y102278
X222255Y110644
X218879Y123045
X228879Y123045
X238879Y123045
X268052Y136116
X278052Y136116
X288052Y136116
X321753Y137041
X331753Y137041
X341753Y137041
X379568Y107317
X389568Y107317
X389568Y77317
X379568Y77317
X369568Y77317
X359568Y77317
X345356Y66894
X322856Y73144
X310720Y73606
X293446Y72632
X281143Y72494
X265356Y72278
X255356Y72278
X245356Y72278
X235356Y72278
X222255Y70644
X192718Y77317
X182718Y77317
X172718Y77317
X162718Y77317
X148505Y66894
X126005Y73144
X113869Y73606
X148505Y106894
X162718Y107317
X172718Y107317
X182718Y107317
X192718Y107317
X192678Y123439
X182678Y123439
X172678Y123439
X144903Y137041
X134903Y137041
X124903Y137041
X126005Y113144
X113869Y113606
X419106Y70644
X432206Y72278
X442206Y72278
X452206Y72278
X462206Y72278
X477993Y72494
X490296Y72632
X192718Y304167
X182718Y304167
X172718Y304167
X162718Y304167
X148505Y303744
X172678Y320289
X182678Y320289
X192678Y320289
X144903Y333892
X134903Y333892
X124903Y333892
X126005Y309994
X113869Y310457
T05
X170523Y425358
X190208Y425358
X217767Y425358
X237452Y425358
X367373Y425358
X387058Y425358
X414617Y425358
X434302Y425358
X434302Y228508
X414617Y228508
X387058Y228508
X367373Y228508
X237452Y228508
X217767Y228508
X190208Y228508
X170523Y228508
T06
X115405Y233508
X115405Y253193
X115405Y430358
X292570Y430358
X312255Y430358
X489420Y430358
X489420Y253193
X489420Y233508
X312255Y233508
X292570Y233508
X292570Y253193
X312255Y253193
X115405Y56343
X292570Y56343
X312255Y56343
X489420Y56343
T07
X134903Y402892
X182678Y389289
X228879Y388896
X278052Y401967
X331753Y402892
X379529Y389289
X425730Y388896
X474903Y401967
X474903Y205116
X425730Y192045
X379529Y192439
X331753Y206041
X278052Y205116
X228879Y192045
X182678Y192439
X134903Y206041
M30
