G75*
%MOIN*%
%OFA0B0*%
%FSLAX25Y25*%
%IPPOS*%
%LPD*%
%AMOC8*
5,1,8,0,0,1.08239X$1,22.5*
%
%ADD10C,0.01000*%
%ADD11C,0.00000*%
%ADD12C,0.11024*%
%ADD13R,0.05315X0.05315*%
%ADD14C,0.05315*%
%ADD15C,0.07600*%
%ADD16R,0.06500X0.06500*%
%ADD17C,0.06500*%
%ADD18C,0.06600*%
%ADD19C,0.13000*%
%ADD20R,0.05000X0.06000*%
%ADD21R,0.06600X0.06600*%
%ADD22C,0.06600*%
%ADD23R,0.05709X0.10236*%
%ADD24R,0.08000X0.08000*%
%ADD25C,0.08000*%
D10*
X0105562Y0056343D02*
X0105562Y0233508D01*
X0105565Y0233746D01*
X0105573Y0233984D01*
X0105588Y0234221D01*
X0105608Y0234458D01*
X0105634Y0234694D01*
X0105665Y0234930D01*
X0105702Y0235165D01*
X0105745Y0235399D01*
X0105794Y0235632D01*
X0105848Y0235864D01*
X0105908Y0236094D01*
X0105973Y0236323D01*
X0106044Y0236550D01*
X0106120Y0236775D01*
X0106202Y0236998D01*
X0106289Y0237220D01*
X0106381Y0237439D01*
X0106479Y0237656D01*
X0106581Y0237870D01*
X0106689Y0238082D01*
X0106803Y0238292D01*
X0106921Y0238498D01*
X0107044Y0238702D01*
X0107172Y0238902D01*
X0107304Y0239099D01*
X0107442Y0239294D01*
X0107584Y0239484D01*
X0107731Y0239672D01*
X0107882Y0239855D01*
X0108037Y0240035D01*
X0108197Y0240211D01*
X0108361Y0240383D01*
X0108530Y0240552D01*
X0108702Y0240716D01*
X0108878Y0240876D01*
X0109058Y0241031D01*
X0109241Y0241182D01*
X0109429Y0241329D01*
X0109619Y0241471D01*
X0109814Y0241609D01*
X0110011Y0241741D01*
X0110211Y0241869D01*
X0110415Y0241992D01*
X0110621Y0242110D01*
X0110831Y0242224D01*
X0111043Y0242332D01*
X0111257Y0242434D01*
X0111474Y0242532D01*
X0111693Y0242624D01*
X0111915Y0242711D01*
X0112138Y0242793D01*
X0112363Y0242869D01*
X0112590Y0242940D01*
X0112819Y0243005D01*
X0113049Y0243065D01*
X0113281Y0243119D01*
X0113514Y0243168D01*
X0113748Y0243211D01*
X0113983Y0243248D01*
X0114219Y0243279D01*
X0114455Y0243305D01*
X0114692Y0243325D01*
X0114929Y0243340D01*
X0115167Y0243348D01*
X0115405Y0243351D01*
X0115405Y0243350D02*
X0115167Y0243353D01*
X0114929Y0243361D01*
X0114692Y0243376D01*
X0114455Y0243396D01*
X0114219Y0243422D01*
X0113983Y0243453D01*
X0113748Y0243490D01*
X0113514Y0243533D01*
X0113281Y0243582D01*
X0113049Y0243636D01*
X0112819Y0243696D01*
X0112590Y0243761D01*
X0112363Y0243832D01*
X0112138Y0243908D01*
X0111915Y0243990D01*
X0111693Y0244077D01*
X0111474Y0244169D01*
X0111257Y0244267D01*
X0111043Y0244369D01*
X0110831Y0244477D01*
X0110621Y0244591D01*
X0110415Y0244709D01*
X0110211Y0244832D01*
X0110011Y0244960D01*
X0109814Y0245092D01*
X0109619Y0245230D01*
X0109429Y0245372D01*
X0109241Y0245519D01*
X0109058Y0245670D01*
X0108878Y0245825D01*
X0108702Y0245985D01*
X0108530Y0246149D01*
X0108361Y0246318D01*
X0108197Y0246490D01*
X0108037Y0246666D01*
X0107882Y0246846D01*
X0107731Y0247029D01*
X0107584Y0247217D01*
X0107442Y0247407D01*
X0107304Y0247602D01*
X0107172Y0247799D01*
X0107044Y0247999D01*
X0106921Y0248203D01*
X0106803Y0248409D01*
X0106689Y0248619D01*
X0106581Y0248831D01*
X0106479Y0249045D01*
X0106381Y0249262D01*
X0106289Y0249481D01*
X0106202Y0249703D01*
X0106120Y0249926D01*
X0106044Y0250151D01*
X0105973Y0250378D01*
X0105908Y0250607D01*
X0105848Y0250837D01*
X0105794Y0251069D01*
X0105745Y0251302D01*
X0105702Y0251536D01*
X0105665Y0251771D01*
X0105634Y0252007D01*
X0105608Y0252243D01*
X0105588Y0252480D01*
X0105573Y0252717D01*
X0105565Y0252955D01*
X0105562Y0253193D01*
X0105562Y0430358D01*
X0105565Y0430596D01*
X0105573Y0430834D01*
X0105588Y0431071D01*
X0105608Y0431308D01*
X0105634Y0431544D01*
X0105665Y0431780D01*
X0105702Y0432015D01*
X0105745Y0432249D01*
X0105794Y0432482D01*
X0105848Y0432714D01*
X0105908Y0432944D01*
X0105973Y0433173D01*
X0106044Y0433400D01*
X0106120Y0433625D01*
X0106202Y0433848D01*
X0106289Y0434070D01*
X0106381Y0434289D01*
X0106479Y0434506D01*
X0106581Y0434720D01*
X0106689Y0434932D01*
X0106803Y0435142D01*
X0106921Y0435348D01*
X0107044Y0435552D01*
X0107172Y0435752D01*
X0107304Y0435949D01*
X0107442Y0436144D01*
X0107584Y0436334D01*
X0107731Y0436522D01*
X0107882Y0436705D01*
X0108037Y0436885D01*
X0108197Y0437061D01*
X0108361Y0437233D01*
X0108530Y0437402D01*
X0108702Y0437566D01*
X0108878Y0437726D01*
X0109058Y0437881D01*
X0109241Y0438032D01*
X0109429Y0438179D01*
X0109619Y0438321D01*
X0109814Y0438459D01*
X0110011Y0438591D01*
X0110211Y0438719D01*
X0110415Y0438842D01*
X0110621Y0438960D01*
X0110831Y0439074D01*
X0111043Y0439182D01*
X0111257Y0439284D01*
X0111474Y0439382D01*
X0111693Y0439474D01*
X0111915Y0439561D01*
X0112138Y0439643D01*
X0112363Y0439719D01*
X0112590Y0439790D01*
X0112819Y0439855D01*
X0113049Y0439915D01*
X0113281Y0439969D01*
X0113514Y0440018D01*
X0113748Y0440061D01*
X0113983Y0440098D01*
X0114219Y0440129D01*
X0114455Y0440155D01*
X0114692Y0440175D01*
X0114929Y0440190D01*
X0115167Y0440198D01*
X0115405Y0440201D01*
X0292570Y0440201D01*
X0292808Y0440198D01*
X0293046Y0440190D01*
X0293283Y0440175D01*
X0293520Y0440155D01*
X0293756Y0440129D01*
X0293992Y0440098D01*
X0294227Y0440061D01*
X0294461Y0440018D01*
X0294694Y0439969D01*
X0294926Y0439915D01*
X0295156Y0439855D01*
X0295385Y0439790D01*
X0295612Y0439719D01*
X0295837Y0439643D01*
X0296060Y0439561D01*
X0296282Y0439474D01*
X0296501Y0439382D01*
X0296718Y0439284D01*
X0296932Y0439182D01*
X0297144Y0439074D01*
X0297354Y0438960D01*
X0297560Y0438842D01*
X0297764Y0438719D01*
X0297964Y0438591D01*
X0298161Y0438459D01*
X0298356Y0438321D01*
X0298546Y0438179D01*
X0298734Y0438032D01*
X0298917Y0437881D01*
X0299097Y0437726D01*
X0299273Y0437566D01*
X0299445Y0437402D01*
X0299614Y0437233D01*
X0299778Y0437061D01*
X0299938Y0436885D01*
X0300093Y0436705D01*
X0300244Y0436522D01*
X0300391Y0436334D01*
X0300533Y0436144D01*
X0300671Y0435949D01*
X0300803Y0435752D01*
X0300931Y0435552D01*
X0301054Y0435348D01*
X0301172Y0435142D01*
X0301286Y0434932D01*
X0301394Y0434720D01*
X0301496Y0434506D01*
X0301594Y0434289D01*
X0301686Y0434070D01*
X0301773Y0433848D01*
X0301855Y0433625D01*
X0301931Y0433400D01*
X0302002Y0433173D01*
X0302067Y0432944D01*
X0302127Y0432714D01*
X0302181Y0432482D01*
X0302230Y0432249D01*
X0302273Y0432015D01*
X0302310Y0431780D01*
X0302341Y0431544D01*
X0302367Y0431308D01*
X0302387Y0431071D01*
X0302402Y0430834D01*
X0302410Y0430596D01*
X0302413Y0430358D01*
X0302412Y0430358D02*
X0302415Y0430596D01*
X0302423Y0430834D01*
X0302438Y0431071D01*
X0302458Y0431308D01*
X0302484Y0431544D01*
X0302515Y0431780D01*
X0302552Y0432015D01*
X0302595Y0432249D01*
X0302644Y0432482D01*
X0302698Y0432714D01*
X0302758Y0432944D01*
X0302823Y0433173D01*
X0302894Y0433400D01*
X0302970Y0433625D01*
X0303052Y0433848D01*
X0303139Y0434070D01*
X0303231Y0434289D01*
X0303329Y0434506D01*
X0303431Y0434720D01*
X0303539Y0434932D01*
X0303653Y0435142D01*
X0303771Y0435348D01*
X0303894Y0435552D01*
X0304022Y0435752D01*
X0304154Y0435949D01*
X0304292Y0436144D01*
X0304434Y0436334D01*
X0304581Y0436522D01*
X0304732Y0436705D01*
X0304887Y0436885D01*
X0305047Y0437061D01*
X0305211Y0437233D01*
X0305380Y0437402D01*
X0305552Y0437566D01*
X0305728Y0437726D01*
X0305908Y0437881D01*
X0306091Y0438032D01*
X0306279Y0438179D01*
X0306469Y0438321D01*
X0306664Y0438459D01*
X0306861Y0438591D01*
X0307061Y0438719D01*
X0307265Y0438842D01*
X0307471Y0438960D01*
X0307681Y0439074D01*
X0307893Y0439182D01*
X0308107Y0439284D01*
X0308324Y0439382D01*
X0308543Y0439474D01*
X0308765Y0439561D01*
X0308988Y0439643D01*
X0309213Y0439719D01*
X0309440Y0439790D01*
X0309669Y0439855D01*
X0309899Y0439915D01*
X0310131Y0439969D01*
X0310364Y0440018D01*
X0310598Y0440061D01*
X0310833Y0440098D01*
X0311069Y0440129D01*
X0311305Y0440155D01*
X0311542Y0440175D01*
X0311779Y0440190D01*
X0312017Y0440198D01*
X0312255Y0440201D01*
X0489420Y0440201D01*
X0489658Y0440198D01*
X0489896Y0440190D01*
X0490133Y0440175D01*
X0490370Y0440155D01*
X0490606Y0440129D01*
X0490842Y0440098D01*
X0491077Y0440061D01*
X0491311Y0440018D01*
X0491544Y0439969D01*
X0491776Y0439915D01*
X0492006Y0439855D01*
X0492235Y0439790D01*
X0492462Y0439719D01*
X0492687Y0439643D01*
X0492910Y0439561D01*
X0493132Y0439474D01*
X0493351Y0439382D01*
X0493568Y0439284D01*
X0493782Y0439182D01*
X0493994Y0439074D01*
X0494204Y0438960D01*
X0494410Y0438842D01*
X0494614Y0438719D01*
X0494814Y0438591D01*
X0495011Y0438459D01*
X0495206Y0438321D01*
X0495396Y0438179D01*
X0495584Y0438032D01*
X0495767Y0437881D01*
X0495947Y0437726D01*
X0496123Y0437566D01*
X0496295Y0437402D01*
X0496464Y0437233D01*
X0496628Y0437061D01*
X0496788Y0436885D01*
X0496943Y0436705D01*
X0497094Y0436522D01*
X0497241Y0436334D01*
X0497383Y0436144D01*
X0497521Y0435949D01*
X0497653Y0435752D01*
X0497781Y0435552D01*
X0497904Y0435348D01*
X0498022Y0435142D01*
X0498136Y0434932D01*
X0498244Y0434720D01*
X0498346Y0434506D01*
X0498444Y0434289D01*
X0498536Y0434070D01*
X0498623Y0433848D01*
X0498705Y0433625D01*
X0498781Y0433400D01*
X0498852Y0433173D01*
X0498917Y0432944D01*
X0498977Y0432714D01*
X0499031Y0432482D01*
X0499080Y0432249D01*
X0499123Y0432015D01*
X0499160Y0431780D01*
X0499191Y0431544D01*
X0499217Y0431308D01*
X0499237Y0431071D01*
X0499252Y0430834D01*
X0499260Y0430596D01*
X0499263Y0430358D01*
X0499263Y0253193D01*
X0499260Y0252955D01*
X0499252Y0252717D01*
X0499237Y0252480D01*
X0499217Y0252243D01*
X0499191Y0252007D01*
X0499160Y0251771D01*
X0499123Y0251536D01*
X0499080Y0251302D01*
X0499031Y0251069D01*
X0498977Y0250837D01*
X0498917Y0250607D01*
X0498852Y0250378D01*
X0498781Y0250151D01*
X0498705Y0249926D01*
X0498623Y0249703D01*
X0498536Y0249481D01*
X0498444Y0249262D01*
X0498346Y0249045D01*
X0498244Y0248831D01*
X0498136Y0248619D01*
X0498022Y0248409D01*
X0497904Y0248203D01*
X0497781Y0247999D01*
X0497653Y0247799D01*
X0497521Y0247602D01*
X0497383Y0247407D01*
X0497241Y0247217D01*
X0497094Y0247029D01*
X0496943Y0246846D01*
X0496788Y0246666D01*
X0496628Y0246490D01*
X0496464Y0246318D01*
X0496295Y0246149D01*
X0496123Y0245985D01*
X0495947Y0245825D01*
X0495767Y0245670D01*
X0495584Y0245519D01*
X0495396Y0245372D01*
X0495206Y0245230D01*
X0495011Y0245092D01*
X0494814Y0244960D01*
X0494614Y0244832D01*
X0494410Y0244709D01*
X0494204Y0244591D01*
X0493994Y0244477D01*
X0493782Y0244369D01*
X0493568Y0244267D01*
X0493351Y0244169D01*
X0493132Y0244077D01*
X0492910Y0243990D01*
X0492687Y0243908D01*
X0492462Y0243832D01*
X0492235Y0243761D01*
X0492006Y0243696D01*
X0491776Y0243636D01*
X0491544Y0243582D01*
X0491311Y0243533D01*
X0491077Y0243490D01*
X0490842Y0243453D01*
X0490606Y0243422D01*
X0490370Y0243396D01*
X0490133Y0243376D01*
X0489896Y0243361D01*
X0489658Y0243353D01*
X0489420Y0243350D01*
X0489420Y0243351D02*
X0489658Y0243348D01*
X0489896Y0243340D01*
X0490133Y0243325D01*
X0490370Y0243305D01*
X0490606Y0243279D01*
X0490842Y0243248D01*
X0491077Y0243211D01*
X0491311Y0243168D01*
X0491544Y0243119D01*
X0491776Y0243065D01*
X0492006Y0243005D01*
X0492235Y0242940D01*
X0492462Y0242869D01*
X0492687Y0242793D01*
X0492910Y0242711D01*
X0493132Y0242624D01*
X0493351Y0242532D01*
X0493568Y0242434D01*
X0493782Y0242332D01*
X0493994Y0242224D01*
X0494204Y0242110D01*
X0494410Y0241992D01*
X0494614Y0241869D01*
X0494814Y0241741D01*
X0495011Y0241609D01*
X0495206Y0241471D01*
X0495396Y0241329D01*
X0495584Y0241182D01*
X0495767Y0241031D01*
X0495947Y0240876D01*
X0496123Y0240716D01*
X0496295Y0240552D01*
X0496464Y0240383D01*
X0496628Y0240211D01*
X0496788Y0240035D01*
X0496943Y0239855D01*
X0497094Y0239672D01*
X0497241Y0239484D01*
X0497383Y0239294D01*
X0497521Y0239099D01*
X0497653Y0238902D01*
X0497781Y0238702D01*
X0497904Y0238498D01*
X0498022Y0238292D01*
X0498136Y0238082D01*
X0498244Y0237870D01*
X0498346Y0237656D01*
X0498444Y0237439D01*
X0498536Y0237220D01*
X0498623Y0236998D01*
X0498705Y0236775D01*
X0498781Y0236550D01*
X0498852Y0236323D01*
X0498917Y0236094D01*
X0498977Y0235864D01*
X0499031Y0235632D01*
X0499080Y0235399D01*
X0499123Y0235165D01*
X0499160Y0234930D01*
X0499191Y0234694D01*
X0499217Y0234458D01*
X0499237Y0234221D01*
X0499252Y0233984D01*
X0499260Y0233746D01*
X0499263Y0233508D01*
X0499263Y0056343D01*
X0499260Y0056105D01*
X0499252Y0055867D01*
X0499237Y0055630D01*
X0499217Y0055393D01*
X0499191Y0055157D01*
X0499160Y0054921D01*
X0499123Y0054686D01*
X0499080Y0054452D01*
X0499031Y0054219D01*
X0498977Y0053987D01*
X0498917Y0053757D01*
X0498852Y0053528D01*
X0498781Y0053301D01*
X0498705Y0053076D01*
X0498623Y0052853D01*
X0498536Y0052631D01*
X0498444Y0052412D01*
X0498346Y0052195D01*
X0498244Y0051981D01*
X0498136Y0051769D01*
X0498022Y0051559D01*
X0497904Y0051353D01*
X0497781Y0051149D01*
X0497653Y0050949D01*
X0497521Y0050752D01*
X0497383Y0050557D01*
X0497241Y0050367D01*
X0497094Y0050179D01*
X0496943Y0049996D01*
X0496788Y0049816D01*
X0496628Y0049640D01*
X0496464Y0049468D01*
X0496295Y0049299D01*
X0496123Y0049135D01*
X0495947Y0048975D01*
X0495767Y0048820D01*
X0495584Y0048669D01*
X0495396Y0048522D01*
X0495206Y0048380D01*
X0495011Y0048242D01*
X0494814Y0048110D01*
X0494614Y0047982D01*
X0494410Y0047859D01*
X0494204Y0047741D01*
X0493994Y0047627D01*
X0493782Y0047519D01*
X0493568Y0047417D01*
X0493351Y0047319D01*
X0493132Y0047227D01*
X0492910Y0047140D01*
X0492687Y0047058D01*
X0492462Y0046982D01*
X0492235Y0046911D01*
X0492006Y0046846D01*
X0491776Y0046786D01*
X0491544Y0046732D01*
X0491311Y0046683D01*
X0491077Y0046640D01*
X0490842Y0046603D01*
X0490606Y0046572D01*
X0490370Y0046546D01*
X0490133Y0046526D01*
X0489896Y0046511D01*
X0489658Y0046503D01*
X0489420Y0046500D01*
X0312255Y0046500D01*
X0312017Y0046503D01*
X0311779Y0046511D01*
X0311542Y0046526D01*
X0311305Y0046546D01*
X0311069Y0046572D01*
X0310833Y0046603D01*
X0310598Y0046640D01*
X0310364Y0046683D01*
X0310131Y0046732D01*
X0309899Y0046786D01*
X0309669Y0046846D01*
X0309440Y0046911D01*
X0309213Y0046982D01*
X0308988Y0047058D01*
X0308765Y0047140D01*
X0308543Y0047227D01*
X0308324Y0047319D01*
X0308107Y0047417D01*
X0307893Y0047519D01*
X0307681Y0047627D01*
X0307471Y0047741D01*
X0307265Y0047859D01*
X0307061Y0047982D01*
X0306861Y0048110D01*
X0306664Y0048242D01*
X0306469Y0048380D01*
X0306279Y0048522D01*
X0306091Y0048669D01*
X0305908Y0048820D01*
X0305728Y0048975D01*
X0305552Y0049135D01*
X0305380Y0049299D01*
X0305211Y0049468D01*
X0305047Y0049640D01*
X0304887Y0049816D01*
X0304732Y0049996D01*
X0304581Y0050179D01*
X0304434Y0050367D01*
X0304292Y0050557D01*
X0304154Y0050752D01*
X0304022Y0050949D01*
X0303894Y0051149D01*
X0303771Y0051353D01*
X0303653Y0051559D01*
X0303539Y0051769D01*
X0303431Y0051981D01*
X0303329Y0052195D01*
X0303231Y0052412D01*
X0303139Y0052631D01*
X0303052Y0052853D01*
X0302970Y0053076D01*
X0302894Y0053301D01*
X0302823Y0053528D01*
X0302758Y0053757D01*
X0302698Y0053987D01*
X0302644Y0054219D01*
X0302595Y0054452D01*
X0302552Y0054686D01*
X0302515Y0054921D01*
X0302484Y0055157D01*
X0302458Y0055393D01*
X0302438Y0055630D01*
X0302423Y0055867D01*
X0302415Y0056105D01*
X0302412Y0056343D01*
X0302413Y0056343D02*
X0302410Y0056105D01*
X0302402Y0055867D01*
X0302387Y0055630D01*
X0302367Y0055393D01*
X0302341Y0055157D01*
X0302310Y0054921D01*
X0302273Y0054686D01*
X0302230Y0054452D01*
X0302181Y0054219D01*
X0302127Y0053987D01*
X0302067Y0053757D01*
X0302002Y0053528D01*
X0301931Y0053301D01*
X0301855Y0053076D01*
X0301773Y0052853D01*
X0301686Y0052631D01*
X0301594Y0052412D01*
X0301496Y0052195D01*
X0301394Y0051981D01*
X0301286Y0051769D01*
X0301172Y0051559D01*
X0301054Y0051353D01*
X0300931Y0051149D01*
X0300803Y0050949D01*
X0300671Y0050752D01*
X0300533Y0050557D01*
X0300391Y0050367D01*
X0300244Y0050179D01*
X0300093Y0049996D01*
X0299938Y0049816D01*
X0299778Y0049640D01*
X0299614Y0049468D01*
X0299445Y0049299D01*
X0299273Y0049135D01*
X0299097Y0048975D01*
X0298917Y0048820D01*
X0298734Y0048669D01*
X0298546Y0048522D01*
X0298356Y0048380D01*
X0298161Y0048242D01*
X0297964Y0048110D01*
X0297764Y0047982D01*
X0297560Y0047859D01*
X0297354Y0047741D01*
X0297144Y0047627D01*
X0296932Y0047519D01*
X0296718Y0047417D01*
X0296501Y0047319D01*
X0296282Y0047227D01*
X0296060Y0047140D01*
X0295837Y0047058D01*
X0295612Y0046982D01*
X0295385Y0046911D01*
X0295156Y0046846D01*
X0294926Y0046786D01*
X0294694Y0046732D01*
X0294461Y0046683D01*
X0294227Y0046640D01*
X0293992Y0046603D01*
X0293756Y0046572D01*
X0293520Y0046546D01*
X0293283Y0046526D01*
X0293046Y0046511D01*
X0292808Y0046503D01*
X0292570Y0046500D01*
X0115405Y0046500D01*
X0115167Y0046503D01*
X0114929Y0046511D01*
X0114692Y0046526D01*
X0114455Y0046546D01*
X0114219Y0046572D01*
X0113983Y0046603D01*
X0113748Y0046640D01*
X0113514Y0046683D01*
X0113281Y0046732D01*
X0113049Y0046786D01*
X0112819Y0046846D01*
X0112590Y0046911D01*
X0112363Y0046982D01*
X0112138Y0047058D01*
X0111915Y0047140D01*
X0111693Y0047227D01*
X0111474Y0047319D01*
X0111257Y0047417D01*
X0111043Y0047519D01*
X0110831Y0047627D01*
X0110621Y0047741D01*
X0110415Y0047859D01*
X0110211Y0047982D01*
X0110011Y0048110D01*
X0109814Y0048242D01*
X0109619Y0048380D01*
X0109429Y0048522D01*
X0109241Y0048669D01*
X0109058Y0048820D01*
X0108878Y0048975D01*
X0108702Y0049135D01*
X0108530Y0049299D01*
X0108361Y0049468D01*
X0108197Y0049640D01*
X0108037Y0049816D01*
X0107882Y0049996D01*
X0107731Y0050179D01*
X0107584Y0050367D01*
X0107442Y0050557D01*
X0107304Y0050752D01*
X0107172Y0050949D01*
X0107044Y0051149D01*
X0106921Y0051353D01*
X0106803Y0051559D01*
X0106689Y0051769D01*
X0106581Y0051981D01*
X0106479Y0052195D01*
X0106381Y0052412D01*
X0106289Y0052631D01*
X0106202Y0052853D01*
X0106120Y0053076D01*
X0106044Y0053301D01*
X0105973Y0053528D01*
X0105908Y0053757D01*
X0105848Y0053987D01*
X0105794Y0054219D01*
X0105745Y0054452D01*
X0105702Y0054686D01*
X0105665Y0054921D01*
X0105634Y0055157D01*
X0105608Y0055393D01*
X0105588Y0055630D01*
X0105573Y0055867D01*
X0105565Y0056105D01*
X0105562Y0056343D01*
D11*
X0109893Y0056343D02*
X0109895Y0056491D01*
X0109901Y0056639D01*
X0109911Y0056787D01*
X0109925Y0056934D01*
X0109943Y0057081D01*
X0109964Y0057227D01*
X0109990Y0057373D01*
X0110020Y0057518D01*
X0110053Y0057662D01*
X0110091Y0057805D01*
X0110132Y0057947D01*
X0110177Y0058088D01*
X0110225Y0058228D01*
X0110278Y0058367D01*
X0110334Y0058504D01*
X0110394Y0058639D01*
X0110457Y0058773D01*
X0110524Y0058905D01*
X0110595Y0059035D01*
X0110669Y0059163D01*
X0110746Y0059289D01*
X0110827Y0059413D01*
X0110911Y0059535D01*
X0110998Y0059654D01*
X0111089Y0059771D01*
X0111183Y0059886D01*
X0111279Y0059998D01*
X0111379Y0060108D01*
X0111481Y0060214D01*
X0111587Y0060318D01*
X0111695Y0060419D01*
X0111806Y0060517D01*
X0111919Y0060613D01*
X0112035Y0060705D01*
X0112153Y0060794D01*
X0112274Y0060879D01*
X0112397Y0060962D01*
X0112522Y0061041D01*
X0112649Y0061117D01*
X0112778Y0061189D01*
X0112909Y0061258D01*
X0113042Y0061323D01*
X0113177Y0061384D01*
X0113313Y0061442D01*
X0113450Y0061497D01*
X0113589Y0061547D01*
X0113730Y0061594D01*
X0113871Y0061637D01*
X0114014Y0061677D01*
X0114158Y0061712D01*
X0114302Y0061744D01*
X0114448Y0061771D01*
X0114594Y0061795D01*
X0114741Y0061815D01*
X0114888Y0061831D01*
X0115035Y0061843D01*
X0115183Y0061851D01*
X0115331Y0061855D01*
X0115479Y0061855D01*
X0115627Y0061851D01*
X0115775Y0061843D01*
X0115922Y0061831D01*
X0116069Y0061815D01*
X0116216Y0061795D01*
X0116362Y0061771D01*
X0116508Y0061744D01*
X0116652Y0061712D01*
X0116796Y0061677D01*
X0116939Y0061637D01*
X0117080Y0061594D01*
X0117221Y0061547D01*
X0117360Y0061497D01*
X0117497Y0061442D01*
X0117633Y0061384D01*
X0117768Y0061323D01*
X0117901Y0061258D01*
X0118032Y0061189D01*
X0118161Y0061117D01*
X0118288Y0061041D01*
X0118413Y0060962D01*
X0118536Y0060879D01*
X0118657Y0060794D01*
X0118775Y0060705D01*
X0118891Y0060613D01*
X0119004Y0060517D01*
X0119115Y0060419D01*
X0119223Y0060318D01*
X0119329Y0060214D01*
X0119431Y0060108D01*
X0119531Y0059998D01*
X0119627Y0059886D01*
X0119721Y0059771D01*
X0119812Y0059654D01*
X0119899Y0059535D01*
X0119983Y0059413D01*
X0120064Y0059289D01*
X0120141Y0059163D01*
X0120215Y0059035D01*
X0120286Y0058905D01*
X0120353Y0058773D01*
X0120416Y0058639D01*
X0120476Y0058504D01*
X0120532Y0058367D01*
X0120585Y0058228D01*
X0120633Y0058088D01*
X0120678Y0057947D01*
X0120719Y0057805D01*
X0120757Y0057662D01*
X0120790Y0057518D01*
X0120820Y0057373D01*
X0120846Y0057227D01*
X0120867Y0057081D01*
X0120885Y0056934D01*
X0120899Y0056787D01*
X0120909Y0056639D01*
X0120915Y0056491D01*
X0120917Y0056343D01*
X0120915Y0056195D01*
X0120909Y0056047D01*
X0120899Y0055899D01*
X0120885Y0055752D01*
X0120867Y0055605D01*
X0120846Y0055459D01*
X0120820Y0055313D01*
X0120790Y0055168D01*
X0120757Y0055024D01*
X0120719Y0054881D01*
X0120678Y0054739D01*
X0120633Y0054598D01*
X0120585Y0054458D01*
X0120532Y0054319D01*
X0120476Y0054182D01*
X0120416Y0054047D01*
X0120353Y0053913D01*
X0120286Y0053781D01*
X0120215Y0053651D01*
X0120141Y0053523D01*
X0120064Y0053397D01*
X0119983Y0053273D01*
X0119899Y0053151D01*
X0119812Y0053032D01*
X0119721Y0052915D01*
X0119627Y0052800D01*
X0119531Y0052688D01*
X0119431Y0052578D01*
X0119329Y0052472D01*
X0119223Y0052368D01*
X0119115Y0052267D01*
X0119004Y0052169D01*
X0118891Y0052073D01*
X0118775Y0051981D01*
X0118657Y0051892D01*
X0118536Y0051807D01*
X0118413Y0051724D01*
X0118288Y0051645D01*
X0118161Y0051569D01*
X0118032Y0051497D01*
X0117901Y0051428D01*
X0117768Y0051363D01*
X0117633Y0051302D01*
X0117497Y0051244D01*
X0117360Y0051189D01*
X0117221Y0051139D01*
X0117080Y0051092D01*
X0116939Y0051049D01*
X0116796Y0051009D01*
X0116652Y0050974D01*
X0116508Y0050942D01*
X0116362Y0050915D01*
X0116216Y0050891D01*
X0116069Y0050871D01*
X0115922Y0050855D01*
X0115775Y0050843D01*
X0115627Y0050835D01*
X0115479Y0050831D01*
X0115331Y0050831D01*
X0115183Y0050835D01*
X0115035Y0050843D01*
X0114888Y0050855D01*
X0114741Y0050871D01*
X0114594Y0050891D01*
X0114448Y0050915D01*
X0114302Y0050942D01*
X0114158Y0050974D01*
X0114014Y0051009D01*
X0113871Y0051049D01*
X0113730Y0051092D01*
X0113589Y0051139D01*
X0113450Y0051189D01*
X0113313Y0051244D01*
X0113177Y0051302D01*
X0113042Y0051363D01*
X0112909Y0051428D01*
X0112778Y0051497D01*
X0112649Y0051569D01*
X0112522Y0051645D01*
X0112397Y0051724D01*
X0112274Y0051807D01*
X0112153Y0051892D01*
X0112035Y0051981D01*
X0111919Y0052073D01*
X0111806Y0052169D01*
X0111695Y0052267D01*
X0111587Y0052368D01*
X0111481Y0052472D01*
X0111379Y0052578D01*
X0111279Y0052688D01*
X0111183Y0052800D01*
X0111089Y0052915D01*
X0110998Y0053032D01*
X0110911Y0053151D01*
X0110827Y0053273D01*
X0110746Y0053397D01*
X0110669Y0053523D01*
X0110595Y0053651D01*
X0110524Y0053781D01*
X0110457Y0053913D01*
X0110394Y0054047D01*
X0110334Y0054182D01*
X0110278Y0054319D01*
X0110225Y0054458D01*
X0110177Y0054598D01*
X0110132Y0054739D01*
X0110091Y0054881D01*
X0110053Y0055024D01*
X0110020Y0055168D01*
X0109990Y0055313D01*
X0109964Y0055459D01*
X0109943Y0055605D01*
X0109925Y0055752D01*
X0109911Y0055899D01*
X0109901Y0056047D01*
X0109895Y0056195D01*
X0109893Y0056343D01*
X0222379Y0192045D02*
X0222381Y0192206D01*
X0222387Y0192366D01*
X0222397Y0192527D01*
X0222411Y0192687D01*
X0222429Y0192847D01*
X0222450Y0193006D01*
X0222476Y0193165D01*
X0222506Y0193323D01*
X0222539Y0193480D01*
X0222577Y0193637D01*
X0222618Y0193792D01*
X0222663Y0193946D01*
X0222712Y0194099D01*
X0222765Y0194251D01*
X0222821Y0194402D01*
X0222882Y0194551D01*
X0222945Y0194699D01*
X0223013Y0194845D01*
X0223084Y0194989D01*
X0223158Y0195131D01*
X0223236Y0195272D01*
X0223318Y0195410D01*
X0223403Y0195547D01*
X0223491Y0195681D01*
X0223583Y0195813D01*
X0223678Y0195943D01*
X0223776Y0196071D01*
X0223877Y0196196D01*
X0223981Y0196318D01*
X0224088Y0196438D01*
X0224198Y0196555D01*
X0224311Y0196670D01*
X0224427Y0196781D01*
X0224546Y0196890D01*
X0224667Y0196995D01*
X0224791Y0197098D01*
X0224917Y0197198D01*
X0225045Y0197294D01*
X0225176Y0197387D01*
X0225310Y0197477D01*
X0225445Y0197564D01*
X0225583Y0197647D01*
X0225722Y0197727D01*
X0225864Y0197803D01*
X0226007Y0197876D01*
X0226152Y0197945D01*
X0226299Y0198011D01*
X0226447Y0198073D01*
X0226597Y0198131D01*
X0226748Y0198186D01*
X0226901Y0198237D01*
X0227055Y0198284D01*
X0227210Y0198327D01*
X0227366Y0198366D01*
X0227522Y0198402D01*
X0227680Y0198433D01*
X0227838Y0198461D01*
X0227997Y0198485D01*
X0228157Y0198505D01*
X0228317Y0198521D01*
X0228477Y0198533D01*
X0228638Y0198541D01*
X0228799Y0198545D01*
X0228959Y0198545D01*
X0229120Y0198541D01*
X0229281Y0198533D01*
X0229441Y0198521D01*
X0229601Y0198505D01*
X0229761Y0198485D01*
X0229920Y0198461D01*
X0230078Y0198433D01*
X0230236Y0198402D01*
X0230392Y0198366D01*
X0230548Y0198327D01*
X0230703Y0198284D01*
X0230857Y0198237D01*
X0231010Y0198186D01*
X0231161Y0198131D01*
X0231311Y0198073D01*
X0231459Y0198011D01*
X0231606Y0197945D01*
X0231751Y0197876D01*
X0231894Y0197803D01*
X0232036Y0197727D01*
X0232175Y0197647D01*
X0232313Y0197564D01*
X0232448Y0197477D01*
X0232582Y0197387D01*
X0232713Y0197294D01*
X0232841Y0197198D01*
X0232967Y0197098D01*
X0233091Y0196995D01*
X0233212Y0196890D01*
X0233331Y0196781D01*
X0233447Y0196670D01*
X0233560Y0196555D01*
X0233670Y0196438D01*
X0233777Y0196318D01*
X0233881Y0196196D01*
X0233982Y0196071D01*
X0234080Y0195943D01*
X0234175Y0195813D01*
X0234267Y0195681D01*
X0234355Y0195547D01*
X0234440Y0195410D01*
X0234522Y0195272D01*
X0234600Y0195131D01*
X0234674Y0194989D01*
X0234745Y0194845D01*
X0234813Y0194699D01*
X0234876Y0194551D01*
X0234937Y0194402D01*
X0234993Y0194251D01*
X0235046Y0194099D01*
X0235095Y0193946D01*
X0235140Y0193792D01*
X0235181Y0193637D01*
X0235219Y0193480D01*
X0235252Y0193323D01*
X0235282Y0193165D01*
X0235308Y0193006D01*
X0235329Y0192847D01*
X0235347Y0192687D01*
X0235361Y0192527D01*
X0235371Y0192366D01*
X0235377Y0192206D01*
X0235379Y0192045D01*
X0235377Y0191884D01*
X0235371Y0191724D01*
X0235361Y0191563D01*
X0235347Y0191403D01*
X0235329Y0191243D01*
X0235308Y0191084D01*
X0235282Y0190925D01*
X0235252Y0190767D01*
X0235219Y0190610D01*
X0235181Y0190453D01*
X0235140Y0190298D01*
X0235095Y0190144D01*
X0235046Y0189991D01*
X0234993Y0189839D01*
X0234937Y0189688D01*
X0234876Y0189539D01*
X0234813Y0189391D01*
X0234745Y0189245D01*
X0234674Y0189101D01*
X0234600Y0188959D01*
X0234522Y0188818D01*
X0234440Y0188680D01*
X0234355Y0188543D01*
X0234267Y0188409D01*
X0234175Y0188277D01*
X0234080Y0188147D01*
X0233982Y0188019D01*
X0233881Y0187894D01*
X0233777Y0187772D01*
X0233670Y0187652D01*
X0233560Y0187535D01*
X0233447Y0187420D01*
X0233331Y0187309D01*
X0233212Y0187200D01*
X0233091Y0187095D01*
X0232967Y0186992D01*
X0232841Y0186892D01*
X0232713Y0186796D01*
X0232582Y0186703D01*
X0232448Y0186613D01*
X0232313Y0186526D01*
X0232175Y0186443D01*
X0232036Y0186363D01*
X0231894Y0186287D01*
X0231751Y0186214D01*
X0231606Y0186145D01*
X0231459Y0186079D01*
X0231311Y0186017D01*
X0231161Y0185959D01*
X0231010Y0185904D01*
X0230857Y0185853D01*
X0230703Y0185806D01*
X0230548Y0185763D01*
X0230392Y0185724D01*
X0230236Y0185688D01*
X0230078Y0185657D01*
X0229920Y0185629D01*
X0229761Y0185605D01*
X0229601Y0185585D01*
X0229441Y0185569D01*
X0229281Y0185557D01*
X0229120Y0185549D01*
X0228959Y0185545D01*
X0228799Y0185545D01*
X0228638Y0185549D01*
X0228477Y0185557D01*
X0228317Y0185569D01*
X0228157Y0185585D01*
X0227997Y0185605D01*
X0227838Y0185629D01*
X0227680Y0185657D01*
X0227522Y0185688D01*
X0227366Y0185724D01*
X0227210Y0185763D01*
X0227055Y0185806D01*
X0226901Y0185853D01*
X0226748Y0185904D01*
X0226597Y0185959D01*
X0226447Y0186017D01*
X0226299Y0186079D01*
X0226152Y0186145D01*
X0226007Y0186214D01*
X0225864Y0186287D01*
X0225722Y0186363D01*
X0225583Y0186443D01*
X0225445Y0186526D01*
X0225310Y0186613D01*
X0225176Y0186703D01*
X0225045Y0186796D01*
X0224917Y0186892D01*
X0224791Y0186992D01*
X0224667Y0187095D01*
X0224546Y0187200D01*
X0224427Y0187309D01*
X0224311Y0187420D01*
X0224198Y0187535D01*
X0224088Y0187652D01*
X0223981Y0187772D01*
X0223877Y0187894D01*
X0223776Y0188019D01*
X0223678Y0188147D01*
X0223583Y0188277D01*
X0223491Y0188409D01*
X0223403Y0188543D01*
X0223318Y0188680D01*
X0223236Y0188818D01*
X0223158Y0188959D01*
X0223084Y0189101D01*
X0223013Y0189245D01*
X0222945Y0189391D01*
X0222882Y0189539D01*
X0222821Y0189688D01*
X0222765Y0189839D01*
X0222712Y0189991D01*
X0222663Y0190144D01*
X0222618Y0190298D01*
X0222577Y0190453D01*
X0222539Y0190610D01*
X0222506Y0190767D01*
X0222476Y0190925D01*
X0222450Y0191084D01*
X0222429Y0191243D01*
X0222411Y0191403D01*
X0222397Y0191563D01*
X0222387Y0191724D01*
X0222381Y0191884D01*
X0222379Y0192045D01*
X0176178Y0192439D02*
X0176180Y0192600D01*
X0176186Y0192760D01*
X0176196Y0192921D01*
X0176210Y0193081D01*
X0176228Y0193241D01*
X0176249Y0193400D01*
X0176275Y0193559D01*
X0176305Y0193717D01*
X0176338Y0193874D01*
X0176376Y0194031D01*
X0176417Y0194186D01*
X0176462Y0194340D01*
X0176511Y0194493D01*
X0176564Y0194645D01*
X0176620Y0194796D01*
X0176681Y0194945D01*
X0176744Y0195093D01*
X0176812Y0195239D01*
X0176883Y0195383D01*
X0176957Y0195525D01*
X0177035Y0195666D01*
X0177117Y0195804D01*
X0177202Y0195941D01*
X0177290Y0196075D01*
X0177382Y0196207D01*
X0177477Y0196337D01*
X0177575Y0196465D01*
X0177676Y0196590D01*
X0177780Y0196712D01*
X0177887Y0196832D01*
X0177997Y0196949D01*
X0178110Y0197064D01*
X0178226Y0197175D01*
X0178345Y0197284D01*
X0178466Y0197389D01*
X0178590Y0197492D01*
X0178716Y0197592D01*
X0178844Y0197688D01*
X0178975Y0197781D01*
X0179109Y0197871D01*
X0179244Y0197958D01*
X0179382Y0198041D01*
X0179521Y0198121D01*
X0179663Y0198197D01*
X0179806Y0198270D01*
X0179951Y0198339D01*
X0180098Y0198405D01*
X0180246Y0198467D01*
X0180396Y0198525D01*
X0180547Y0198580D01*
X0180700Y0198631D01*
X0180854Y0198678D01*
X0181009Y0198721D01*
X0181165Y0198760D01*
X0181321Y0198796D01*
X0181479Y0198827D01*
X0181637Y0198855D01*
X0181796Y0198879D01*
X0181956Y0198899D01*
X0182116Y0198915D01*
X0182276Y0198927D01*
X0182437Y0198935D01*
X0182598Y0198939D01*
X0182758Y0198939D01*
X0182919Y0198935D01*
X0183080Y0198927D01*
X0183240Y0198915D01*
X0183400Y0198899D01*
X0183560Y0198879D01*
X0183719Y0198855D01*
X0183877Y0198827D01*
X0184035Y0198796D01*
X0184191Y0198760D01*
X0184347Y0198721D01*
X0184502Y0198678D01*
X0184656Y0198631D01*
X0184809Y0198580D01*
X0184960Y0198525D01*
X0185110Y0198467D01*
X0185258Y0198405D01*
X0185405Y0198339D01*
X0185550Y0198270D01*
X0185693Y0198197D01*
X0185835Y0198121D01*
X0185974Y0198041D01*
X0186112Y0197958D01*
X0186247Y0197871D01*
X0186381Y0197781D01*
X0186512Y0197688D01*
X0186640Y0197592D01*
X0186766Y0197492D01*
X0186890Y0197389D01*
X0187011Y0197284D01*
X0187130Y0197175D01*
X0187246Y0197064D01*
X0187359Y0196949D01*
X0187469Y0196832D01*
X0187576Y0196712D01*
X0187680Y0196590D01*
X0187781Y0196465D01*
X0187879Y0196337D01*
X0187974Y0196207D01*
X0188066Y0196075D01*
X0188154Y0195941D01*
X0188239Y0195804D01*
X0188321Y0195666D01*
X0188399Y0195525D01*
X0188473Y0195383D01*
X0188544Y0195239D01*
X0188612Y0195093D01*
X0188675Y0194945D01*
X0188736Y0194796D01*
X0188792Y0194645D01*
X0188845Y0194493D01*
X0188894Y0194340D01*
X0188939Y0194186D01*
X0188980Y0194031D01*
X0189018Y0193874D01*
X0189051Y0193717D01*
X0189081Y0193559D01*
X0189107Y0193400D01*
X0189128Y0193241D01*
X0189146Y0193081D01*
X0189160Y0192921D01*
X0189170Y0192760D01*
X0189176Y0192600D01*
X0189178Y0192439D01*
X0189176Y0192278D01*
X0189170Y0192118D01*
X0189160Y0191957D01*
X0189146Y0191797D01*
X0189128Y0191637D01*
X0189107Y0191478D01*
X0189081Y0191319D01*
X0189051Y0191161D01*
X0189018Y0191004D01*
X0188980Y0190847D01*
X0188939Y0190692D01*
X0188894Y0190538D01*
X0188845Y0190385D01*
X0188792Y0190233D01*
X0188736Y0190082D01*
X0188675Y0189933D01*
X0188612Y0189785D01*
X0188544Y0189639D01*
X0188473Y0189495D01*
X0188399Y0189353D01*
X0188321Y0189212D01*
X0188239Y0189074D01*
X0188154Y0188937D01*
X0188066Y0188803D01*
X0187974Y0188671D01*
X0187879Y0188541D01*
X0187781Y0188413D01*
X0187680Y0188288D01*
X0187576Y0188166D01*
X0187469Y0188046D01*
X0187359Y0187929D01*
X0187246Y0187814D01*
X0187130Y0187703D01*
X0187011Y0187594D01*
X0186890Y0187489D01*
X0186766Y0187386D01*
X0186640Y0187286D01*
X0186512Y0187190D01*
X0186381Y0187097D01*
X0186247Y0187007D01*
X0186112Y0186920D01*
X0185974Y0186837D01*
X0185835Y0186757D01*
X0185693Y0186681D01*
X0185550Y0186608D01*
X0185405Y0186539D01*
X0185258Y0186473D01*
X0185110Y0186411D01*
X0184960Y0186353D01*
X0184809Y0186298D01*
X0184656Y0186247D01*
X0184502Y0186200D01*
X0184347Y0186157D01*
X0184191Y0186118D01*
X0184035Y0186082D01*
X0183877Y0186051D01*
X0183719Y0186023D01*
X0183560Y0185999D01*
X0183400Y0185979D01*
X0183240Y0185963D01*
X0183080Y0185951D01*
X0182919Y0185943D01*
X0182758Y0185939D01*
X0182598Y0185939D01*
X0182437Y0185943D01*
X0182276Y0185951D01*
X0182116Y0185963D01*
X0181956Y0185979D01*
X0181796Y0185999D01*
X0181637Y0186023D01*
X0181479Y0186051D01*
X0181321Y0186082D01*
X0181165Y0186118D01*
X0181009Y0186157D01*
X0180854Y0186200D01*
X0180700Y0186247D01*
X0180547Y0186298D01*
X0180396Y0186353D01*
X0180246Y0186411D01*
X0180098Y0186473D01*
X0179951Y0186539D01*
X0179806Y0186608D01*
X0179663Y0186681D01*
X0179521Y0186757D01*
X0179382Y0186837D01*
X0179244Y0186920D01*
X0179109Y0187007D01*
X0178975Y0187097D01*
X0178844Y0187190D01*
X0178716Y0187286D01*
X0178590Y0187386D01*
X0178466Y0187489D01*
X0178345Y0187594D01*
X0178226Y0187703D01*
X0178110Y0187814D01*
X0177997Y0187929D01*
X0177887Y0188046D01*
X0177780Y0188166D01*
X0177676Y0188288D01*
X0177575Y0188413D01*
X0177477Y0188541D01*
X0177382Y0188671D01*
X0177290Y0188803D01*
X0177202Y0188937D01*
X0177117Y0189074D01*
X0177035Y0189212D01*
X0176957Y0189353D01*
X0176883Y0189495D01*
X0176812Y0189639D01*
X0176744Y0189785D01*
X0176681Y0189933D01*
X0176620Y0190082D01*
X0176564Y0190233D01*
X0176511Y0190385D01*
X0176462Y0190538D01*
X0176417Y0190692D01*
X0176376Y0190847D01*
X0176338Y0191004D01*
X0176305Y0191161D01*
X0176275Y0191319D01*
X0176249Y0191478D01*
X0176228Y0191637D01*
X0176210Y0191797D01*
X0176196Y0191957D01*
X0176186Y0192118D01*
X0176180Y0192278D01*
X0176178Y0192439D01*
X0128403Y0206041D02*
X0128405Y0206202D01*
X0128411Y0206362D01*
X0128421Y0206523D01*
X0128435Y0206683D01*
X0128453Y0206843D01*
X0128474Y0207002D01*
X0128500Y0207161D01*
X0128530Y0207319D01*
X0128563Y0207476D01*
X0128601Y0207633D01*
X0128642Y0207788D01*
X0128687Y0207942D01*
X0128736Y0208095D01*
X0128789Y0208247D01*
X0128845Y0208398D01*
X0128906Y0208547D01*
X0128969Y0208695D01*
X0129037Y0208841D01*
X0129108Y0208985D01*
X0129182Y0209127D01*
X0129260Y0209268D01*
X0129342Y0209406D01*
X0129427Y0209543D01*
X0129515Y0209677D01*
X0129607Y0209809D01*
X0129702Y0209939D01*
X0129800Y0210067D01*
X0129901Y0210192D01*
X0130005Y0210314D01*
X0130112Y0210434D01*
X0130222Y0210551D01*
X0130335Y0210666D01*
X0130451Y0210777D01*
X0130570Y0210886D01*
X0130691Y0210991D01*
X0130815Y0211094D01*
X0130941Y0211194D01*
X0131069Y0211290D01*
X0131200Y0211383D01*
X0131334Y0211473D01*
X0131469Y0211560D01*
X0131607Y0211643D01*
X0131746Y0211723D01*
X0131888Y0211799D01*
X0132031Y0211872D01*
X0132176Y0211941D01*
X0132323Y0212007D01*
X0132471Y0212069D01*
X0132621Y0212127D01*
X0132772Y0212182D01*
X0132925Y0212233D01*
X0133079Y0212280D01*
X0133234Y0212323D01*
X0133390Y0212362D01*
X0133546Y0212398D01*
X0133704Y0212429D01*
X0133862Y0212457D01*
X0134021Y0212481D01*
X0134181Y0212501D01*
X0134341Y0212517D01*
X0134501Y0212529D01*
X0134662Y0212537D01*
X0134823Y0212541D01*
X0134983Y0212541D01*
X0135144Y0212537D01*
X0135305Y0212529D01*
X0135465Y0212517D01*
X0135625Y0212501D01*
X0135785Y0212481D01*
X0135944Y0212457D01*
X0136102Y0212429D01*
X0136260Y0212398D01*
X0136416Y0212362D01*
X0136572Y0212323D01*
X0136727Y0212280D01*
X0136881Y0212233D01*
X0137034Y0212182D01*
X0137185Y0212127D01*
X0137335Y0212069D01*
X0137483Y0212007D01*
X0137630Y0211941D01*
X0137775Y0211872D01*
X0137918Y0211799D01*
X0138060Y0211723D01*
X0138199Y0211643D01*
X0138337Y0211560D01*
X0138472Y0211473D01*
X0138606Y0211383D01*
X0138737Y0211290D01*
X0138865Y0211194D01*
X0138991Y0211094D01*
X0139115Y0210991D01*
X0139236Y0210886D01*
X0139355Y0210777D01*
X0139471Y0210666D01*
X0139584Y0210551D01*
X0139694Y0210434D01*
X0139801Y0210314D01*
X0139905Y0210192D01*
X0140006Y0210067D01*
X0140104Y0209939D01*
X0140199Y0209809D01*
X0140291Y0209677D01*
X0140379Y0209543D01*
X0140464Y0209406D01*
X0140546Y0209268D01*
X0140624Y0209127D01*
X0140698Y0208985D01*
X0140769Y0208841D01*
X0140837Y0208695D01*
X0140900Y0208547D01*
X0140961Y0208398D01*
X0141017Y0208247D01*
X0141070Y0208095D01*
X0141119Y0207942D01*
X0141164Y0207788D01*
X0141205Y0207633D01*
X0141243Y0207476D01*
X0141276Y0207319D01*
X0141306Y0207161D01*
X0141332Y0207002D01*
X0141353Y0206843D01*
X0141371Y0206683D01*
X0141385Y0206523D01*
X0141395Y0206362D01*
X0141401Y0206202D01*
X0141403Y0206041D01*
X0141401Y0205880D01*
X0141395Y0205720D01*
X0141385Y0205559D01*
X0141371Y0205399D01*
X0141353Y0205239D01*
X0141332Y0205080D01*
X0141306Y0204921D01*
X0141276Y0204763D01*
X0141243Y0204606D01*
X0141205Y0204449D01*
X0141164Y0204294D01*
X0141119Y0204140D01*
X0141070Y0203987D01*
X0141017Y0203835D01*
X0140961Y0203684D01*
X0140900Y0203535D01*
X0140837Y0203387D01*
X0140769Y0203241D01*
X0140698Y0203097D01*
X0140624Y0202955D01*
X0140546Y0202814D01*
X0140464Y0202676D01*
X0140379Y0202539D01*
X0140291Y0202405D01*
X0140199Y0202273D01*
X0140104Y0202143D01*
X0140006Y0202015D01*
X0139905Y0201890D01*
X0139801Y0201768D01*
X0139694Y0201648D01*
X0139584Y0201531D01*
X0139471Y0201416D01*
X0139355Y0201305D01*
X0139236Y0201196D01*
X0139115Y0201091D01*
X0138991Y0200988D01*
X0138865Y0200888D01*
X0138737Y0200792D01*
X0138606Y0200699D01*
X0138472Y0200609D01*
X0138337Y0200522D01*
X0138199Y0200439D01*
X0138060Y0200359D01*
X0137918Y0200283D01*
X0137775Y0200210D01*
X0137630Y0200141D01*
X0137483Y0200075D01*
X0137335Y0200013D01*
X0137185Y0199955D01*
X0137034Y0199900D01*
X0136881Y0199849D01*
X0136727Y0199802D01*
X0136572Y0199759D01*
X0136416Y0199720D01*
X0136260Y0199684D01*
X0136102Y0199653D01*
X0135944Y0199625D01*
X0135785Y0199601D01*
X0135625Y0199581D01*
X0135465Y0199565D01*
X0135305Y0199553D01*
X0135144Y0199545D01*
X0134983Y0199541D01*
X0134823Y0199541D01*
X0134662Y0199545D01*
X0134501Y0199553D01*
X0134341Y0199565D01*
X0134181Y0199581D01*
X0134021Y0199601D01*
X0133862Y0199625D01*
X0133704Y0199653D01*
X0133546Y0199684D01*
X0133390Y0199720D01*
X0133234Y0199759D01*
X0133079Y0199802D01*
X0132925Y0199849D01*
X0132772Y0199900D01*
X0132621Y0199955D01*
X0132471Y0200013D01*
X0132323Y0200075D01*
X0132176Y0200141D01*
X0132031Y0200210D01*
X0131888Y0200283D01*
X0131746Y0200359D01*
X0131607Y0200439D01*
X0131469Y0200522D01*
X0131334Y0200609D01*
X0131200Y0200699D01*
X0131069Y0200792D01*
X0130941Y0200888D01*
X0130815Y0200988D01*
X0130691Y0201091D01*
X0130570Y0201196D01*
X0130451Y0201305D01*
X0130335Y0201416D01*
X0130222Y0201531D01*
X0130112Y0201648D01*
X0130005Y0201768D01*
X0129901Y0201890D01*
X0129800Y0202015D01*
X0129702Y0202143D01*
X0129607Y0202273D01*
X0129515Y0202405D01*
X0129427Y0202539D01*
X0129342Y0202676D01*
X0129260Y0202814D01*
X0129182Y0202955D01*
X0129108Y0203097D01*
X0129037Y0203241D01*
X0128969Y0203387D01*
X0128906Y0203535D01*
X0128845Y0203684D01*
X0128789Y0203835D01*
X0128736Y0203987D01*
X0128687Y0204140D01*
X0128642Y0204294D01*
X0128601Y0204449D01*
X0128563Y0204606D01*
X0128530Y0204763D01*
X0128500Y0204921D01*
X0128474Y0205080D01*
X0128453Y0205239D01*
X0128435Y0205399D01*
X0128421Y0205559D01*
X0128411Y0205720D01*
X0128405Y0205880D01*
X0128403Y0206041D01*
X0109893Y0233508D02*
X0109895Y0233656D01*
X0109901Y0233804D01*
X0109911Y0233952D01*
X0109925Y0234099D01*
X0109943Y0234246D01*
X0109964Y0234392D01*
X0109990Y0234538D01*
X0110020Y0234683D01*
X0110053Y0234827D01*
X0110091Y0234970D01*
X0110132Y0235112D01*
X0110177Y0235253D01*
X0110225Y0235393D01*
X0110278Y0235532D01*
X0110334Y0235669D01*
X0110394Y0235804D01*
X0110457Y0235938D01*
X0110524Y0236070D01*
X0110595Y0236200D01*
X0110669Y0236328D01*
X0110746Y0236454D01*
X0110827Y0236578D01*
X0110911Y0236700D01*
X0110998Y0236819D01*
X0111089Y0236936D01*
X0111183Y0237051D01*
X0111279Y0237163D01*
X0111379Y0237273D01*
X0111481Y0237379D01*
X0111587Y0237483D01*
X0111695Y0237584D01*
X0111806Y0237682D01*
X0111919Y0237778D01*
X0112035Y0237870D01*
X0112153Y0237959D01*
X0112274Y0238044D01*
X0112397Y0238127D01*
X0112522Y0238206D01*
X0112649Y0238282D01*
X0112778Y0238354D01*
X0112909Y0238423D01*
X0113042Y0238488D01*
X0113177Y0238549D01*
X0113313Y0238607D01*
X0113450Y0238662D01*
X0113589Y0238712D01*
X0113730Y0238759D01*
X0113871Y0238802D01*
X0114014Y0238842D01*
X0114158Y0238877D01*
X0114302Y0238909D01*
X0114448Y0238936D01*
X0114594Y0238960D01*
X0114741Y0238980D01*
X0114888Y0238996D01*
X0115035Y0239008D01*
X0115183Y0239016D01*
X0115331Y0239020D01*
X0115479Y0239020D01*
X0115627Y0239016D01*
X0115775Y0239008D01*
X0115922Y0238996D01*
X0116069Y0238980D01*
X0116216Y0238960D01*
X0116362Y0238936D01*
X0116508Y0238909D01*
X0116652Y0238877D01*
X0116796Y0238842D01*
X0116939Y0238802D01*
X0117080Y0238759D01*
X0117221Y0238712D01*
X0117360Y0238662D01*
X0117497Y0238607D01*
X0117633Y0238549D01*
X0117768Y0238488D01*
X0117901Y0238423D01*
X0118032Y0238354D01*
X0118161Y0238282D01*
X0118288Y0238206D01*
X0118413Y0238127D01*
X0118536Y0238044D01*
X0118657Y0237959D01*
X0118775Y0237870D01*
X0118891Y0237778D01*
X0119004Y0237682D01*
X0119115Y0237584D01*
X0119223Y0237483D01*
X0119329Y0237379D01*
X0119431Y0237273D01*
X0119531Y0237163D01*
X0119627Y0237051D01*
X0119721Y0236936D01*
X0119812Y0236819D01*
X0119899Y0236700D01*
X0119983Y0236578D01*
X0120064Y0236454D01*
X0120141Y0236328D01*
X0120215Y0236200D01*
X0120286Y0236070D01*
X0120353Y0235938D01*
X0120416Y0235804D01*
X0120476Y0235669D01*
X0120532Y0235532D01*
X0120585Y0235393D01*
X0120633Y0235253D01*
X0120678Y0235112D01*
X0120719Y0234970D01*
X0120757Y0234827D01*
X0120790Y0234683D01*
X0120820Y0234538D01*
X0120846Y0234392D01*
X0120867Y0234246D01*
X0120885Y0234099D01*
X0120899Y0233952D01*
X0120909Y0233804D01*
X0120915Y0233656D01*
X0120917Y0233508D01*
X0120915Y0233360D01*
X0120909Y0233212D01*
X0120899Y0233064D01*
X0120885Y0232917D01*
X0120867Y0232770D01*
X0120846Y0232624D01*
X0120820Y0232478D01*
X0120790Y0232333D01*
X0120757Y0232189D01*
X0120719Y0232046D01*
X0120678Y0231904D01*
X0120633Y0231763D01*
X0120585Y0231623D01*
X0120532Y0231484D01*
X0120476Y0231347D01*
X0120416Y0231212D01*
X0120353Y0231078D01*
X0120286Y0230946D01*
X0120215Y0230816D01*
X0120141Y0230688D01*
X0120064Y0230562D01*
X0119983Y0230438D01*
X0119899Y0230316D01*
X0119812Y0230197D01*
X0119721Y0230080D01*
X0119627Y0229965D01*
X0119531Y0229853D01*
X0119431Y0229743D01*
X0119329Y0229637D01*
X0119223Y0229533D01*
X0119115Y0229432D01*
X0119004Y0229334D01*
X0118891Y0229238D01*
X0118775Y0229146D01*
X0118657Y0229057D01*
X0118536Y0228972D01*
X0118413Y0228889D01*
X0118288Y0228810D01*
X0118161Y0228734D01*
X0118032Y0228662D01*
X0117901Y0228593D01*
X0117768Y0228528D01*
X0117633Y0228467D01*
X0117497Y0228409D01*
X0117360Y0228354D01*
X0117221Y0228304D01*
X0117080Y0228257D01*
X0116939Y0228214D01*
X0116796Y0228174D01*
X0116652Y0228139D01*
X0116508Y0228107D01*
X0116362Y0228080D01*
X0116216Y0228056D01*
X0116069Y0228036D01*
X0115922Y0228020D01*
X0115775Y0228008D01*
X0115627Y0228000D01*
X0115479Y0227996D01*
X0115331Y0227996D01*
X0115183Y0228000D01*
X0115035Y0228008D01*
X0114888Y0228020D01*
X0114741Y0228036D01*
X0114594Y0228056D01*
X0114448Y0228080D01*
X0114302Y0228107D01*
X0114158Y0228139D01*
X0114014Y0228174D01*
X0113871Y0228214D01*
X0113730Y0228257D01*
X0113589Y0228304D01*
X0113450Y0228354D01*
X0113313Y0228409D01*
X0113177Y0228467D01*
X0113042Y0228528D01*
X0112909Y0228593D01*
X0112778Y0228662D01*
X0112649Y0228734D01*
X0112522Y0228810D01*
X0112397Y0228889D01*
X0112274Y0228972D01*
X0112153Y0229057D01*
X0112035Y0229146D01*
X0111919Y0229238D01*
X0111806Y0229334D01*
X0111695Y0229432D01*
X0111587Y0229533D01*
X0111481Y0229637D01*
X0111379Y0229743D01*
X0111279Y0229853D01*
X0111183Y0229965D01*
X0111089Y0230080D01*
X0110998Y0230197D01*
X0110911Y0230316D01*
X0110827Y0230438D01*
X0110746Y0230562D01*
X0110669Y0230688D01*
X0110595Y0230816D01*
X0110524Y0230946D01*
X0110457Y0231078D01*
X0110394Y0231212D01*
X0110334Y0231347D01*
X0110278Y0231484D01*
X0110225Y0231623D01*
X0110177Y0231763D01*
X0110132Y0231904D01*
X0110091Y0232046D01*
X0110053Y0232189D01*
X0110020Y0232333D01*
X0109990Y0232478D01*
X0109964Y0232624D01*
X0109943Y0232770D01*
X0109925Y0232917D01*
X0109911Y0233064D01*
X0109901Y0233212D01*
X0109895Y0233360D01*
X0109893Y0233508D01*
X0109893Y0253193D02*
X0109895Y0253341D01*
X0109901Y0253489D01*
X0109911Y0253637D01*
X0109925Y0253784D01*
X0109943Y0253931D01*
X0109964Y0254077D01*
X0109990Y0254223D01*
X0110020Y0254368D01*
X0110053Y0254512D01*
X0110091Y0254655D01*
X0110132Y0254797D01*
X0110177Y0254938D01*
X0110225Y0255078D01*
X0110278Y0255217D01*
X0110334Y0255354D01*
X0110394Y0255489D01*
X0110457Y0255623D01*
X0110524Y0255755D01*
X0110595Y0255885D01*
X0110669Y0256013D01*
X0110746Y0256139D01*
X0110827Y0256263D01*
X0110911Y0256385D01*
X0110998Y0256504D01*
X0111089Y0256621D01*
X0111183Y0256736D01*
X0111279Y0256848D01*
X0111379Y0256958D01*
X0111481Y0257064D01*
X0111587Y0257168D01*
X0111695Y0257269D01*
X0111806Y0257367D01*
X0111919Y0257463D01*
X0112035Y0257555D01*
X0112153Y0257644D01*
X0112274Y0257729D01*
X0112397Y0257812D01*
X0112522Y0257891D01*
X0112649Y0257967D01*
X0112778Y0258039D01*
X0112909Y0258108D01*
X0113042Y0258173D01*
X0113177Y0258234D01*
X0113313Y0258292D01*
X0113450Y0258347D01*
X0113589Y0258397D01*
X0113730Y0258444D01*
X0113871Y0258487D01*
X0114014Y0258527D01*
X0114158Y0258562D01*
X0114302Y0258594D01*
X0114448Y0258621D01*
X0114594Y0258645D01*
X0114741Y0258665D01*
X0114888Y0258681D01*
X0115035Y0258693D01*
X0115183Y0258701D01*
X0115331Y0258705D01*
X0115479Y0258705D01*
X0115627Y0258701D01*
X0115775Y0258693D01*
X0115922Y0258681D01*
X0116069Y0258665D01*
X0116216Y0258645D01*
X0116362Y0258621D01*
X0116508Y0258594D01*
X0116652Y0258562D01*
X0116796Y0258527D01*
X0116939Y0258487D01*
X0117080Y0258444D01*
X0117221Y0258397D01*
X0117360Y0258347D01*
X0117497Y0258292D01*
X0117633Y0258234D01*
X0117768Y0258173D01*
X0117901Y0258108D01*
X0118032Y0258039D01*
X0118161Y0257967D01*
X0118288Y0257891D01*
X0118413Y0257812D01*
X0118536Y0257729D01*
X0118657Y0257644D01*
X0118775Y0257555D01*
X0118891Y0257463D01*
X0119004Y0257367D01*
X0119115Y0257269D01*
X0119223Y0257168D01*
X0119329Y0257064D01*
X0119431Y0256958D01*
X0119531Y0256848D01*
X0119627Y0256736D01*
X0119721Y0256621D01*
X0119812Y0256504D01*
X0119899Y0256385D01*
X0119983Y0256263D01*
X0120064Y0256139D01*
X0120141Y0256013D01*
X0120215Y0255885D01*
X0120286Y0255755D01*
X0120353Y0255623D01*
X0120416Y0255489D01*
X0120476Y0255354D01*
X0120532Y0255217D01*
X0120585Y0255078D01*
X0120633Y0254938D01*
X0120678Y0254797D01*
X0120719Y0254655D01*
X0120757Y0254512D01*
X0120790Y0254368D01*
X0120820Y0254223D01*
X0120846Y0254077D01*
X0120867Y0253931D01*
X0120885Y0253784D01*
X0120899Y0253637D01*
X0120909Y0253489D01*
X0120915Y0253341D01*
X0120917Y0253193D01*
X0120915Y0253045D01*
X0120909Y0252897D01*
X0120899Y0252749D01*
X0120885Y0252602D01*
X0120867Y0252455D01*
X0120846Y0252309D01*
X0120820Y0252163D01*
X0120790Y0252018D01*
X0120757Y0251874D01*
X0120719Y0251731D01*
X0120678Y0251589D01*
X0120633Y0251448D01*
X0120585Y0251308D01*
X0120532Y0251169D01*
X0120476Y0251032D01*
X0120416Y0250897D01*
X0120353Y0250763D01*
X0120286Y0250631D01*
X0120215Y0250501D01*
X0120141Y0250373D01*
X0120064Y0250247D01*
X0119983Y0250123D01*
X0119899Y0250001D01*
X0119812Y0249882D01*
X0119721Y0249765D01*
X0119627Y0249650D01*
X0119531Y0249538D01*
X0119431Y0249428D01*
X0119329Y0249322D01*
X0119223Y0249218D01*
X0119115Y0249117D01*
X0119004Y0249019D01*
X0118891Y0248923D01*
X0118775Y0248831D01*
X0118657Y0248742D01*
X0118536Y0248657D01*
X0118413Y0248574D01*
X0118288Y0248495D01*
X0118161Y0248419D01*
X0118032Y0248347D01*
X0117901Y0248278D01*
X0117768Y0248213D01*
X0117633Y0248152D01*
X0117497Y0248094D01*
X0117360Y0248039D01*
X0117221Y0247989D01*
X0117080Y0247942D01*
X0116939Y0247899D01*
X0116796Y0247859D01*
X0116652Y0247824D01*
X0116508Y0247792D01*
X0116362Y0247765D01*
X0116216Y0247741D01*
X0116069Y0247721D01*
X0115922Y0247705D01*
X0115775Y0247693D01*
X0115627Y0247685D01*
X0115479Y0247681D01*
X0115331Y0247681D01*
X0115183Y0247685D01*
X0115035Y0247693D01*
X0114888Y0247705D01*
X0114741Y0247721D01*
X0114594Y0247741D01*
X0114448Y0247765D01*
X0114302Y0247792D01*
X0114158Y0247824D01*
X0114014Y0247859D01*
X0113871Y0247899D01*
X0113730Y0247942D01*
X0113589Y0247989D01*
X0113450Y0248039D01*
X0113313Y0248094D01*
X0113177Y0248152D01*
X0113042Y0248213D01*
X0112909Y0248278D01*
X0112778Y0248347D01*
X0112649Y0248419D01*
X0112522Y0248495D01*
X0112397Y0248574D01*
X0112274Y0248657D01*
X0112153Y0248742D01*
X0112035Y0248831D01*
X0111919Y0248923D01*
X0111806Y0249019D01*
X0111695Y0249117D01*
X0111587Y0249218D01*
X0111481Y0249322D01*
X0111379Y0249428D01*
X0111279Y0249538D01*
X0111183Y0249650D01*
X0111089Y0249765D01*
X0110998Y0249882D01*
X0110911Y0250001D01*
X0110827Y0250123D01*
X0110746Y0250247D01*
X0110669Y0250373D01*
X0110595Y0250501D01*
X0110524Y0250631D01*
X0110457Y0250763D01*
X0110394Y0250897D01*
X0110334Y0251032D01*
X0110278Y0251169D01*
X0110225Y0251308D01*
X0110177Y0251448D01*
X0110132Y0251589D01*
X0110091Y0251731D01*
X0110053Y0251874D01*
X0110020Y0252018D01*
X0109990Y0252163D01*
X0109964Y0252309D01*
X0109943Y0252455D01*
X0109925Y0252602D01*
X0109911Y0252749D01*
X0109901Y0252897D01*
X0109895Y0253045D01*
X0109893Y0253193D01*
X0176178Y0389289D02*
X0176180Y0389450D01*
X0176186Y0389610D01*
X0176196Y0389771D01*
X0176210Y0389931D01*
X0176228Y0390091D01*
X0176249Y0390250D01*
X0176275Y0390409D01*
X0176305Y0390567D01*
X0176338Y0390724D01*
X0176376Y0390881D01*
X0176417Y0391036D01*
X0176462Y0391190D01*
X0176511Y0391343D01*
X0176564Y0391495D01*
X0176620Y0391646D01*
X0176681Y0391795D01*
X0176744Y0391943D01*
X0176812Y0392089D01*
X0176883Y0392233D01*
X0176957Y0392375D01*
X0177035Y0392516D01*
X0177117Y0392654D01*
X0177202Y0392791D01*
X0177290Y0392925D01*
X0177382Y0393057D01*
X0177477Y0393187D01*
X0177575Y0393315D01*
X0177676Y0393440D01*
X0177780Y0393562D01*
X0177887Y0393682D01*
X0177997Y0393799D01*
X0178110Y0393914D01*
X0178226Y0394025D01*
X0178345Y0394134D01*
X0178466Y0394239D01*
X0178590Y0394342D01*
X0178716Y0394442D01*
X0178844Y0394538D01*
X0178975Y0394631D01*
X0179109Y0394721D01*
X0179244Y0394808D01*
X0179382Y0394891D01*
X0179521Y0394971D01*
X0179663Y0395047D01*
X0179806Y0395120D01*
X0179951Y0395189D01*
X0180098Y0395255D01*
X0180246Y0395317D01*
X0180396Y0395375D01*
X0180547Y0395430D01*
X0180700Y0395481D01*
X0180854Y0395528D01*
X0181009Y0395571D01*
X0181165Y0395610D01*
X0181321Y0395646D01*
X0181479Y0395677D01*
X0181637Y0395705D01*
X0181796Y0395729D01*
X0181956Y0395749D01*
X0182116Y0395765D01*
X0182276Y0395777D01*
X0182437Y0395785D01*
X0182598Y0395789D01*
X0182758Y0395789D01*
X0182919Y0395785D01*
X0183080Y0395777D01*
X0183240Y0395765D01*
X0183400Y0395749D01*
X0183560Y0395729D01*
X0183719Y0395705D01*
X0183877Y0395677D01*
X0184035Y0395646D01*
X0184191Y0395610D01*
X0184347Y0395571D01*
X0184502Y0395528D01*
X0184656Y0395481D01*
X0184809Y0395430D01*
X0184960Y0395375D01*
X0185110Y0395317D01*
X0185258Y0395255D01*
X0185405Y0395189D01*
X0185550Y0395120D01*
X0185693Y0395047D01*
X0185835Y0394971D01*
X0185974Y0394891D01*
X0186112Y0394808D01*
X0186247Y0394721D01*
X0186381Y0394631D01*
X0186512Y0394538D01*
X0186640Y0394442D01*
X0186766Y0394342D01*
X0186890Y0394239D01*
X0187011Y0394134D01*
X0187130Y0394025D01*
X0187246Y0393914D01*
X0187359Y0393799D01*
X0187469Y0393682D01*
X0187576Y0393562D01*
X0187680Y0393440D01*
X0187781Y0393315D01*
X0187879Y0393187D01*
X0187974Y0393057D01*
X0188066Y0392925D01*
X0188154Y0392791D01*
X0188239Y0392654D01*
X0188321Y0392516D01*
X0188399Y0392375D01*
X0188473Y0392233D01*
X0188544Y0392089D01*
X0188612Y0391943D01*
X0188675Y0391795D01*
X0188736Y0391646D01*
X0188792Y0391495D01*
X0188845Y0391343D01*
X0188894Y0391190D01*
X0188939Y0391036D01*
X0188980Y0390881D01*
X0189018Y0390724D01*
X0189051Y0390567D01*
X0189081Y0390409D01*
X0189107Y0390250D01*
X0189128Y0390091D01*
X0189146Y0389931D01*
X0189160Y0389771D01*
X0189170Y0389610D01*
X0189176Y0389450D01*
X0189178Y0389289D01*
X0189176Y0389128D01*
X0189170Y0388968D01*
X0189160Y0388807D01*
X0189146Y0388647D01*
X0189128Y0388487D01*
X0189107Y0388328D01*
X0189081Y0388169D01*
X0189051Y0388011D01*
X0189018Y0387854D01*
X0188980Y0387697D01*
X0188939Y0387542D01*
X0188894Y0387388D01*
X0188845Y0387235D01*
X0188792Y0387083D01*
X0188736Y0386932D01*
X0188675Y0386783D01*
X0188612Y0386635D01*
X0188544Y0386489D01*
X0188473Y0386345D01*
X0188399Y0386203D01*
X0188321Y0386062D01*
X0188239Y0385924D01*
X0188154Y0385787D01*
X0188066Y0385653D01*
X0187974Y0385521D01*
X0187879Y0385391D01*
X0187781Y0385263D01*
X0187680Y0385138D01*
X0187576Y0385016D01*
X0187469Y0384896D01*
X0187359Y0384779D01*
X0187246Y0384664D01*
X0187130Y0384553D01*
X0187011Y0384444D01*
X0186890Y0384339D01*
X0186766Y0384236D01*
X0186640Y0384136D01*
X0186512Y0384040D01*
X0186381Y0383947D01*
X0186247Y0383857D01*
X0186112Y0383770D01*
X0185974Y0383687D01*
X0185835Y0383607D01*
X0185693Y0383531D01*
X0185550Y0383458D01*
X0185405Y0383389D01*
X0185258Y0383323D01*
X0185110Y0383261D01*
X0184960Y0383203D01*
X0184809Y0383148D01*
X0184656Y0383097D01*
X0184502Y0383050D01*
X0184347Y0383007D01*
X0184191Y0382968D01*
X0184035Y0382932D01*
X0183877Y0382901D01*
X0183719Y0382873D01*
X0183560Y0382849D01*
X0183400Y0382829D01*
X0183240Y0382813D01*
X0183080Y0382801D01*
X0182919Y0382793D01*
X0182758Y0382789D01*
X0182598Y0382789D01*
X0182437Y0382793D01*
X0182276Y0382801D01*
X0182116Y0382813D01*
X0181956Y0382829D01*
X0181796Y0382849D01*
X0181637Y0382873D01*
X0181479Y0382901D01*
X0181321Y0382932D01*
X0181165Y0382968D01*
X0181009Y0383007D01*
X0180854Y0383050D01*
X0180700Y0383097D01*
X0180547Y0383148D01*
X0180396Y0383203D01*
X0180246Y0383261D01*
X0180098Y0383323D01*
X0179951Y0383389D01*
X0179806Y0383458D01*
X0179663Y0383531D01*
X0179521Y0383607D01*
X0179382Y0383687D01*
X0179244Y0383770D01*
X0179109Y0383857D01*
X0178975Y0383947D01*
X0178844Y0384040D01*
X0178716Y0384136D01*
X0178590Y0384236D01*
X0178466Y0384339D01*
X0178345Y0384444D01*
X0178226Y0384553D01*
X0178110Y0384664D01*
X0177997Y0384779D01*
X0177887Y0384896D01*
X0177780Y0385016D01*
X0177676Y0385138D01*
X0177575Y0385263D01*
X0177477Y0385391D01*
X0177382Y0385521D01*
X0177290Y0385653D01*
X0177202Y0385787D01*
X0177117Y0385924D01*
X0177035Y0386062D01*
X0176957Y0386203D01*
X0176883Y0386345D01*
X0176812Y0386489D01*
X0176744Y0386635D01*
X0176681Y0386783D01*
X0176620Y0386932D01*
X0176564Y0387083D01*
X0176511Y0387235D01*
X0176462Y0387388D01*
X0176417Y0387542D01*
X0176376Y0387697D01*
X0176338Y0387854D01*
X0176305Y0388011D01*
X0176275Y0388169D01*
X0176249Y0388328D01*
X0176228Y0388487D01*
X0176210Y0388647D01*
X0176196Y0388807D01*
X0176186Y0388968D01*
X0176180Y0389128D01*
X0176178Y0389289D01*
X0128403Y0402892D02*
X0128405Y0403053D01*
X0128411Y0403213D01*
X0128421Y0403374D01*
X0128435Y0403534D01*
X0128453Y0403694D01*
X0128474Y0403853D01*
X0128500Y0404012D01*
X0128530Y0404170D01*
X0128563Y0404327D01*
X0128601Y0404484D01*
X0128642Y0404639D01*
X0128687Y0404793D01*
X0128736Y0404946D01*
X0128789Y0405098D01*
X0128845Y0405249D01*
X0128906Y0405398D01*
X0128969Y0405546D01*
X0129037Y0405692D01*
X0129108Y0405836D01*
X0129182Y0405978D01*
X0129260Y0406119D01*
X0129342Y0406257D01*
X0129427Y0406394D01*
X0129515Y0406528D01*
X0129607Y0406660D01*
X0129702Y0406790D01*
X0129800Y0406918D01*
X0129901Y0407043D01*
X0130005Y0407165D01*
X0130112Y0407285D01*
X0130222Y0407402D01*
X0130335Y0407517D01*
X0130451Y0407628D01*
X0130570Y0407737D01*
X0130691Y0407842D01*
X0130815Y0407945D01*
X0130941Y0408045D01*
X0131069Y0408141D01*
X0131200Y0408234D01*
X0131334Y0408324D01*
X0131469Y0408411D01*
X0131607Y0408494D01*
X0131746Y0408574D01*
X0131888Y0408650D01*
X0132031Y0408723D01*
X0132176Y0408792D01*
X0132323Y0408858D01*
X0132471Y0408920D01*
X0132621Y0408978D01*
X0132772Y0409033D01*
X0132925Y0409084D01*
X0133079Y0409131D01*
X0133234Y0409174D01*
X0133390Y0409213D01*
X0133546Y0409249D01*
X0133704Y0409280D01*
X0133862Y0409308D01*
X0134021Y0409332D01*
X0134181Y0409352D01*
X0134341Y0409368D01*
X0134501Y0409380D01*
X0134662Y0409388D01*
X0134823Y0409392D01*
X0134983Y0409392D01*
X0135144Y0409388D01*
X0135305Y0409380D01*
X0135465Y0409368D01*
X0135625Y0409352D01*
X0135785Y0409332D01*
X0135944Y0409308D01*
X0136102Y0409280D01*
X0136260Y0409249D01*
X0136416Y0409213D01*
X0136572Y0409174D01*
X0136727Y0409131D01*
X0136881Y0409084D01*
X0137034Y0409033D01*
X0137185Y0408978D01*
X0137335Y0408920D01*
X0137483Y0408858D01*
X0137630Y0408792D01*
X0137775Y0408723D01*
X0137918Y0408650D01*
X0138060Y0408574D01*
X0138199Y0408494D01*
X0138337Y0408411D01*
X0138472Y0408324D01*
X0138606Y0408234D01*
X0138737Y0408141D01*
X0138865Y0408045D01*
X0138991Y0407945D01*
X0139115Y0407842D01*
X0139236Y0407737D01*
X0139355Y0407628D01*
X0139471Y0407517D01*
X0139584Y0407402D01*
X0139694Y0407285D01*
X0139801Y0407165D01*
X0139905Y0407043D01*
X0140006Y0406918D01*
X0140104Y0406790D01*
X0140199Y0406660D01*
X0140291Y0406528D01*
X0140379Y0406394D01*
X0140464Y0406257D01*
X0140546Y0406119D01*
X0140624Y0405978D01*
X0140698Y0405836D01*
X0140769Y0405692D01*
X0140837Y0405546D01*
X0140900Y0405398D01*
X0140961Y0405249D01*
X0141017Y0405098D01*
X0141070Y0404946D01*
X0141119Y0404793D01*
X0141164Y0404639D01*
X0141205Y0404484D01*
X0141243Y0404327D01*
X0141276Y0404170D01*
X0141306Y0404012D01*
X0141332Y0403853D01*
X0141353Y0403694D01*
X0141371Y0403534D01*
X0141385Y0403374D01*
X0141395Y0403213D01*
X0141401Y0403053D01*
X0141403Y0402892D01*
X0141401Y0402731D01*
X0141395Y0402571D01*
X0141385Y0402410D01*
X0141371Y0402250D01*
X0141353Y0402090D01*
X0141332Y0401931D01*
X0141306Y0401772D01*
X0141276Y0401614D01*
X0141243Y0401457D01*
X0141205Y0401300D01*
X0141164Y0401145D01*
X0141119Y0400991D01*
X0141070Y0400838D01*
X0141017Y0400686D01*
X0140961Y0400535D01*
X0140900Y0400386D01*
X0140837Y0400238D01*
X0140769Y0400092D01*
X0140698Y0399948D01*
X0140624Y0399806D01*
X0140546Y0399665D01*
X0140464Y0399527D01*
X0140379Y0399390D01*
X0140291Y0399256D01*
X0140199Y0399124D01*
X0140104Y0398994D01*
X0140006Y0398866D01*
X0139905Y0398741D01*
X0139801Y0398619D01*
X0139694Y0398499D01*
X0139584Y0398382D01*
X0139471Y0398267D01*
X0139355Y0398156D01*
X0139236Y0398047D01*
X0139115Y0397942D01*
X0138991Y0397839D01*
X0138865Y0397739D01*
X0138737Y0397643D01*
X0138606Y0397550D01*
X0138472Y0397460D01*
X0138337Y0397373D01*
X0138199Y0397290D01*
X0138060Y0397210D01*
X0137918Y0397134D01*
X0137775Y0397061D01*
X0137630Y0396992D01*
X0137483Y0396926D01*
X0137335Y0396864D01*
X0137185Y0396806D01*
X0137034Y0396751D01*
X0136881Y0396700D01*
X0136727Y0396653D01*
X0136572Y0396610D01*
X0136416Y0396571D01*
X0136260Y0396535D01*
X0136102Y0396504D01*
X0135944Y0396476D01*
X0135785Y0396452D01*
X0135625Y0396432D01*
X0135465Y0396416D01*
X0135305Y0396404D01*
X0135144Y0396396D01*
X0134983Y0396392D01*
X0134823Y0396392D01*
X0134662Y0396396D01*
X0134501Y0396404D01*
X0134341Y0396416D01*
X0134181Y0396432D01*
X0134021Y0396452D01*
X0133862Y0396476D01*
X0133704Y0396504D01*
X0133546Y0396535D01*
X0133390Y0396571D01*
X0133234Y0396610D01*
X0133079Y0396653D01*
X0132925Y0396700D01*
X0132772Y0396751D01*
X0132621Y0396806D01*
X0132471Y0396864D01*
X0132323Y0396926D01*
X0132176Y0396992D01*
X0132031Y0397061D01*
X0131888Y0397134D01*
X0131746Y0397210D01*
X0131607Y0397290D01*
X0131469Y0397373D01*
X0131334Y0397460D01*
X0131200Y0397550D01*
X0131069Y0397643D01*
X0130941Y0397739D01*
X0130815Y0397839D01*
X0130691Y0397942D01*
X0130570Y0398047D01*
X0130451Y0398156D01*
X0130335Y0398267D01*
X0130222Y0398382D01*
X0130112Y0398499D01*
X0130005Y0398619D01*
X0129901Y0398741D01*
X0129800Y0398866D01*
X0129702Y0398994D01*
X0129607Y0399124D01*
X0129515Y0399256D01*
X0129427Y0399390D01*
X0129342Y0399527D01*
X0129260Y0399665D01*
X0129182Y0399806D01*
X0129108Y0399948D01*
X0129037Y0400092D01*
X0128969Y0400238D01*
X0128906Y0400386D01*
X0128845Y0400535D01*
X0128789Y0400686D01*
X0128736Y0400838D01*
X0128687Y0400991D01*
X0128642Y0401145D01*
X0128601Y0401300D01*
X0128563Y0401457D01*
X0128530Y0401614D01*
X0128500Y0401772D01*
X0128474Y0401931D01*
X0128453Y0402090D01*
X0128435Y0402250D01*
X0128421Y0402410D01*
X0128411Y0402571D01*
X0128405Y0402731D01*
X0128403Y0402892D01*
X0109893Y0430358D02*
X0109895Y0430506D01*
X0109901Y0430654D01*
X0109911Y0430802D01*
X0109925Y0430949D01*
X0109943Y0431096D01*
X0109964Y0431242D01*
X0109990Y0431388D01*
X0110020Y0431533D01*
X0110053Y0431677D01*
X0110091Y0431820D01*
X0110132Y0431962D01*
X0110177Y0432103D01*
X0110225Y0432243D01*
X0110278Y0432382D01*
X0110334Y0432519D01*
X0110394Y0432654D01*
X0110457Y0432788D01*
X0110524Y0432920D01*
X0110595Y0433050D01*
X0110669Y0433178D01*
X0110746Y0433304D01*
X0110827Y0433428D01*
X0110911Y0433550D01*
X0110998Y0433669D01*
X0111089Y0433786D01*
X0111183Y0433901D01*
X0111279Y0434013D01*
X0111379Y0434123D01*
X0111481Y0434229D01*
X0111587Y0434333D01*
X0111695Y0434434D01*
X0111806Y0434532D01*
X0111919Y0434628D01*
X0112035Y0434720D01*
X0112153Y0434809D01*
X0112274Y0434894D01*
X0112397Y0434977D01*
X0112522Y0435056D01*
X0112649Y0435132D01*
X0112778Y0435204D01*
X0112909Y0435273D01*
X0113042Y0435338D01*
X0113177Y0435399D01*
X0113313Y0435457D01*
X0113450Y0435512D01*
X0113589Y0435562D01*
X0113730Y0435609D01*
X0113871Y0435652D01*
X0114014Y0435692D01*
X0114158Y0435727D01*
X0114302Y0435759D01*
X0114448Y0435786D01*
X0114594Y0435810D01*
X0114741Y0435830D01*
X0114888Y0435846D01*
X0115035Y0435858D01*
X0115183Y0435866D01*
X0115331Y0435870D01*
X0115479Y0435870D01*
X0115627Y0435866D01*
X0115775Y0435858D01*
X0115922Y0435846D01*
X0116069Y0435830D01*
X0116216Y0435810D01*
X0116362Y0435786D01*
X0116508Y0435759D01*
X0116652Y0435727D01*
X0116796Y0435692D01*
X0116939Y0435652D01*
X0117080Y0435609D01*
X0117221Y0435562D01*
X0117360Y0435512D01*
X0117497Y0435457D01*
X0117633Y0435399D01*
X0117768Y0435338D01*
X0117901Y0435273D01*
X0118032Y0435204D01*
X0118161Y0435132D01*
X0118288Y0435056D01*
X0118413Y0434977D01*
X0118536Y0434894D01*
X0118657Y0434809D01*
X0118775Y0434720D01*
X0118891Y0434628D01*
X0119004Y0434532D01*
X0119115Y0434434D01*
X0119223Y0434333D01*
X0119329Y0434229D01*
X0119431Y0434123D01*
X0119531Y0434013D01*
X0119627Y0433901D01*
X0119721Y0433786D01*
X0119812Y0433669D01*
X0119899Y0433550D01*
X0119983Y0433428D01*
X0120064Y0433304D01*
X0120141Y0433178D01*
X0120215Y0433050D01*
X0120286Y0432920D01*
X0120353Y0432788D01*
X0120416Y0432654D01*
X0120476Y0432519D01*
X0120532Y0432382D01*
X0120585Y0432243D01*
X0120633Y0432103D01*
X0120678Y0431962D01*
X0120719Y0431820D01*
X0120757Y0431677D01*
X0120790Y0431533D01*
X0120820Y0431388D01*
X0120846Y0431242D01*
X0120867Y0431096D01*
X0120885Y0430949D01*
X0120899Y0430802D01*
X0120909Y0430654D01*
X0120915Y0430506D01*
X0120917Y0430358D01*
X0120915Y0430210D01*
X0120909Y0430062D01*
X0120899Y0429914D01*
X0120885Y0429767D01*
X0120867Y0429620D01*
X0120846Y0429474D01*
X0120820Y0429328D01*
X0120790Y0429183D01*
X0120757Y0429039D01*
X0120719Y0428896D01*
X0120678Y0428754D01*
X0120633Y0428613D01*
X0120585Y0428473D01*
X0120532Y0428334D01*
X0120476Y0428197D01*
X0120416Y0428062D01*
X0120353Y0427928D01*
X0120286Y0427796D01*
X0120215Y0427666D01*
X0120141Y0427538D01*
X0120064Y0427412D01*
X0119983Y0427288D01*
X0119899Y0427166D01*
X0119812Y0427047D01*
X0119721Y0426930D01*
X0119627Y0426815D01*
X0119531Y0426703D01*
X0119431Y0426593D01*
X0119329Y0426487D01*
X0119223Y0426383D01*
X0119115Y0426282D01*
X0119004Y0426184D01*
X0118891Y0426088D01*
X0118775Y0425996D01*
X0118657Y0425907D01*
X0118536Y0425822D01*
X0118413Y0425739D01*
X0118288Y0425660D01*
X0118161Y0425584D01*
X0118032Y0425512D01*
X0117901Y0425443D01*
X0117768Y0425378D01*
X0117633Y0425317D01*
X0117497Y0425259D01*
X0117360Y0425204D01*
X0117221Y0425154D01*
X0117080Y0425107D01*
X0116939Y0425064D01*
X0116796Y0425024D01*
X0116652Y0424989D01*
X0116508Y0424957D01*
X0116362Y0424930D01*
X0116216Y0424906D01*
X0116069Y0424886D01*
X0115922Y0424870D01*
X0115775Y0424858D01*
X0115627Y0424850D01*
X0115479Y0424846D01*
X0115331Y0424846D01*
X0115183Y0424850D01*
X0115035Y0424858D01*
X0114888Y0424870D01*
X0114741Y0424886D01*
X0114594Y0424906D01*
X0114448Y0424930D01*
X0114302Y0424957D01*
X0114158Y0424989D01*
X0114014Y0425024D01*
X0113871Y0425064D01*
X0113730Y0425107D01*
X0113589Y0425154D01*
X0113450Y0425204D01*
X0113313Y0425259D01*
X0113177Y0425317D01*
X0113042Y0425378D01*
X0112909Y0425443D01*
X0112778Y0425512D01*
X0112649Y0425584D01*
X0112522Y0425660D01*
X0112397Y0425739D01*
X0112274Y0425822D01*
X0112153Y0425907D01*
X0112035Y0425996D01*
X0111919Y0426088D01*
X0111806Y0426184D01*
X0111695Y0426282D01*
X0111587Y0426383D01*
X0111481Y0426487D01*
X0111379Y0426593D01*
X0111279Y0426703D01*
X0111183Y0426815D01*
X0111089Y0426930D01*
X0110998Y0427047D01*
X0110911Y0427166D01*
X0110827Y0427288D01*
X0110746Y0427412D01*
X0110669Y0427538D01*
X0110595Y0427666D01*
X0110524Y0427796D01*
X0110457Y0427928D01*
X0110394Y0428062D01*
X0110334Y0428197D01*
X0110278Y0428334D01*
X0110225Y0428473D01*
X0110177Y0428613D01*
X0110132Y0428754D01*
X0110091Y0428896D01*
X0110053Y0429039D01*
X0110020Y0429183D01*
X0109990Y0429328D01*
X0109964Y0429474D01*
X0109943Y0429620D01*
X0109925Y0429767D01*
X0109911Y0429914D01*
X0109901Y0430062D01*
X0109895Y0430210D01*
X0109893Y0430358D01*
X0222379Y0388896D02*
X0222381Y0389057D01*
X0222387Y0389217D01*
X0222397Y0389378D01*
X0222411Y0389538D01*
X0222429Y0389698D01*
X0222450Y0389857D01*
X0222476Y0390016D01*
X0222506Y0390174D01*
X0222539Y0390331D01*
X0222577Y0390488D01*
X0222618Y0390643D01*
X0222663Y0390797D01*
X0222712Y0390950D01*
X0222765Y0391102D01*
X0222821Y0391253D01*
X0222882Y0391402D01*
X0222945Y0391550D01*
X0223013Y0391696D01*
X0223084Y0391840D01*
X0223158Y0391982D01*
X0223236Y0392123D01*
X0223318Y0392261D01*
X0223403Y0392398D01*
X0223491Y0392532D01*
X0223583Y0392664D01*
X0223678Y0392794D01*
X0223776Y0392922D01*
X0223877Y0393047D01*
X0223981Y0393169D01*
X0224088Y0393289D01*
X0224198Y0393406D01*
X0224311Y0393521D01*
X0224427Y0393632D01*
X0224546Y0393741D01*
X0224667Y0393846D01*
X0224791Y0393949D01*
X0224917Y0394049D01*
X0225045Y0394145D01*
X0225176Y0394238D01*
X0225310Y0394328D01*
X0225445Y0394415D01*
X0225583Y0394498D01*
X0225722Y0394578D01*
X0225864Y0394654D01*
X0226007Y0394727D01*
X0226152Y0394796D01*
X0226299Y0394862D01*
X0226447Y0394924D01*
X0226597Y0394982D01*
X0226748Y0395037D01*
X0226901Y0395088D01*
X0227055Y0395135D01*
X0227210Y0395178D01*
X0227366Y0395217D01*
X0227522Y0395253D01*
X0227680Y0395284D01*
X0227838Y0395312D01*
X0227997Y0395336D01*
X0228157Y0395356D01*
X0228317Y0395372D01*
X0228477Y0395384D01*
X0228638Y0395392D01*
X0228799Y0395396D01*
X0228959Y0395396D01*
X0229120Y0395392D01*
X0229281Y0395384D01*
X0229441Y0395372D01*
X0229601Y0395356D01*
X0229761Y0395336D01*
X0229920Y0395312D01*
X0230078Y0395284D01*
X0230236Y0395253D01*
X0230392Y0395217D01*
X0230548Y0395178D01*
X0230703Y0395135D01*
X0230857Y0395088D01*
X0231010Y0395037D01*
X0231161Y0394982D01*
X0231311Y0394924D01*
X0231459Y0394862D01*
X0231606Y0394796D01*
X0231751Y0394727D01*
X0231894Y0394654D01*
X0232036Y0394578D01*
X0232175Y0394498D01*
X0232313Y0394415D01*
X0232448Y0394328D01*
X0232582Y0394238D01*
X0232713Y0394145D01*
X0232841Y0394049D01*
X0232967Y0393949D01*
X0233091Y0393846D01*
X0233212Y0393741D01*
X0233331Y0393632D01*
X0233447Y0393521D01*
X0233560Y0393406D01*
X0233670Y0393289D01*
X0233777Y0393169D01*
X0233881Y0393047D01*
X0233982Y0392922D01*
X0234080Y0392794D01*
X0234175Y0392664D01*
X0234267Y0392532D01*
X0234355Y0392398D01*
X0234440Y0392261D01*
X0234522Y0392123D01*
X0234600Y0391982D01*
X0234674Y0391840D01*
X0234745Y0391696D01*
X0234813Y0391550D01*
X0234876Y0391402D01*
X0234937Y0391253D01*
X0234993Y0391102D01*
X0235046Y0390950D01*
X0235095Y0390797D01*
X0235140Y0390643D01*
X0235181Y0390488D01*
X0235219Y0390331D01*
X0235252Y0390174D01*
X0235282Y0390016D01*
X0235308Y0389857D01*
X0235329Y0389698D01*
X0235347Y0389538D01*
X0235361Y0389378D01*
X0235371Y0389217D01*
X0235377Y0389057D01*
X0235379Y0388896D01*
X0235377Y0388735D01*
X0235371Y0388575D01*
X0235361Y0388414D01*
X0235347Y0388254D01*
X0235329Y0388094D01*
X0235308Y0387935D01*
X0235282Y0387776D01*
X0235252Y0387618D01*
X0235219Y0387461D01*
X0235181Y0387304D01*
X0235140Y0387149D01*
X0235095Y0386995D01*
X0235046Y0386842D01*
X0234993Y0386690D01*
X0234937Y0386539D01*
X0234876Y0386390D01*
X0234813Y0386242D01*
X0234745Y0386096D01*
X0234674Y0385952D01*
X0234600Y0385810D01*
X0234522Y0385669D01*
X0234440Y0385531D01*
X0234355Y0385394D01*
X0234267Y0385260D01*
X0234175Y0385128D01*
X0234080Y0384998D01*
X0233982Y0384870D01*
X0233881Y0384745D01*
X0233777Y0384623D01*
X0233670Y0384503D01*
X0233560Y0384386D01*
X0233447Y0384271D01*
X0233331Y0384160D01*
X0233212Y0384051D01*
X0233091Y0383946D01*
X0232967Y0383843D01*
X0232841Y0383743D01*
X0232713Y0383647D01*
X0232582Y0383554D01*
X0232448Y0383464D01*
X0232313Y0383377D01*
X0232175Y0383294D01*
X0232036Y0383214D01*
X0231894Y0383138D01*
X0231751Y0383065D01*
X0231606Y0382996D01*
X0231459Y0382930D01*
X0231311Y0382868D01*
X0231161Y0382810D01*
X0231010Y0382755D01*
X0230857Y0382704D01*
X0230703Y0382657D01*
X0230548Y0382614D01*
X0230392Y0382575D01*
X0230236Y0382539D01*
X0230078Y0382508D01*
X0229920Y0382480D01*
X0229761Y0382456D01*
X0229601Y0382436D01*
X0229441Y0382420D01*
X0229281Y0382408D01*
X0229120Y0382400D01*
X0228959Y0382396D01*
X0228799Y0382396D01*
X0228638Y0382400D01*
X0228477Y0382408D01*
X0228317Y0382420D01*
X0228157Y0382436D01*
X0227997Y0382456D01*
X0227838Y0382480D01*
X0227680Y0382508D01*
X0227522Y0382539D01*
X0227366Y0382575D01*
X0227210Y0382614D01*
X0227055Y0382657D01*
X0226901Y0382704D01*
X0226748Y0382755D01*
X0226597Y0382810D01*
X0226447Y0382868D01*
X0226299Y0382930D01*
X0226152Y0382996D01*
X0226007Y0383065D01*
X0225864Y0383138D01*
X0225722Y0383214D01*
X0225583Y0383294D01*
X0225445Y0383377D01*
X0225310Y0383464D01*
X0225176Y0383554D01*
X0225045Y0383647D01*
X0224917Y0383743D01*
X0224791Y0383843D01*
X0224667Y0383946D01*
X0224546Y0384051D01*
X0224427Y0384160D01*
X0224311Y0384271D01*
X0224198Y0384386D01*
X0224088Y0384503D01*
X0223981Y0384623D01*
X0223877Y0384745D01*
X0223776Y0384870D01*
X0223678Y0384998D01*
X0223583Y0385128D01*
X0223491Y0385260D01*
X0223403Y0385394D01*
X0223318Y0385531D01*
X0223236Y0385669D01*
X0223158Y0385810D01*
X0223084Y0385952D01*
X0223013Y0386096D01*
X0222945Y0386242D01*
X0222882Y0386390D01*
X0222821Y0386539D01*
X0222765Y0386690D01*
X0222712Y0386842D01*
X0222663Y0386995D01*
X0222618Y0387149D01*
X0222577Y0387304D01*
X0222539Y0387461D01*
X0222506Y0387618D01*
X0222476Y0387776D01*
X0222450Y0387935D01*
X0222429Y0388094D01*
X0222411Y0388254D01*
X0222397Y0388414D01*
X0222387Y0388575D01*
X0222381Y0388735D01*
X0222379Y0388896D01*
X0271552Y0401967D02*
X0271554Y0402128D01*
X0271560Y0402288D01*
X0271570Y0402449D01*
X0271584Y0402609D01*
X0271602Y0402769D01*
X0271623Y0402928D01*
X0271649Y0403087D01*
X0271679Y0403245D01*
X0271712Y0403402D01*
X0271750Y0403559D01*
X0271791Y0403714D01*
X0271836Y0403868D01*
X0271885Y0404021D01*
X0271938Y0404173D01*
X0271994Y0404324D01*
X0272055Y0404473D01*
X0272118Y0404621D01*
X0272186Y0404767D01*
X0272257Y0404911D01*
X0272331Y0405053D01*
X0272409Y0405194D01*
X0272491Y0405332D01*
X0272576Y0405469D01*
X0272664Y0405603D01*
X0272756Y0405735D01*
X0272851Y0405865D01*
X0272949Y0405993D01*
X0273050Y0406118D01*
X0273154Y0406240D01*
X0273261Y0406360D01*
X0273371Y0406477D01*
X0273484Y0406592D01*
X0273600Y0406703D01*
X0273719Y0406812D01*
X0273840Y0406917D01*
X0273964Y0407020D01*
X0274090Y0407120D01*
X0274218Y0407216D01*
X0274349Y0407309D01*
X0274483Y0407399D01*
X0274618Y0407486D01*
X0274756Y0407569D01*
X0274895Y0407649D01*
X0275037Y0407725D01*
X0275180Y0407798D01*
X0275325Y0407867D01*
X0275472Y0407933D01*
X0275620Y0407995D01*
X0275770Y0408053D01*
X0275921Y0408108D01*
X0276074Y0408159D01*
X0276228Y0408206D01*
X0276383Y0408249D01*
X0276539Y0408288D01*
X0276695Y0408324D01*
X0276853Y0408355D01*
X0277011Y0408383D01*
X0277170Y0408407D01*
X0277330Y0408427D01*
X0277490Y0408443D01*
X0277650Y0408455D01*
X0277811Y0408463D01*
X0277972Y0408467D01*
X0278132Y0408467D01*
X0278293Y0408463D01*
X0278454Y0408455D01*
X0278614Y0408443D01*
X0278774Y0408427D01*
X0278934Y0408407D01*
X0279093Y0408383D01*
X0279251Y0408355D01*
X0279409Y0408324D01*
X0279565Y0408288D01*
X0279721Y0408249D01*
X0279876Y0408206D01*
X0280030Y0408159D01*
X0280183Y0408108D01*
X0280334Y0408053D01*
X0280484Y0407995D01*
X0280632Y0407933D01*
X0280779Y0407867D01*
X0280924Y0407798D01*
X0281067Y0407725D01*
X0281209Y0407649D01*
X0281348Y0407569D01*
X0281486Y0407486D01*
X0281621Y0407399D01*
X0281755Y0407309D01*
X0281886Y0407216D01*
X0282014Y0407120D01*
X0282140Y0407020D01*
X0282264Y0406917D01*
X0282385Y0406812D01*
X0282504Y0406703D01*
X0282620Y0406592D01*
X0282733Y0406477D01*
X0282843Y0406360D01*
X0282950Y0406240D01*
X0283054Y0406118D01*
X0283155Y0405993D01*
X0283253Y0405865D01*
X0283348Y0405735D01*
X0283440Y0405603D01*
X0283528Y0405469D01*
X0283613Y0405332D01*
X0283695Y0405194D01*
X0283773Y0405053D01*
X0283847Y0404911D01*
X0283918Y0404767D01*
X0283986Y0404621D01*
X0284049Y0404473D01*
X0284110Y0404324D01*
X0284166Y0404173D01*
X0284219Y0404021D01*
X0284268Y0403868D01*
X0284313Y0403714D01*
X0284354Y0403559D01*
X0284392Y0403402D01*
X0284425Y0403245D01*
X0284455Y0403087D01*
X0284481Y0402928D01*
X0284502Y0402769D01*
X0284520Y0402609D01*
X0284534Y0402449D01*
X0284544Y0402288D01*
X0284550Y0402128D01*
X0284552Y0401967D01*
X0284550Y0401806D01*
X0284544Y0401646D01*
X0284534Y0401485D01*
X0284520Y0401325D01*
X0284502Y0401165D01*
X0284481Y0401006D01*
X0284455Y0400847D01*
X0284425Y0400689D01*
X0284392Y0400532D01*
X0284354Y0400375D01*
X0284313Y0400220D01*
X0284268Y0400066D01*
X0284219Y0399913D01*
X0284166Y0399761D01*
X0284110Y0399610D01*
X0284049Y0399461D01*
X0283986Y0399313D01*
X0283918Y0399167D01*
X0283847Y0399023D01*
X0283773Y0398881D01*
X0283695Y0398740D01*
X0283613Y0398602D01*
X0283528Y0398465D01*
X0283440Y0398331D01*
X0283348Y0398199D01*
X0283253Y0398069D01*
X0283155Y0397941D01*
X0283054Y0397816D01*
X0282950Y0397694D01*
X0282843Y0397574D01*
X0282733Y0397457D01*
X0282620Y0397342D01*
X0282504Y0397231D01*
X0282385Y0397122D01*
X0282264Y0397017D01*
X0282140Y0396914D01*
X0282014Y0396814D01*
X0281886Y0396718D01*
X0281755Y0396625D01*
X0281621Y0396535D01*
X0281486Y0396448D01*
X0281348Y0396365D01*
X0281209Y0396285D01*
X0281067Y0396209D01*
X0280924Y0396136D01*
X0280779Y0396067D01*
X0280632Y0396001D01*
X0280484Y0395939D01*
X0280334Y0395881D01*
X0280183Y0395826D01*
X0280030Y0395775D01*
X0279876Y0395728D01*
X0279721Y0395685D01*
X0279565Y0395646D01*
X0279409Y0395610D01*
X0279251Y0395579D01*
X0279093Y0395551D01*
X0278934Y0395527D01*
X0278774Y0395507D01*
X0278614Y0395491D01*
X0278454Y0395479D01*
X0278293Y0395471D01*
X0278132Y0395467D01*
X0277972Y0395467D01*
X0277811Y0395471D01*
X0277650Y0395479D01*
X0277490Y0395491D01*
X0277330Y0395507D01*
X0277170Y0395527D01*
X0277011Y0395551D01*
X0276853Y0395579D01*
X0276695Y0395610D01*
X0276539Y0395646D01*
X0276383Y0395685D01*
X0276228Y0395728D01*
X0276074Y0395775D01*
X0275921Y0395826D01*
X0275770Y0395881D01*
X0275620Y0395939D01*
X0275472Y0396001D01*
X0275325Y0396067D01*
X0275180Y0396136D01*
X0275037Y0396209D01*
X0274895Y0396285D01*
X0274756Y0396365D01*
X0274618Y0396448D01*
X0274483Y0396535D01*
X0274349Y0396625D01*
X0274218Y0396718D01*
X0274090Y0396814D01*
X0273964Y0396914D01*
X0273840Y0397017D01*
X0273719Y0397122D01*
X0273600Y0397231D01*
X0273484Y0397342D01*
X0273371Y0397457D01*
X0273261Y0397574D01*
X0273154Y0397694D01*
X0273050Y0397816D01*
X0272949Y0397941D01*
X0272851Y0398069D01*
X0272756Y0398199D01*
X0272664Y0398331D01*
X0272576Y0398465D01*
X0272491Y0398602D01*
X0272409Y0398740D01*
X0272331Y0398881D01*
X0272257Y0399023D01*
X0272186Y0399167D01*
X0272118Y0399313D01*
X0272055Y0399461D01*
X0271994Y0399610D01*
X0271938Y0399761D01*
X0271885Y0399913D01*
X0271836Y0400066D01*
X0271791Y0400220D01*
X0271750Y0400375D01*
X0271712Y0400532D01*
X0271679Y0400689D01*
X0271649Y0400847D01*
X0271623Y0401006D01*
X0271602Y0401165D01*
X0271584Y0401325D01*
X0271570Y0401485D01*
X0271560Y0401646D01*
X0271554Y0401806D01*
X0271552Y0401967D01*
X0287058Y0430358D02*
X0287060Y0430506D01*
X0287066Y0430654D01*
X0287076Y0430802D01*
X0287090Y0430949D01*
X0287108Y0431096D01*
X0287129Y0431242D01*
X0287155Y0431388D01*
X0287185Y0431533D01*
X0287218Y0431677D01*
X0287256Y0431820D01*
X0287297Y0431962D01*
X0287342Y0432103D01*
X0287390Y0432243D01*
X0287443Y0432382D01*
X0287499Y0432519D01*
X0287559Y0432654D01*
X0287622Y0432788D01*
X0287689Y0432920D01*
X0287760Y0433050D01*
X0287834Y0433178D01*
X0287911Y0433304D01*
X0287992Y0433428D01*
X0288076Y0433550D01*
X0288163Y0433669D01*
X0288254Y0433786D01*
X0288348Y0433901D01*
X0288444Y0434013D01*
X0288544Y0434123D01*
X0288646Y0434229D01*
X0288752Y0434333D01*
X0288860Y0434434D01*
X0288971Y0434532D01*
X0289084Y0434628D01*
X0289200Y0434720D01*
X0289318Y0434809D01*
X0289439Y0434894D01*
X0289562Y0434977D01*
X0289687Y0435056D01*
X0289814Y0435132D01*
X0289943Y0435204D01*
X0290074Y0435273D01*
X0290207Y0435338D01*
X0290342Y0435399D01*
X0290478Y0435457D01*
X0290615Y0435512D01*
X0290754Y0435562D01*
X0290895Y0435609D01*
X0291036Y0435652D01*
X0291179Y0435692D01*
X0291323Y0435727D01*
X0291467Y0435759D01*
X0291613Y0435786D01*
X0291759Y0435810D01*
X0291906Y0435830D01*
X0292053Y0435846D01*
X0292200Y0435858D01*
X0292348Y0435866D01*
X0292496Y0435870D01*
X0292644Y0435870D01*
X0292792Y0435866D01*
X0292940Y0435858D01*
X0293087Y0435846D01*
X0293234Y0435830D01*
X0293381Y0435810D01*
X0293527Y0435786D01*
X0293673Y0435759D01*
X0293817Y0435727D01*
X0293961Y0435692D01*
X0294104Y0435652D01*
X0294245Y0435609D01*
X0294386Y0435562D01*
X0294525Y0435512D01*
X0294662Y0435457D01*
X0294798Y0435399D01*
X0294933Y0435338D01*
X0295066Y0435273D01*
X0295197Y0435204D01*
X0295326Y0435132D01*
X0295453Y0435056D01*
X0295578Y0434977D01*
X0295701Y0434894D01*
X0295822Y0434809D01*
X0295940Y0434720D01*
X0296056Y0434628D01*
X0296169Y0434532D01*
X0296280Y0434434D01*
X0296388Y0434333D01*
X0296494Y0434229D01*
X0296596Y0434123D01*
X0296696Y0434013D01*
X0296792Y0433901D01*
X0296886Y0433786D01*
X0296977Y0433669D01*
X0297064Y0433550D01*
X0297148Y0433428D01*
X0297229Y0433304D01*
X0297306Y0433178D01*
X0297380Y0433050D01*
X0297451Y0432920D01*
X0297518Y0432788D01*
X0297581Y0432654D01*
X0297641Y0432519D01*
X0297697Y0432382D01*
X0297750Y0432243D01*
X0297798Y0432103D01*
X0297843Y0431962D01*
X0297884Y0431820D01*
X0297922Y0431677D01*
X0297955Y0431533D01*
X0297985Y0431388D01*
X0298011Y0431242D01*
X0298032Y0431096D01*
X0298050Y0430949D01*
X0298064Y0430802D01*
X0298074Y0430654D01*
X0298080Y0430506D01*
X0298082Y0430358D01*
X0298080Y0430210D01*
X0298074Y0430062D01*
X0298064Y0429914D01*
X0298050Y0429767D01*
X0298032Y0429620D01*
X0298011Y0429474D01*
X0297985Y0429328D01*
X0297955Y0429183D01*
X0297922Y0429039D01*
X0297884Y0428896D01*
X0297843Y0428754D01*
X0297798Y0428613D01*
X0297750Y0428473D01*
X0297697Y0428334D01*
X0297641Y0428197D01*
X0297581Y0428062D01*
X0297518Y0427928D01*
X0297451Y0427796D01*
X0297380Y0427666D01*
X0297306Y0427538D01*
X0297229Y0427412D01*
X0297148Y0427288D01*
X0297064Y0427166D01*
X0296977Y0427047D01*
X0296886Y0426930D01*
X0296792Y0426815D01*
X0296696Y0426703D01*
X0296596Y0426593D01*
X0296494Y0426487D01*
X0296388Y0426383D01*
X0296280Y0426282D01*
X0296169Y0426184D01*
X0296056Y0426088D01*
X0295940Y0425996D01*
X0295822Y0425907D01*
X0295701Y0425822D01*
X0295578Y0425739D01*
X0295453Y0425660D01*
X0295326Y0425584D01*
X0295197Y0425512D01*
X0295066Y0425443D01*
X0294933Y0425378D01*
X0294798Y0425317D01*
X0294662Y0425259D01*
X0294525Y0425204D01*
X0294386Y0425154D01*
X0294245Y0425107D01*
X0294104Y0425064D01*
X0293961Y0425024D01*
X0293817Y0424989D01*
X0293673Y0424957D01*
X0293527Y0424930D01*
X0293381Y0424906D01*
X0293234Y0424886D01*
X0293087Y0424870D01*
X0292940Y0424858D01*
X0292792Y0424850D01*
X0292644Y0424846D01*
X0292496Y0424846D01*
X0292348Y0424850D01*
X0292200Y0424858D01*
X0292053Y0424870D01*
X0291906Y0424886D01*
X0291759Y0424906D01*
X0291613Y0424930D01*
X0291467Y0424957D01*
X0291323Y0424989D01*
X0291179Y0425024D01*
X0291036Y0425064D01*
X0290895Y0425107D01*
X0290754Y0425154D01*
X0290615Y0425204D01*
X0290478Y0425259D01*
X0290342Y0425317D01*
X0290207Y0425378D01*
X0290074Y0425443D01*
X0289943Y0425512D01*
X0289814Y0425584D01*
X0289687Y0425660D01*
X0289562Y0425739D01*
X0289439Y0425822D01*
X0289318Y0425907D01*
X0289200Y0425996D01*
X0289084Y0426088D01*
X0288971Y0426184D01*
X0288860Y0426282D01*
X0288752Y0426383D01*
X0288646Y0426487D01*
X0288544Y0426593D01*
X0288444Y0426703D01*
X0288348Y0426815D01*
X0288254Y0426930D01*
X0288163Y0427047D01*
X0288076Y0427166D01*
X0287992Y0427288D01*
X0287911Y0427412D01*
X0287834Y0427538D01*
X0287760Y0427666D01*
X0287689Y0427796D01*
X0287622Y0427928D01*
X0287559Y0428062D01*
X0287499Y0428197D01*
X0287443Y0428334D01*
X0287390Y0428473D01*
X0287342Y0428613D01*
X0287297Y0428754D01*
X0287256Y0428896D01*
X0287218Y0429039D01*
X0287185Y0429183D01*
X0287155Y0429328D01*
X0287129Y0429474D01*
X0287108Y0429620D01*
X0287090Y0429767D01*
X0287076Y0429914D01*
X0287066Y0430062D01*
X0287060Y0430210D01*
X0287058Y0430358D01*
X0306743Y0430358D02*
X0306745Y0430506D01*
X0306751Y0430654D01*
X0306761Y0430802D01*
X0306775Y0430949D01*
X0306793Y0431096D01*
X0306814Y0431242D01*
X0306840Y0431388D01*
X0306870Y0431533D01*
X0306903Y0431677D01*
X0306941Y0431820D01*
X0306982Y0431962D01*
X0307027Y0432103D01*
X0307075Y0432243D01*
X0307128Y0432382D01*
X0307184Y0432519D01*
X0307244Y0432654D01*
X0307307Y0432788D01*
X0307374Y0432920D01*
X0307445Y0433050D01*
X0307519Y0433178D01*
X0307596Y0433304D01*
X0307677Y0433428D01*
X0307761Y0433550D01*
X0307848Y0433669D01*
X0307939Y0433786D01*
X0308033Y0433901D01*
X0308129Y0434013D01*
X0308229Y0434123D01*
X0308331Y0434229D01*
X0308437Y0434333D01*
X0308545Y0434434D01*
X0308656Y0434532D01*
X0308769Y0434628D01*
X0308885Y0434720D01*
X0309003Y0434809D01*
X0309124Y0434894D01*
X0309247Y0434977D01*
X0309372Y0435056D01*
X0309499Y0435132D01*
X0309628Y0435204D01*
X0309759Y0435273D01*
X0309892Y0435338D01*
X0310027Y0435399D01*
X0310163Y0435457D01*
X0310300Y0435512D01*
X0310439Y0435562D01*
X0310580Y0435609D01*
X0310721Y0435652D01*
X0310864Y0435692D01*
X0311008Y0435727D01*
X0311152Y0435759D01*
X0311298Y0435786D01*
X0311444Y0435810D01*
X0311591Y0435830D01*
X0311738Y0435846D01*
X0311885Y0435858D01*
X0312033Y0435866D01*
X0312181Y0435870D01*
X0312329Y0435870D01*
X0312477Y0435866D01*
X0312625Y0435858D01*
X0312772Y0435846D01*
X0312919Y0435830D01*
X0313066Y0435810D01*
X0313212Y0435786D01*
X0313358Y0435759D01*
X0313502Y0435727D01*
X0313646Y0435692D01*
X0313789Y0435652D01*
X0313930Y0435609D01*
X0314071Y0435562D01*
X0314210Y0435512D01*
X0314347Y0435457D01*
X0314483Y0435399D01*
X0314618Y0435338D01*
X0314751Y0435273D01*
X0314882Y0435204D01*
X0315011Y0435132D01*
X0315138Y0435056D01*
X0315263Y0434977D01*
X0315386Y0434894D01*
X0315507Y0434809D01*
X0315625Y0434720D01*
X0315741Y0434628D01*
X0315854Y0434532D01*
X0315965Y0434434D01*
X0316073Y0434333D01*
X0316179Y0434229D01*
X0316281Y0434123D01*
X0316381Y0434013D01*
X0316477Y0433901D01*
X0316571Y0433786D01*
X0316662Y0433669D01*
X0316749Y0433550D01*
X0316833Y0433428D01*
X0316914Y0433304D01*
X0316991Y0433178D01*
X0317065Y0433050D01*
X0317136Y0432920D01*
X0317203Y0432788D01*
X0317266Y0432654D01*
X0317326Y0432519D01*
X0317382Y0432382D01*
X0317435Y0432243D01*
X0317483Y0432103D01*
X0317528Y0431962D01*
X0317569Y0431820D01*
X0317607Y0431677D01*
X0317640Y0431533D01*
X0317670Y0431388D01*
X0317696Y0431242D01*
X0317717Y0431096D01*
X0317735Y0430949D01*
X0317749Y0430802D01*
X0317759Y0430654D01*
X0317765Y0430506D01*
X0317767Y0430358D01*
X0317765Y0430210D01*
X0317759Y0430062D01*
X0317749Y0429914D01*
X0317735Y0429767D01*
X0317717Y0429620D01*
X0317696Y0429474D01*
X0317670Y0429328D01*
X0317640Y0429183D01*
X0317607Y0429039D01*
X0317569Y0428896D01*
X0317528Y0428754D01*
X0317483Y0428613D01*
X0317435Y0428473D01*
X0317382Y0428334D01*
X0317326Y0428197D01*
X0317266Y0428062D01*
X0317203Y0427928D01*
X0317136Y0427796D01*
X0317065Y0427666D01*
X0316991Y0427538D01*
X0316914Y0427412D01*
X0316833Y0427288D01*
X0316749Y0427166D01*
X0316662Y0427047D01*
X0316571Y0426930D01*
X0316477Y0426815D01*
X0316381Y0426703D01*
X0316281Y0426593D01*
X0316179Y0426487D01*
X0316073Y0426383D01*
X0315965Y0426282D01*
X0315854Y0426184D01*
X0315741Y0426088D01*
X0315625Y0425996D01*
X0315507Y0425907D01*
X0315386Y0425822D01*
X0315263Y0425739D01*
X0315138Y0425660D01*
X0315011Y0425584D01*
X0314882Y0425512D01*
X0314751Y0425443D01*
X0314618Y0425378D01*
X0314483Y0425317D01*
X0314347Y0425259D01*
X0314210Y0425204D01*
X0314071Y0425154D01*
X0313930Y0425107D01*
X0313789Y0425064D01*
X0313646Y0425024D01*
X0313502Y0424989D01*
X0313358Y0424957D01*
X0313212Y0424930D01*
X0313066Y0424906D01*
X0312919Y0424886D01*
X0312772Y0424870D01*
X0312625Y0424858D01*
X0312477Y0424850D01*
X0312329Y0424846D01*
X0312181Y0424846D01*
X0312033Y0424850D01*
X0311885Y0424858D01*
X0311738Y0424870D01*
X0311591Y0424886D01*
X0311444Y0424906D01*
X0311298Y0424930D01*
X0311152Y0424957D01*
X0311008Y0424989D01*
X0310864Y0425024D01*
X0310721Y0425064D01*
X0310580Y0425107D01*
X0310439Y0425154D01*
X0310300Y0425204D01*
X0310163Y0425259D01*
X0310027Y0425317D01*
X0309892Y0425378D01*
X0309759Y0425443D01*
X0309628Y0425512D01*
X0309499Y0425584D01*
X0309372Y0425660D01*
X0309247Y0425739D01*
X0309124Y0425822D01*
X0309003Y0425907D01*
X0308885Y0425996D01*
X0308769Y0426088D01*
X0308656Y0426184D01*
X0308545Y0426282D01*
X0308437Y0426383D01*
X0308331Y0426487D01*
X0308229Y0426593D01*
X0308129Y0426703D01*
X0308033Y0426815D01*
X0307939Y0426930D01*
X0307848Y0427047D01*
X0307761Y0427166D01*
X0307677Y0427288D01*
X0307596Y0427412D01*
X0307519Y0427538D01*
X0307445Y0427666D01*
X0307374Y0427796D01*
X0307307Y0427928D01*
X0307244Y0428062D01*
X0307184Y0428197D01*
X0307128Y0428334D01*
X0307075Y0428473D01*
X0307027Y0428613D01*
X0306982Y0428754D01*
X0306941Y0428896D01*
X0306903Y0429039D01*
X0306870Y0429183D01*
X0306840Y0429328D01*
X0306814Y0429474D01*
X0306793Y0429620D01*
X0306775Y0429767D01*
X0306761Y0429914D01*
X0306751Y0430062D01*
X0306745Y0430210D01*
X0306743Y0430358D01*
X0325253Y0402892D02*
X0325255Y0403053D01*
X0325261Y0403213D01*
X0325271Y0403374D01*
X0325285Y0403534D01*
X0325303Y0403694D01*
X0325324Y0403853D01*
X0325350Y0404012D01*
X0325380Y0404170D01*
X0325413Y0404327D01*
X0325451Y0404484D01*
X0325492Y0404639D01*
X0325537Y0404793D01*
X0325586Y0404946D01*
X0325639Y0405098D01*
X0325695Y0405249D01*
X0325756Y0405398D01*
X0325819Y0405546D01*
X0325887Y0405692D01*
X0325958Y0405836D01*
X0326032Y0405978D01*
X0326110Y0406119D01*
X0326192Y0406257D01*
X0326277Y0406394D01*
X0326365Y0406528D01*
X0326457Y0406660D01*
X0326552Y0406790D01*
X0326650Y0406918D01*
X0326751Y0407043D01*
X0326855Y0407165D01*
X0326962Y0407285D01*
X0327072Y0407402D01*
X0327185Y0407517D01*
X0327301Y0407628D01*
X0327420Y0407737D01*
X0327541Y0407842D01*
X0327665Y0407945D01*
X0327791Y0408045D01*
X0327919Y0408141D01*
X0328050Y0408234D01*
X0328184Y0408324D01*
X0328319Y0408411D01*
X0328457Y0408494D01*
X0328596Y0408574D01*
X0328738Y0408650D01*
X0328881Y0408723D01*
X0329026Y0408792D01*
X0329173Y0408858D01*
X0329321Y0408920D01*
X0329471Y0408978D01*
X0329622Y0409033D01*
X0329775Y0409084D01*
X0329929Y0409131D01*
X0330084Y0409174D01*
X0330240Y0409213D01*
X0330396Y0409249D01*
X0330554Y0409280D01*
X0330712Y0409308D01*
X0330871Y0409332D01*
X0331031Y0409352D01*
X0331191Y0409368D01*
X0331351Y0409380D01*
X0331512Y0409388D01*
X0331673Y0409392D01*
X0331833Y0409392D01*
X0331994Y0409388D01*
X0332155Y0409380D01*
X0332315Y0409368D01*
X0332475Y0409352D01*
X0332635Y0409332D01*
X0332794Y0409308D01*
X0332952Y0409280D01*
X0333110Y0409249D01*
X0333266Y0409213D01*
X0333422Y0409174D01*
X0333577Y0409131D01*
X0333731Y0409084D01*
X0333884Y0409033D01*
X0334035Y0408978D01*
X0334185Y0408920D01*
X0334333Y0408858D01*
X0334480Y0408792D01*
X0334625Y0408723D01*
X0334768Y0408650D01*
X0334910Y0408574D01*
X0335049Y0408494D01*
X0335187Y0408411D01*
X0335322Y0408324D01*
X0335456Y0408234D01*
X0335587Y0408141D01*
X0335715Y0408045D01*
X0335841Y0407945D01*
X0335965Y0407842D01*
X0336086Y0407737D01*
X0336205Y0407628D01*
X0336321Y0407517D01*
X0336434Y0407402D01*
X0336544Y0407285D01*
X0336651Y0407165D01*
X0336755Y0407043D01*
X0336856Y0406918D01*
X0336954Y0406790D01*
X0337049Y0406660D01*
X0337141Y0406528D01*
X0337229Y0406394D01*
X0337314Y0406257D01*
X0337396Y0406119D01*
X0337474Y0405978D01*
X0337548Y0405836D01*
X0337619Y0405692D01*
X0337687Y0405546D01*
X0337750Y0405398D01*
X0337811Y0405249D01*
X0337867Y0405098D01*
X0337920Y0404946D01*
X0337969Y0404793D01*
X0338014Y0404639D01*
X0338055Y0404484D01*
X0338093Y0404327D01*
X0338126Y0404170D01*
X0338156Y0404012D01*
X0338182Y0403853D01*
X0338203Y0403694D01*
X0338221Y0403534D01*
X0338235Y0403374D01*
X0338245Y0403213D01*
X0338251Y0403053D01*
X0338253Y0402892D01*
X0338251Y0402731D01*
X0338245Y0402571D01*
X0338235Y0402410D01*
X0338221Y0402250D01*
X0338203Y0402090D01*
X0338182Y0401931D01*
X0338156Y0401772D01*
X0338126Y0401614D01*
X0338093Y0401457D01*
X0338055Y0401300D01*
X0338014Y0401145D01*
X0337969Y0400991D01*
X0337920Y0400838D01*
X0337867Y0400686D01*
X0337811Y0400535D01*
X0337750Y0400386D01*
X0337687Y0400238D01*
X0337619Y0400092D01*
X0337548Y0399948D01*
X0337474Y0399806D01*
X0337396Y0399665D01*
X0337314Y0399527D01*
X0337229Y0399390D01*
X0337141Y0399256D01*
X0337049Y0399124D01*
X0336954Y0398994D01*
X0336856Y0398866D01*
X0336755Y0398741D01*
X0336651Y0398619D01*
X0336544Y0398499D01*
X0336434Y0398382D01*
X0336321Y0398267D01*
X0336205Y0398156D01*
X0336086Y0398047D01*
X0335965Y0397942D01*
X0335841Y0397839D01*
X0335715Y0397739D01*
X0335587Y0397643D01*
X0335456Y0397550D01*
X0335322Y0397460D01*
X0335187Y0397373D01*
X0335049Y0397290D01*
X0334910Y0397210D01*
X0334768Y0397134D01*
X0334625Y0397061D01*
X0334480Y0396992D01*
X0334333Y0396926D01*
X0334185Y0396864D01*
X0334035Y0396806D01*
X0333884Y0396751D01*
X0333731Y0396700D01*
X0333577Y0396653D01*
X0333422Y0396610D01*
X0333266Y0396571D01*
X0333110Y0396535D01*
X0332952Y0396504D01*
X0332794Y0396476D01*
X0332635Y0396452D01*
X0332475Y0396432D01*
X0332315Y0396416D01*
X0332155Y0396404D01*
X0331994Y0396396D01*
X0331833Y0396392D01*
X0331673Y0396392D01*
X0331512Y0396396D01*
X0331351Y0396404D01*
X0331191Y0396416D01*
X0331031Y0396432D01*
X0330871Y0396452D01*
X0330712Y0396476D01*
X0330554Y0396504D01*
X0330396Y0396535D01*
X0330240Y0396571D01*
X0330084Y0396610D01*
X0329929Y0396653D01*
X0329775Y0396700D01*
X0329622Y0396751D01*
X0329471Y0396806D01*
X0329321Y0396864D01*
X0329173Y0396926D01*
X0329026Y0396992D01*
X0328881Y0397061D01*
X0328738Y0397134D01*
X0328596Y0397210D01*
X0328457Y0397290D01*
X0328319Y0397373D01*
X0328184Y0397460D01*
X0328050Y0397550D01*
X0327919Y0397643D01*
X0327791Y0397739D01*
X0327665Y0397839D01*
X0327541Y0397942D01*
X0327420Y0398047D01*
X0327301Y0398156D01*
X0327185Y0398267D01*
X0327072Y0398382D01*
X0326962Y0398499D01*
X0326855Y0398619D01*
X0326751Y0398741D01*
X0326650Y0398866D01*
X0326552Y0398994D01*
X0326457Y0399124D01*
X0326365Y0399256D01*
X0326277Y0399390D01*
X0326192Y0399527D01*
X0326110Y0399665D01*
X0326032Y0399806D01*
X0325958Y0399948D01*
X0325887Y0400092D01*
X0325819Y0400238D01*
X0325756Y0400386D01*
X0325695Y0400535D01*
X0325639Y0400686D01*
X0325586Y0400838D01*
X0325537Y0400991D01*
X0325492Y0401145D01*
X0325451Y0401300D01*
X0325413Y0401457D01*
X0325380Y0401614D01*
X0325350Y0401772D01*
X0325324Y0401931D01*
X0325303Y0402090D01*
X0325285Y0402250D01*
X0325271Y0402410D01*
X0325261Y0402571D01*
X0325255Y0402731D01*
X0325253Y0402892D01*
X0373029Y0389289D02*
X0373031Y0389450D01*
X0373037Y0389610D01*
X0373047Y0389771D01*
X0373061Y0389931D01*
X0373079Y0390091D01*
X0373100Y0390250D01*
X0373126Y0390409D01*
X0373156Y0390567D01*
X0373189Y0390724D01*
X0373227Y0390881D01*
X0373268Y0391036D01*
X0373313Y0391190D01*
X0373362Y0391343D01*
X0373415Y0391495D01*
X0373471Y0391646D01*
X0373532Y0391795D01*
X0373595Y0391943D01*
X0373663Y0392089D01*
X0373734Y0392233D01*
X0373808Y0392375D01*
X0373886Y0392516D01*
X0373968Y0392654D01*
X0374053Y0392791D01*
X0374141Y0392925D01*
X0374233Y0393057D01*
X0374328Y0393187D01*
X0374426Y0393315D01*
X0374527Y0393440D01*
X0374631Y0393562D01*
X0374738Y0393682D01*
X0374848Y0393799D01*
X0374961Y0393914D01*
X0375077Y0394025D01*
X0375196Y0394134D01*
X0375317Y0394239D01*
X0375441Y0394342D01*
X0375567Y0394442D01*
X0375695Y0394538D01*
X0375826Y0394631D01*
X0375960Y0394721D01*
X0376095Y0394808D01*
X0376233Y0394891D01*
X0376372Y0394971D01*
X0376514Y0395047D01*
X0376657Y0395120D01*
X0376802Y0395189D01*
X0376949Y0395255D01*
X0377097Y0395317D01*
X0377247Y0395375D01*
X0377398Y0395430D01*
X0377551Y0395481D01*
X0377705Y0395528D01*
X0377860Y0395571D01*
X0378016Y0395610D01*
X0378172Y0395646D01*
X0378330Y0395677D01*
X0378488Y0395705D01*
X0378647Y0395729D01*
X0378807Y0395749D01*
X0378967Y0395765D01*
X0379127Y0395777D01*
X0379288Y0395785D01*
X0379449Y0395789D01*
X0379609Y0395789D01*
X0379770Y0395785D01*
X0379931Y0395777D01*
X0380091Y0395765D01*
X0380251Y0395749D01*
X0380411Y0395729D01*
X0380570Y0395705D01*
X0380728Y0395677D01*
X0380886Y0395646D01*
X0381042Y0395610D01*
X0381198Y0395571D01*
X0381353Y0395528D01*
X0381507Y0395481D01*
X0381660Y0395430D01*
X0381811Y0395375D01*
X0381961Y0395317D01*
X0382109Y0395255D01*
X0382256Y0395189D01*
X0382401Y0395120D01*
X0382544Y0395047D01*
X0382686Y0394971D01*
X0382825Y0394891D01*
X0382963Y0394808D01*
X0383098Y0394721D01*
X0383232Y0394631D01*
X0383363Y0394538D01*
X0383491Y0394442D01*
X0383617Y0394342D01*
X0383741Y0394239D01*
X0383862Y0394134D01*
X0383981Y0394025D01*
X0384097Y0393914D01*
X0384210Y0393799D01*
X0384320Y0393682D01*
X0384427Y0393562D01*
X0384531Y0393440D01*
X0384632Y0393315D01*
X0384730Y0393187D01*
X0384825Y0393057D01*
X0384917Y0392925D01*
X0385005Y0392791D01*
X0385090Y0392654D01*
X0385172Y0392516D01*
X0385250Y0392375D01*
X0385324Y0392233D01*
X0385395Y0392089D01*
X0385463Y0391943D01*
X0385526Y0391795D01*
X0385587Y0391646D01*
X0385643Y0391495D01*
X0385696Y0391343D01*
X0385745Y0391190D01*
X0385790Y0391036D01*
X0385831Y0390881D01*
X0385869Y0390724D01*
X0385902Y0390567D01*
X0385932Y0390409D01*
X0385958Y0390250D01*
X0385979Y0390091D01*
X0385997Y0389931D01*
X0386011Y0389771D01*
X0386021Y0389610D01*
X0386027Y0389450D01*
X0386029Y0389289D01*
X0386027Y0389128D01*
X0386021Y0388968D01*
X0386011Y0388807D01*
X0385997Y0388647D01*
X0385979Y0388487D01*
X0385958Y0388328D01*
X0385932Y0388169D01*
X0385902Y0388011D01*
X0385869Y0387854D01*
X0385831Y0387697D01*
X0385790Y0387542D01*
X0385745Y0387388D01*
X0385696Y0387235D01*
X0385643Y0387083D01*
X0385587Y0386932D01*
X0385526Y0386783D01*
X0385463Y0386635D01*
X0385395Y0386489D01*
X0385324Y0386345D01*
X0385250Y0386203D01*
X0385172Y0386062D01*
X0385090Y0385924D01*
X0385005Y0385787D01*
X0384917Y0385653D01*
X0384825Y0385521D01*
X0384730Y0385391D01*
X0384632Y0385263D01*
X0384531Y0385138D01*
X0384427Y0385016D01*
X0384320Y0384896D01*
X0384210Y0384779D01*
X0384097Y0384664D01*
X0383981Y0384553D01*
X0383862Y0384444D01*
X0383741Y0384339D01*
X0383617Y0384236D01*
X0383491Y0384136D01*
X0383363Y0384040D01*
X0383232Y0383947D01*
X0383098Y0383857D01*
X0382963Y0383770D01*
X0382825Y0383687D01*
X0382686Y0383607D01*
X0382544Y0383531D01*
X0382401Y0383458D01*
X0382256Y0383389D01*
X0382109Y0383323D01*
X0381961Y0383261D01*
X0381811Y0383203D01*
X0381660Y0383148D01*
X0381507Y0383097D01*
X0381353Y0383050D01*
X0381198Y0383007D01*
X0381042Y0382968D01*
X0380886Y0382932D01*
X0380728Y0382901D01*
X0380570Y0382873D01*
X0380411Y0382849D01*
X0380251Y0382829D01*
X0380091Y0382813D01*
X0379931Y0382801D01*
X0379770Y0382793D01*
X0379609Y0382789D01*
X0379449Y0382789D01*
X0379288Y0382793D01*
X0379127Y0382801D01*
X0378967Y0382813D01*
X0378807Y0382829D01*
X0378647Y0382849D01*
X0378488Y0382873D01*
X0378330Y0382901D01*
X0378172Y0382932D01*
X0378016Y0382968D01*
X0377860Y0383007D01*
X0377705Y0383050D01*
X0377551Y0383097D01*
X0377398Y0383148D01*
X0377247Y0383203D01*
X0377097Y0383261D01*
X0376949Y0383323D01*
X0376802Y0383389D01*
X0376657Y0383458D01*
X0376514Y0383531D01*
X0376372Y0383607D01*
X0376233Y0383687D01*
X0376095Y0383770D01*
X0375960Y0383857D01*
X0375826Y0383947D01*
X0375695Y0384040D01*
X0375567Y0384136D01*
X0375441Y0384236D01*
X0375317Y0384339D01*
X0375196Y0384444D01*
X0375077Y0384553D01*
X0374961Y0384664D01*
X0374848Y0384779D01*
X0374738Y0384896D01*
X0374631Y0385016D01*
X0374527Y0385138D01*
X0374426Y0385263D01*
X0374328Y0385391D01*
X0374233Y0385521D01*
X0374141Y0385653D01*
X0374053Y0385787D01*
X0373968Y0385924D01*
X0373886Y0386062D01*
X0373808Y0386203D01*
X0373734Y0386345D01*
X0373663Y0386489D01*
X0373595Y0386635D01*
X0373532Y0386783D01*
X0373471Y0386932D01*
X0373415Y0387083D01*
X0373362Y0387235D01*
X0373313Y0387388D01*
X0373268Y0387542D01*
X0373227Y0387697D01*
X0373189Y0387854D01*
X0373156Y0388011D01*
X0373126Y0388169D01*
X0373100Y0388328D01*
X0373079Y0388487D01*
X0373061Y0388647D01*
X0373047Y0388807D01*
X0373037Y0388968D01*
X0373031Y0389128D01*
X0373029Y0389289D01*
X0419230Y0388896D02*
X0419232Y0389057D01*
X0419238Y0389217D01*
X0419248Y0389378D01*
X0419262Y0389538D01*
X0419280Y0389698D01*
X0419301Y0389857D01*
X0419327Y0390016D01*
X0419357Y0390174D01*
X0419390Y0390331D01*
X0419428Y0390488D01*
X0419469Y0390643D01*
X0419514Y0390797D01*
X0419563Y0390950D01*
X0419616Y0391102D01*
X0419672Y0391253D01*
X0419733Y0391402D01*
X0419796Y0391550D01*
X0419864Y0391696D01*
X0419935Y0391840D01*
X0420009Y0391982D01*
X0420087Y0392123D01*
X0420169Y0392261D01*
X0420254Y0392398D01*
X0420342Y0392532D01*
X0420434Y0392664D01*
X0420529Y0392794D01*
X0420627Y0392922D01*
X0420728Y0393047D01*
X0420832Y0393169D01*
X0420939Y0393289D01*
X0421049Y0393406D01*
X0421162Y0393521D01*
X0421278Y0393632D01*
X0421397Y0393741D01*
X0421518Y0393846D01*
X0421642Y0393949D01*
X0421768Y0394049D01*
X0421896Y0394145D01*
X0422027Y0394238D01*
X0422161Y0394328D01*
X0422296Y0394415D01*
X0422434Y0394498D01*
X0422573Y0394578D01*
X0422715Y0394654D01*
X0422858Y0394727D01*
X0423003Y0394796D01*
X0423150Y0394862D01*
X0423298Y0394924D01*
X0423448Y0394982D01*
X0423599Y0395037D01*
X0423752Y0395088D01*
X0423906Y0395135D01*
X0424061Y0395178D01*
X0424217Y0395217D01*
X0424373Y0395253D01*
X0424531Y0395284D01*
X0424689Y0395312D01*
X0424848Y0395336D01*
X0425008Y0395356D01*
X0425168Y0395372D01*
X0425328Y0395384D01*
X0425489Y0395392D01*
X0425650Y0395396D01*
X0425810Y0395396D01*
X0425971Y0395392D01*
X0426132Y0395384D01*
X0426292Y0395372D01*
X0426452Y0395356D01*
X0426612Y0395336D01*
X0426771Y0395312D01*
X0426929Y0395284D01*
X0427087Y0395253D01*
X0427243Y0395217D01*
X0427399Y0395178D01*
X0427554Y0395135D01*
X0427708Y0395088D01*
X0427861Y0395037D01*
X0428012Y0394982D01*
X0428162Y0394924D01*
X0428310Y0394862D01*
X0428457Y0394796D01*
X0428602Y0394727D01*
X0428745Y0394654D01*
X0428887Y0394578D01*
X0429026Y0394498D01*
X0429164Y0394415D01*
X0429299Y0394328D01*
X0429433Y0394238D01*
X0429564Y0394145D01*
X0429692Y0394049D01*
X0429818Y0393949D01*
X0429942Y0393846D01*
X0430063Y0393741D01*
X0430182Y0393632D01*
X0430298Y0393521D01*
X0430411Y0393406D01*
X0430521Y0393289D01*
X0430628Y0393169D01*
X0430732Y0393047D01*
X0430833Y0392922D01*
X0430931Y0392794D01*
X0431026Y0392664D01*
X0431118Y0392532D01*
X0431206Y0392398D01*
X0431291Y0392261D01*
X0431373Y0392123D01*
X0431451Y0391982D01*
X0431525Y0391840D01*
X0431596Y0391696D01*
X0431664Y0391550D01*
X0431727Y0391402D01*
X0431788Y0391253D01*
X0431844Y0391102D01*
X0431897Y0390950D01*
X0431946Y0390797D01*
X0431991Y0390643D01*
X0432032Y0390488D01*
X0432070Y0390331D01*
X0432103Y0390174D01*
X0432133Y0390016D01*
X0432159Y0389857D01*
X0432180Y0389698D01*
X0432198Y0389538D01*
X0432212Y0389378D01*
X0432222Y0389217D01*
X0432228Y0389057D01*
X0432230Y0388896D01*
X0432228Y0388735D01*
X0432222Y0388575D01*
X0432212Y0388414D01*
X0432198Y0388254D01*
X0432180Y0388094D01*
X0432159Y0387935D01*
X0432133Y0387776D01*
X0432103Y0387618D01*
X0432070Y0387461D01*
X0432032Y0387304D01*
X0431991Y0387149D01*
X0431946Y0386995D01*
X0431897Y0386842D01*
X0431844Y0386690D01*
X0431788Y0386539D01*
X0431727Y0386390D01*
X0431664Y0386242D01*
X0431596Y0386096D01*
X0431525Y0385952D01*
X0431451Y0385810D01*
X0431373Y0385669D01*
X0431291Y0385531D01*
X0431206Y0385394D01*
X0431118Y0385260D01*
X0431026Y0385128D01*
X0430931Y0384998D01*
X0430833Y0384870D01*
X0430732Y0384745D01*
X0430628Y0384623D01*
X0430521Y0384503D01*
X0430411Y0384386D01*
X0430298Y0384271D01*
X0430182Y0384160D01*
X0430063Y0384051D01*
X0429942Y0383946D01*
X0429818Y0383843D01*
X0429692Y0383743D01*
X0429564Y0383647D01*
X0429433Y0383554D01*
X0429299Y0383464D01*
X0429164Y0383377D01*
X0429026Y0383294D01*
X0428887Y0383214D01*
X0428745Y0383138D01*
X0428602Y0383065D01*
X0428457Y0382996D01*
X0428310Y0382930D01*
X0428162Y0382868D01*
X0428012Y0382810D01*
X0427861Y0382755D01*
X0427708Y0382704D01*
X0427554Y0382657D01*
X0427399Y0382614D01*
X0427243Y0382575D01*
X0427087Y0382539D01*
X0426929Y0382508D01*
X0426771Y0382480D01*
X0426612Y0382456D01*
X0426452Y0382436D01*
X0426292Y0382420D01*
X0426132Y0382408D01*
X0425971Y0382400D01*
X0425810Y0382396D01*
X0425650Y0382396D01*
X0425489Y0382400D01*
X0425328Y0382408D01*
X0425168Y0382420D01*
X0425008Y0382436D01*
X0424848Y0382456D01*
X0424689Y0382480D01*
X0424531Y0382508D01*
X0424373Y0382539D01*
X0424217Y0382575D01*
X0424061Y0382614D01*
X0423906Y0382657D01*
X0423752Y0382704D01*
X0423599Y0382755D01*
X0423448Y0382810D01*
X0423298Y0382868D01*
X0423150Y0382930D01*
X0423003Y0382996D01*
X0422858Y0383065D01*
X0422715Y0383138D01*
X0422573Y0383214D01*
X0422434Y0383294D01*
X0422296Y0383377D01*
X0422161Y0383464D01*
X0422027Y0383554D01*
X0421896Y0383647D01*
X0421768Y0383743D01*
X0421642Y0383843D01*
X0421518Y0383946D01*
X0421397Y0384051D01*
X0421278Y0384160D01*
X0421162Y0384271D01*
X0421049Y0384386D01*
X0420939Y0384503D01*
X0420832Y0384623D01*
X0420728Y0384745D01*
X0420627Y0384870D01*
X0420529Y0384998D01*
X0420434Y0385128D01*
X0420342Y0385260D01*
X0420254Y0385394D01*
X0420169Y0385531D01*
X0420087Y0385669D01*
X0420009Y0385810D01*
X0419935Y0385952D01*
X0419864Y0386096D01*
X0419796Y0386242D01*
X0419733Y0386390D01*
X0419672Y0386539D01*
X0419616Y0386690D01*
X0419563Y0386842D01*
X0419514Y0386995D01*
X0419469Y0387149D01*
X0419428Y0387304D01*
X0419390Y0387461D01*
X0419357Y0387618D01*
X0419327Y0387776D01*
X0419301Y0387935D01*
X0419280Y0388094D01*
X0419262Y0388254D01*
X0419248Y0388414D01*
X0419238Y0388575D01*
X0419232Y0388735D01*
X0419230Y0388896D01*
X0468403Y0401967D02*
X0468405Y0402128D01*
X0468411Y0402288D01*
X0468421Y0402449D01*
X0468435Y0402609D01*
X0468453Y0402769D01*
X0468474Y0402928D01*
X0468500Y0403087D01*
X0468530Y0403245D01*
X0468563Y0403402D01*
X0468601Y0403559D01*
X0468642Y0403714D01*
X0468687Y0403868D01*
X0468736Y0404021D01*
X0468789Y0404173D01*
X0468845Y0404324D01*
X0468906Y0404473D01*
X0468969Y0404621D01*
X0469037Y0404767D01*
X0469108Y0404911D01*
X0469182Y0405053D01*
X0469260Y0405194D01*
X0469342Y0405332D01*
X0469427Y0405469D01*
X0469515Y0405603D01*
X0469607Y0405735D01*
X0469702Y0405865D01*
X0469800Y0405993D01*
X0469901Y0406118D01*
X0470005Y0406240D01*
X0470112Y0406360D01*
X0470222Y0406477D01*
X0470335Y0406592D01*
X0470451Y0406703D01*
X0470570Y0406812D01*
X0470691Y0406917D01*
X0470815Y0407020D01*
X0470941Y0407120D01*
X0471069Y0407216D01*
X0471200Y0407309D01*
X0471334Y0407399D01*
X0471469Y0407486D01*
X0471607Y0407569D01*
X0471746Y0407649D01*
X0471888Y0407725D01*
X0472031Y0407798D01*
X0472176Y0407867D01*
X0472323Y0407933D01*
X0472471Y0407995D01*
X0472621Y0408053D01*
X0472772Y0408108D01*
X0472925Y0408159D01*
X0473079Y0408206D01*
X0473234Y0408249D01*
X0473390Y0408288D01*
X0473546Y0408324D01*
X0473704Y0408355D01*
X0473862Y0408383D01*
X0474021Y0408407D01*
X0474181Y0408427D01*
X0474341Y0408443D01*
X0474501Y0408455D01*
X0474662Y0408463D01*
X0474823Y0408467D01*
X0474983Y0408467D01*
X0475144Y0408463D01*
X0475305Y0408455D01*
X0475465Y0408443D01*
X0475625Y0408427D01*
X0475785Y0408407D01*
X0475944Y0408383D01*
X0476102Y0408355D01*
X0476260Y0408324D01*
X0476416Y0408288D01*
X0476572Y0408249D01*
X0476727Y0408206D01*
X0476881Y0408159D01*
X0477034Y0408108D01*
X0477185Y0408053D01*
X0477335Y0407995D01*
X0477483Y0407933D01*
X0477630Y0407867D01*
X0477775Y0407798D01*
X0477918Y0407725D01*
X0478060Y0407649D01*
X0478199Y0407569D01*
X0478337Y0407486D01*
X0478472Y0407399D01*
X0478606Y0407309D01*
X0478737Y0407216D01*
X0478865Y0407120D01*
X0478991Y0407020D01*
X0479115Y0406917D01*
X0479236Y0406812D01*
X0479355Y0406703D01*
X0479471Y0406592D01*
X0479584Y0406477D01*
X0479694Y0406360D01*
X0479801Y0406240D01*
X0479905Y0406118D01*
X0480006Y0405993D01*
X0480104Y0405865D01*
X0480199Y0405735D01*
X0480291Y0405603D01*
X0480379Y0405469D01*
X0480464Y0405332D01*
X0480546Y0405194D01*
X0480624Y0405053D01*
X0480698Y0404911D01*
X0480769Y0404767D01*
X0480837Y0404621D01*
X0480900Y0404473D01*
X0480961Y0404324D01*
X0481017Y0404173D01*
X0481070Y0404021D01*
X0481119Y0403868D01*
X0481164Y0403714D01*
X0481205Y0403559D01*
X0481243Y0403402D01*
X0481276Y0403245D01*
X0481306Y0403087D01*
X0481332Y0402928D01*
X0481353Y0402769D01*
X0481371Y0402609D01*
X0481385Y0402449D01*
X0481395Y0402288D01*
X0481401Y0402128D01*
X0481403Y0401967D01*
X0481401Y0401806D01*
X0481395Y0401646D01*
X0481385Y0401485D01*
X0481371Y0401325D01*
X0481353Y0401165D01*
X0481332Y0401006D01*
X0481306Y0400847D01*
X0481276Y0400689D01*
X0481243Y0400532D01*
X0481205Y0400375D01*
X0481164Y0400220D01*
X0481119Y0400066D01*
X0481070Y0399913D01*
X0481017Y0399761D01*
X0480961Y0399610D01*
X0480900Y0399461D01*
X0480837Y0399313D01*
X0480769Y0399167D01*
X0480698Y0399023D01*
X0480624Y0398881D01*
X0480546Y0398740D01*
X0480464Y0398602D01*
X0480379Y0398465D01*
X0480291Y0398331D01*
X0480199Y0398199D01*
X0480104Y0398069D01*
X0480006Y0397941D01*
X0479905Y0397816D01*
X0479801Y0397694D01*
X0479694Y0397574D01*
X0479584Y0397457D01*
X0479471Y0397342D01*
X0479355Y0397231D01*
X0479236Y0397122D01*
X0479115Y0397017D01*
X0478991Y0396914D01*
X0478865Y0396814D01*
X0478737Y0396718D01*
X0478606Y0396625D01*
X0478472Y0396535D01*
X0478337Y0396448D01*
X0478199Y0396365D01*
X0478060Y0396285D01*
X0477918Y0396209D01*
X0477775Y0396136D01*
X0477630Y0396067D01*
X0477483Y0396001D01*
X0477335Y0395939D01*
X0477185Y0395881D01*
X0477034Y0395826D01*
X0476881Y0395775D01*
X0476727Y0395728D01*
X0476572Y0395685D01*
X0476416Y0395646D01*
X0476260Y0395610D01*
X0476102Y0395579D01*
X0475944Y0395551D01*
X0475785Y0395527D01*
X0475625Y0395507D01*
X0475465Y0395491D01*
X0475305Y0395479D01*
X0475144Y0395471D01*
X0474983Y0395467D01*
X0474823Y0395467D01*
X0474662Y0395471D01*
X0474501Y0395479D01*
X0474341Y0395491D01*
X0474181Y0395507D01*
X0474021Y0395527D01*
X0473862Y0395551D01*
X0473704Y0395579D01*
X0473546Y0395610D01*
X0473390Y0395646D01*
X0473234Y0395685D01*
X0473079Y0395728D01*
X0472925Y0395775D01*
X0472772Y0395826D01*
X0472621Y0395881D01*
X0472471Y0395939D01*
X0472323Y0396001D01*
X0472176Y0396067D01*
X0472031Y0396136D01*
X0471888Y0396209D01*
X0471746Y0396285D01*
X0471607Y0396365D01*
X0471469Y0396448D01*
X0471334Y0396535D01*
X0471200Y0396625D01*
X0471069Y0396718D01*
X0470941Y0396814D01*
X0470815Y0396914D01*
X0470691Y0397017D01*
X0470570Y0397122D01*
X0470451Y0397231D01*
X0470335Y0397342D01*
X0470222Y0397457D01*
X0470112Y0397574D01*
X0470005Y0397694D01*
X0469901Y0397816D01*
X0469800Y0397941D01*
X0469702Y0398069D01*
X0469607Y0398199D01*
X0469515Y0398331D01*
X0469427Y0398465D01*
X0469342Y0398602D01*
X0469260Y0398740D01*
X0469182Y0398881D01*
X0469108Y0399023D01*
X0469037Y0399167D01*
X0468969Y0399313D01*
X0468906Y0399461D01*
X0468845Y0399610D01*
X0468789Y0399761D01*
X0468736Y0399913D01*
X0468687Y0400066D01*
X0468642Y0400220D01*
X0468601Y0400375D01*
X0468563Y0400532D01*
X0468530Y0400689D01*
X0468500Y0400847D01*
X0468474Y0401006D01*
X0468453Y0401165D01*
X0468435Y0401325D01*
X0468421Y0401485D01*
X0468411Y0401646D01*
X0468405Y0401806D01*
X0468403Y0401967D01*
X0483908Y0430358D02*
X0483910Y0430506D01*
X0483916Y0430654D01*
X0483926Y0430802D01*
X0483940Y0430949D01*
X0483958Y0431096D01*
X0483979Y0431242D01*
X0484005Y0431388D01*
X0484035Y0431533D01*
X0484068Y0431677D01*
X0484106Y0431820D01*
X0484147Y0431962D01*
X0484192Y0432103D01*
X0484240Y0432243D01*
X0484293Y0432382D01*
X0484349Y0432519D01*
X0484409Y0432654D01*
X0484472Y0432788D01*
X0484539Y0432920D01*
X0484610Y0433050D01*
X0484684Y0433178D01*
X0484761Y0433304D01*
X0484842Y0433428D01*
X0484926Y0433550D01*
X0485013Y0433669D01*
X0485104Y0433786D01*
X0485198Y0433901D01*
X0485294Y0434013D01*
X0485394Y0434123D01*
X0485496Y0434229D01*
X0485602Y0434333D01*
X0485710Y0434434D01*
X0485821Y0434532D01*
X0485934Y0434628D01*
X0486050Y0434720D01*
X0486168Y0434809D01*
X0486289Y0434894D01*
X0486412Y0434977D01*
X0486537Y0435056D01*
X0486664Y0435132D01*
X0486793Y0435204D01*
X0486924Y0435273D01*
X0487057Y0435338D01*
X0487192Y0435399D01*
X0487328Y0435457D01*
X0487465Y0435512D01*
X0487604Y0435562D01*
X0487745Y0435609D01*
X0487886Y0435652D01*
X0488029Y0435692D01*
X0488173Y0435727D01*
X0488317Y0435759D01*
X0488463Y0435786D01*
X0488609Y0435810D01*
X0488756Y0435830D01*
X0488903Y0435846D01*
X0489050Y0435858D01*
X0489198Y0435866D01*
X0489346Y0435870D01*
X0489494Y0435870D01*
X0489642Y0435866D01*
X0489790Y0435858D01*
X0489937Y0435846D01*
X0490084Y0435830D01*
X0490231Y0435810D01*
X0490377Y0435786D01*
X0490523Y0435759D01*
X0490667Y0435727D01*
X0490811Y0435692D01*
X0490954Y0435652D01*
X0491095Y0435609D01*
X0491236Y0435562D01*
X0491375Y0435512D01*
X0491512Y0435457D01*
X0491648Y0435399D01*
X0491783Y0435338D01*
X0491916Y0435273D01*
X0492047Y0435204D01*
X0492176Y0435132D01*
X0492303Y0435056D01*
X0492428Y0434977D01*
X0492551Y0434894D01*
X0492672Y0434809D01*
X0492790Y0434720D01*
X0492906Y0434628D01*
X0493019Y0434532D01*
X0493130Y0434434D01*
X0493238Y0434333D01*
X0493344Y0434229D01*
X0493446Y0434123D01*
X0493546Y0434013D01*
X0493642Y0433901D01*
X0493736Y0433786D01*
X0493827Y0433669D01*
X0493914Y0433550D01*
X0493998Y0433428D01*
X0494079Y0433304D01*
X0494156Y0433178D01*
X0494230Y0433050D01*
X0494301Y0432920D01*
X0494368Y0432788D01*
X0494431Y0432654D01*
X0494491Y0432519D01*
X0494547Y0432382D01*
X0494600Y0432243D01*
X0494648Y0432103D01*
X0494693Y0431962D01*
X0494734Y0431820D01*
X0494772Y0431677D01*
X0494805Y0431533D01*
X0494835Y0431388D01*
X0494861Y0431242D01*
X0494882Y0431096D01*
X0494900Y0430949D01*
X0494914Y0430802D01*
X0494924Y0430654D01*
X0494930Y0430506D01*
X0494932Y0430358D01*
X0494930Y0430210D01*
X0494924Y0430062D01*
X0494914Y0429914D01*
X0494900Y0429767D01*
X0494882Y0429620D01*
X0494861Y0429474D01*
X0494835Y0429328D01*
X0494805Y0429183D01*
X0494772Y0429039D01*
X0494734Y0428896D01*
X0494693Y0428754D01*
X0494648Y0428613D01*
X0494600Y0428473D01*
X0494547Y0428334D01*
X0494491Y0428197D01*
X0494431Y0428062D01*
X0494368Y0427928D01*
X0494301Y0427796D01*
X0494230Y0427666D01*
X0494156Y0427538D01*
X0494079Y0427412D01*
X0493998Y0427288D01*
X0493914Y0427166D01*
X0493827Y0427047D01*
X0493736Y0426930D01*
X0493642Y0426815D01*
X0493546Y0426703D01*
X0493446Y0426593D01*
X0493344Y0426487D01*
X0493238Y0426383D01*
X0493130Y0426282D01*
X0493019Y0426184D01*
X0492906Y0426088D01*
X0492790Y0425996D01*
X0492672Y0425907D01*
X0492551Y0425822D01*
X0492428Y0425739D01*
X0492303Y0425660D01*
X0492176Y0425584D01*
X0492047Y0425512D01*
X0491916Y0425443D01*
X0491783Y0425378D01*
X0491648Y0425317D01*
X0491512Y0425259D01*
X0491375Y0425204D01*
X0491236Y0425154D01*
X0491095Y0425107D01*
X0490954Y0425064D01*
X0490811Y0425024D01*
X0490667Y0424989D01*
X0490523Y0424957D01*
X0490377Y0424930D01*
X0490231Y0424906D01*
X0490084Y0424886D01*
X0489937Y0424870D01*
X0489790Y0424858D01*
X0489642Y0424850D01*
X0489494Y0424846D01*
X0489346Y0424846D01*
X0489198Y0424850D01*
X0489050Y0424858D01*
X0488903Y0424870D01*
X0488756Y0424886D01*
X0488609Y0424906D01*
X0488463Y0424930D01*
X0488317Y0424957D01*
X0488173Y0424989D01*
X0488029Y0425024D01*
X0487886Y0425064D01*
X0487745Y0425107D01*
X0487604Y0425154D01*
X0487465Y0425204D01*
X0487328Y0425259D01*
X0487192Y0425317D01*
X0487057Y0425378D01*
X0486924Y0425443D01*
X0486793Y0425512D01*
X0486664Y0425584D01*
X0486537Y0425660D01*
X0486412Y0425739D01*
X0486289Y0425822D01*
X0486168Y0425907D01*
X0486050Y0425996D01*
X0485934Y0426088D01*
X0485821Y0426184D01*
X0485710Y0426282D01*
X0485602Y0426383D01*
X0485496Y0426487D01*
X0485394Y0426593D01*
X0485294Y0426703D01*
X0485198Y0426815D01*
X0485104Y0426930D01*
X0485013Y0427047D01*
X0484926Y0427166D01*
X0484842Y0427288D01*
X0484761Y0427412D01*
X0484684Y0427538D01*
X0484610Y0427666D01*
X0484539Y0427796D01*
X0484472Y0427928D01*
X0484409Y0428062D01*
X0484349Y0428197D01*
X0484293Y0428334D01*
X0484240Y0428473D01*
X0484192Y0428613D01*
X0484147Y0428754D01*
X0484106Y0428896D01*
X0484068Y0429039D01*
X0484035Y0429183D01*
X0484005Y0429328D01*
X0483979Y0429474D01*
X0483958Y0429620D01*
X0483940Y0429767D01*
X0483926Y0429914D01*
X0483916Y0430062D01*
X0483910Y0430210D01*
X0483908Y0430358D01*
X0483908Y0253193D02*
X0483910Y0253341D01*
X0483916Y0253489D01*
X0483926Y0253637D01*
X0483940Y0253784D01*
X0483958Y0253931D01*
X0483979Y0254077D01*
X0484005Y0254223D01*
X0484035Y0254368D01*
X0484068Y0254512D01*
X0484106Y0254655D01*
X0484147Y0254797D01*
X0484192Y0254938D01*
X0484240Y0255078D01*
X0484293Y0255217D01*
X0484349Y0255354D01*
X0484409Y0255489D01*
X0484472Y0255623D01*
X0484539Y0255755D01*
X0484610Y0255885D01*
X0484684Y0256013D01*
X0484761Y0256139D01*
X0484842Y0256263D01*
X0484926Y0256385D01*
X0485013Y0256504D01*
X0485104Y0256621D01*
X0485198Y0256736D01*
X0485294Y0256848D01*
X0485394Y0256958D01*
X0485496Y0257064D01*
X0485602Y0257168D01*
X0485710Y0257269D01*
X0485821Y0257367D01*
X0485934Y0257463D01*
X0486050Y0257555D01*
X0486168Y0257644D01*
X0486289Y0257729D01*
X0486412Y0257812D01*
X0486537Y0257891D01*
X0486664Y0257967D01*
X0486793Y0258039D01*
X0486924Y0258108D01*
X0487057Y0258173D01*
X0487192Y0258234D01*
X0487328Y0258292D01*
X0487465Y0258347D01*
X0487604Y0258397D01*
X0487745Y0258444D01*
X0487886Y0258487D01*
X0488029Y0258527D01*
X0488173Y0258562D01*
X0488317Y0258594D01*
X0488463Y0258621D01*
X0488609Y0258645D01*
X0488756Y0258665D01*
X0488903Y0258681D01*
X0489050Y0258693D01*
X0489198Y0258701D01*
X0489346Y0258705D01*
X0489494Y0258705D01*
X0489642Y0258701D01*
X0489790Y0258693D01*
X0489937Y0258681D01*
X0490084Y0258665D01*
X0490231Y0258645D01*
X0490377Y0258621D01*
X0490523Y0258594D01*
X0490667Y0258562D01*
X0490811Y0258527D01*
X0490954Y0258487D01*
X0491095Y0258444D01*
X0491236Y0258397D01*
X0491375Y0258347D01*
X0491512Y0258292D01*
X0491648Y0258234D01*
X0491783Y0258173D01*
X0491916Y0258108D01*
X0492047Y0258039D01*
X0492176Y0257967D01*
X0492303Y0257891D01*
X0492428Y0257812D01*
X0492551Y0257729D01*
X0492672Y0257644D01*
X0492790Y0257555D01*
X0492906Y0257463D01*
X0493019Y0257367D01*
X0493130Y0257269D01*
X0493238Y0257168D01*
X0493344Y0257064D01*
X0493446Y0256958D01*
X0493546Y0256848D01*
X0493642Y0256736D01*
X0493736Y0256621D01*
X0493827Y0256504D01*
X0493914Y0256385D01*
X0493998Y0256263D01*
X0494079Y0256139D01*
X0494156Y0256013D01*
X0494230Y0255885D01*
X0494301Y0255755D01*
X0494368Y0255623D01*
X0494431Y0255489D01*
X0494491Y0255354D01*
X0494547Y0255217D01*
X0494600Y0255078D01*
X0494648Y0254938D01*
X0494693Y0254797D01*
X0494734Y0254655D01*
X0494772Y0254512D01*
X0494805Y0254368D01*
X0494835Y0254223D01*
X0494861Y0254077D01*
X0494882Y0253931D01*
X0494900Y0253784D01*
X0494914Y0253637D01*
X0494924Y0253489D01*
X0494930Y0253341D01*
X0494932Y0253193D01*
X0494930Y0253045D01*
X0494924Y0252897D01*
X0494914Y0252749D01*
X0494900Y0252602D01*
X0494882Y0252455D01*
X0494861Y0252309D01*
X0494835Y0252163D01*
X0494805Y0252018D01*
X0494772Y0251874D01*
X0494734Y0251731D01*
X0494693Y0251589D01*
X0494648Y0251448D01*
X0494600Y0251308D01*
X0494547Y0251169D01*
X0494491Y0251032D01*
X0494431Y0250897D01*
X0494368Y0250763D01*
X0494301Y0250631D01*
X0494230Y0250501D01*
X0494156Y0250373D01*
X0494079Y0250247D01*
X0493998Y0250123D01*
X0493914Y0250001D01*
X0493827Y0249882D01*
X0493736Y0249765D01*
X0493642Y0249650D01*
X0493546Y0249538D01*
X0493446Y0249428D01*
X0493344Y0249322D01*
X0493238Y0249218D01*
X0493130Y0249117D01*
X0493019Y0249019D01*
X0492906Y0248923D01*
X0492790Y0248831D01*
X0492672Y0248742D01*
X0492551Y0248657D01*
X0492428Y0248574D01*
X0492303Y0248495D01*
X0492176Y0248419D01*
X0492047Y0248347D01*
X0491916Y0248278D01*
X0491783Y0248213D01*
X0491648Y0248152D01*
X0491512Y0248094D01*
X0491375Y0248039D01*
X0491236Y0247989D01*
X0491095Y0247942D01*
X0490954Y0247899D01*
X0490811Y0247859D01*
X0490667Y0247824D01*
X0490523Y0247792D01*
X0490377Y0247765D01*
X0490231Y0247741D01*
X0490084Y0247721D01*
X0489937Y0247705D01*
X0489790Y0247693D01*
X0489642Y0247685D01*
X0489494Y0247681D01*
X0489346Y0247681D01*
X0489198Y0247685D01*
X0489050Y0247693D01*
X0488903Y0247705D01*
X0488756Y0247721D01*
X0488609Y0247741D01*
X0488463Y0247765D01*
X0488317Y0247792D01*
X0488173Y0247824D01*
X0488029Y0247859D01*
X0487886Y0247899D01*
X0487745Y0247942D01*
X0487604Y0247989D01*
X0487465Y0248039D01*
X0487328Y0248094D01*
X0487192Y0248152D01*
X0487057Y0248213D01*
X0486924Y0248278D01*
X0486793Y0248347D01*
X0486664Y0248419D01*
X0486537Y0248495D01*
X0486412Y0248574D01*
X0486289Y0248657D01*
X0486168Y0248742D01*
X0486050Y0248831D01*
X0485934Y0248923D01*
X0485821Y0249019D01*
X0485710Y0249117D01*
X0485602Y0249218D01*
X0485496Y0249322D01*
X0485394Y0249428D01*
X0485294Y0249538D01*
X0485198Y0249650D01*
X0485104Y0249765D01*
X0485013Y0249882D01*
X0484926Y0250001D01*
X0484842Y0250123D01*
X0484761Y0250247D01*
X0484684Y0250373D01*
X0484610Y0250501D01*
X0484539Y0250631D01*
X0484472Y0250763D01*
X0484409Y0250897D01*
X0484349Y0251032D01*
X0484293Y0251169D01*
X0484240Y0251308D01*
X0484192Y0251448D01*
X0484147Y0251589D01*
X0484106Y0251731D01*
X0484068Y0251874D01*
X0484035Y0252018D01*
X0484005Y0252163D01*
X0483979Y0252309D01*
X0483958Y0252455D01*
X0483940Y0252602D01*
X0483926Y0252749D01*
X0483916Y0252897D01*
X0483910Y0253045D01*
X0483908Y0253193D01*
X0483908Y0233508D02*
X0483910Y0233656D01*
X0483916Y0233804D01*
X0483926Y0233952D01*
X0483940Y0234099D01*
X0483958Y0234246D01*
X0483979Y0234392D01*
X0484005Y0234538D01*
X0484035Y0234683D01*
X0484068Y0234827D01*
X0484106Y0234970D01*
X0484147Y0235112D01*
X0484192Y0235253D01*
X0484240Y0235393D01*
X0484293Y0235532D01*
X0484349Y0235669D01*
X0484409Y0235804D01*
X0484472Y0235938D01*
X0484539Y0236070D01*
X0484610Y0236200D01*
X0484684Y0236328D01*
X0484761Y0236454D01*
X0484842Y0236578D01*
X0484926Y0236700D01*
X0485013Y0236819D01*
X0485104Y0236936D01*
X0485198Y0237051D01*
X0485294Y0237163D01*
X0485394Y0237273D01*
X0485496Y0237379D01*
X0485602Y0237483D01*
X0485710Y0237584D01*
X0485821Y0237682D01*
X0485934Y0237778D01*
X0486050Y0237870D01*
X0486168Y0237959D01*
X0486289Y0238044D01*
X0486412Y0238127D01*
X0486537Y0238206D01*
X0486664Y0238282D01*
X0486793Y0238354D01*
X0486924Y0238423D01*
X0487057Y0238488D01*
X0487192Y0238549D01*
X0487328Y0238607D01*
X0487465Y0238662D01*
X0487604Y0238712D01*
X0487745Y0238759D01*
X0487886Y0238802D01*
X0488029Y0238842D01*
X0488173Y0238877D01*
X0488317Y0238909D01*
X0488463Y0238936D01*
X0488609Y0238960D01*
X0488756Y0238980D01*
X0488903Y0238996D01*
X0489050Y0239008D01*
X0489198Y0239016D01*
X0489346Y0239020D01*
X0489494Y0239020D01*
X0489642Y0239016D01*
X0489790Y0239008D01*
X0489937Y0238996D01*
X0490084Y0238980D01*
X0490231Y0238960D01*
X0490377Y0238936D01*
X0490523Y0238909D01*
X0490667Y0238877D01*
X0490811Y0238842D01*
X0490954Y0238802D01*
X0491095Y0238759D01*
X0491236Y0238712D01*
X0491375Y0238662D01*
X0491512Y0238607D01*
X0491648Y0238549D01*
X0491783Y0238488D01*
X0491916Y0238423D01*
X0492047Y0238354D01*
X0492176Y0238282D01*
X0492303Y0238206D01*
X0492428Y0238127D01*
X0492551Y0238044D01*
X0492672Y0237959D01*
X0492790Y0237870D01*
X0492906Y0237778D01*
X0493019Y0237682D01*
X0493130Y0237584D01*
X0493238Y0237483D01*
X0493344Y0237379D01*
X0493446Y0237273D01*
X0493546Y0237163D01*
X0493642Y0237051D01*
X0493736Y0236936D01*
X0493827Y0236819D01*
X0493914Y0236700D01*
X0493998Y0236578D01*
X0494079Y0236454D01*
X0494156Y0236328D01*
X0494230Y0236200D01*
X0494301Y0236070D01*
X0494368Y0235938D01*
X0494431Y0235804D01*
X0494491Y0235669D01*
X0494547Y0235532D01*
X0494600Y0235393D01*
X0494648Y0235253D01*
X0494693Y0235112D01*
X0494734Y0234970D01*
X0494772Y0234827D01*
X0494805Y0234683D01*
X0494835Y0234538D01*
X0494861Y0234392D01*
X0494882Y0234246D01*
X0494900Y0234099D01*
X0494914Y0233952D01*
X0494924Y0233804D01*
X0494930Y0233656D01*
X0494932Y0233508D01*
X0494930Y0233360D01*
X0494924Y0233212D01*
X0494914Y0233064D01*
X0494900Y0232917D01*
X0494882Y0232770D01*
X0494861Y0232624D01*
X0494835Y0232478D01*
X0494805Y0232333D01*
X0494772Y0232189D01*
X0494734Y0232046D01*
X0494693Y0231904D01*
X0494648Y0231763D01*
X0494600Y0231623D01*
X0494547Y0231484D01*
X0494491Y0231347D01*
X0494431Y0231212D01*
X0494368Y0231078D01*
X0494301Y0230946D01*
X0494230Y0230816D01*
X0494156Y0230688D01*
X0494079Y0230562D01*
X0493998Y0230438D01*
X0493914Y0230316D01*
X0493827Y0230197D01*
X0493736Y0230080D01*
X0493642Y0229965D01*
X0493546Y0229853D01*
X0493446Y0229743D01*
X0493344Y0229637D01*
X0493238Y0229533D01*
X0493130Y0229432D01*
X0493019Y0229334D01*
X0492906Y0229238D01*
X0492790Y0229146D01*
X0492672Y0229057D01*
X0492551Y0228972D01*
X0492428Y0228889D01*
X0492303Y0228810D01*
X0492176Y0228734D01*
X0492047Y0228662D01*
X0491916Y0228593D01*
X0491783Y0228528D01*
X0491648Y0228467D01*
X0491512Y0228409D01*
X0491375Y0228354D01*
X0491236Y0228304D01*
X0491095Y0228257D01*
X0490954Y0228214D01*
X0490811Y0228174D01*
X0490667Y0228139D01*
X0490523Y0228107D01*
X0490377Y0228080D01*
X0490231Y0228056D01*
X0490084Y0228036D01*
X0489937Y0228020D01*
X0489790Y0228008D01*
X0489642Y0228000D01*
X0489494Y0227996D01*
X0489346Y0227996D01*
X0489198Y0228000D01*
X0489050Y0228008D01*
X0488903Y0228020D01*
X0488756Y0228036D01*
X0488609Y0228056D01*
X0488463Y0228080D01*
X0488317Y0228107D01*
X0488173Y0228139D01*
X0488029Y0228174D01*
X0487886Y0228214D01*
X0487745Y0228257D01*
X0487604Y0228304D01*
X0487465Y0228354D01*
X0487328Y0228409D01*
X0487192Y0228467D01*
X0487057Y0228528D01*
X0486924Y0228593D01*
X0486793Y0228662D01*
X0486664Y0228734D01*
X0486537Y0228810D01*
X0486412Y0228889D01*
X0486289Y0228972D01*
X0486168Y0229057D01*
X0486050Y0229146D01*
X0485934Y0229238D01*
X0485821Y0229334D01*
X0485710Y0229432D01*
X0485602Y0229533D01*
X0485496Y0229637D01*
X0485394Y0229743D01*
X0485294Y0229853D01*
X0485198Y0229965D01*
X0485104Y0230080D01*
X0485013Y0230197D01*
X0484926Y0230316D01*
X0484842Y0230438D01*
X0484761Y0230562D01*
X0484684Y0230688D01*
X0484610Y0230816D01*
X0484539Y0230946D01*
X0484472Y0231078D01*
X0484409Y0231212D01*
X0484349Y0231347D01*
X0484293Y0231484D01*
X0484240Y0231623D01*
X0484192Y0231763D01*
X0484147Y0231904D01*
X0484106Y0232046D01*
X0484068Y0232189D01*
X0484035Y0232333D01*
X0484005Y0232478D01*
X0483979Y0232624D01*
X0483958Y0232770D01*
X0483940Y0232917D01*
X0483926Y0233064D01*
X0483916Y0233212D01*
X0483910Y0233360D01*
X0483908Y0233508D01*
X0468403Y0205116D02*
X0468405Y0205277D01*
X0468411Y0205437D01*
X0468421Y0205598D01*
X0468435Y0205758D01*
X0468453Y0205918D01*
X0468474Y0206077D01*
X0468500Y0206236D01*
X0468530Y0206394D01*
X0468563Y0206551D01*
X0468601Y0206708D01*
X0468642Y0206863D01*
X0468687Y0207017D01*
X0468736Y0207170D01*
X0468789Y0207322D01*
X0468845Y0207473D01*
X0468906Y0207622D01*
X0468969Y0207770D01*
X0469037Y0207916D01*
X0469108Y0208060D01*
X0469182Y0208202D01*
X0469260Y0208343D01*
X0469342Y0208481D01*
X0469427Y0208618D01*
X0469515Y0208752D01*
X0469607Y0208884D01*
X0469702Y0209014D01*
X0469800Y0209142D01*
X0469901Y0209267D01*
X0470005Y0209389D01*
X0470112Y0209509D01*
X0470222Y0209626D01*
X0470335Y0209741D01*
X0470451Y0209852D01*
X0470570Y0209961D01*
X0470691Y0210066D01*
X0470815Y0210169D01*
X0470941Y0210269D01*
X0471069Y0210365D01*
X0471200Y0210458D01*
X0471334Y0210548D01*
X0471469Y0210635D01*
X0471607Y0210718D01*
X0471746Y0210798D01*
X0471888Y0210874D01*
X0472031Y0210947D01*
X0472176Y0211016D01*
X0472323Y0211082D01*
X0472471Y0211144D01*
X0472621Y0211202D01*
X0472772Y0211257D01*
X0472925Y0211308D01*
X0473079Y0211355D01*
X0473234Y0211398D01*
X0473390Y0211437D01*
X0473546Y0211473D01*
X0473704Y0211504D01*
X0473862Y0211532D01*
X0474021Y0211556D01*
X0474181Y0211576D01*
X0474341Y0211592D01*
X0474501Y0211604D01*
X0474662Y0211612D01*
X0474823Y0211616D01*
X0474983Y0211616D01*
X0475144Y0211612D01*
X0475305Y0211604D01*
X0475465Y0211592D01*
X0475625Y0211576D01*
X0475785Y0211556D01*
X0475944Y0211532D01*
X0476102Y0211504D01*
X0476260Y0211473D01*
X0476416Y0211437D01*
X0476572Y0211398D01*
X0476727Y0211355D01*
X0476881Y0211308D01*
X0477034Y0211257D01*
X0477185Y0211202D01*
X0477335Y0211144D01*
X0477483Y0211082D01*
X0477630Y0211016D01*
X0477775Y0210947D01*
X0477918Y0210874D01*
X0478060Y0210798D01*
X0478199Y0210718D01*
X0478337Y0210635D01*
X0478472Y0210548D01*
X0478606Y0210458D01*
X0478737Y0210365D01*
X0478865Y0210269D01*
X0478991Y0210169D01*
X0479115Y0210066D01*
X0479236Y0209961D01*
X0479355Y0209852D01*
X0479471Y0209741D01*
X0479584Y0209626D01*
X0479694Y0209509D01*
X0479801Y0209389D01*
X0479905Y0209267D01*
X0480006Y0209142D01*
X0480104Y0209014D01*
X0480199Y0208884D01*
X0480291Y0208752D01*
X0480379Y0208618D01*
X0480464Y0208481D01*
X0480546Y0208343D01*
X0480624Y0208202D01*
X0480698Y0208060D01*
X0480769Y0207916D01*
X0480837Y0207770D01*
X0480900Y0207622D01*
X0480961Y0207473D01*
X0481017Y0207322D01*
X0481070Y0207170D01*
X0481119Y0207017D01*
X0481164Y0206863D01*
X0481205Y0206708D01*
X0481243Y0206551D01*
X0481276Y0206394D01*
X0481306Y0206236D01*
X0481332Y0206077D01*
X0481353Y0205918D01*
X0481371Y0205758D01*
X0481385Y0205598D01*
X0481395Y0205437D01*
X0481401Y0205277D01*
X0481403Y0205116D01*
X0481401Y0204955D01*
X0481395Y0204795D01*
X0481385Y0204634D01*
X0481371Y0204474D01*
X0481353Y0204314D01*
X0481332Y0204155D01*
X0481306Y0203996D01*
X0481276Y0203838D01*
X0481243Y0203681D01*
X0481205Y0203524D01*
X0481164Y0203369D01*
X0481119Y0203215D01*
X0481070Y0203062D01*
X0481017Y0202910D01*
X0480961Y0202759D01*
X0480900Y0202610D01*
X0480837Y0202462D01*
X0480769Y0202316D01*
X0480698Y0202172D01*
X0480624Y0202030D01*
X0480546Y0201889D01*
X0480464Y0201751D01*
X0480379Y0201614D01*
X0480291Y0201480D01*
X0480199Y0201348D01*
X0480104Y0201218D01*
X0480006Y0201090D01*
X0479905Y0200965D01*
X0479801Y0200843D01*
X0479694Y0200723D01*
X0479584Y0200606D01*
X0479471Y0200491D01*
X0479355Y0200380D01*
X0479236Y0200271D01*
X0479115Y0200166D01*
X0478991Y0200063D01*
X0478865Y0199963D01*
X0478737Y0199867D01*
X0478606Y0199774D01*
X0478472Y0199684D01*
X0478337Y0199597D01*
X0478199Y0199514D01*
X0478060Y0199434D01*
X0477918Y0199358D01*
X0477775Y0199285D01*
X0477630Y0199216D01*
X0477483Y0199150D01*
X0477335Y0199088D01*
X0477185Y0199030D01*
X0477034Y0198975D01*
X0476881Y0198924D01*
X0476727Y0198877D01*
X0476572Y0198834D01*
X0476416Y0198795D01*
X0476260Y0198759D01*
X0476102Y0198728D01*
X0475944Y0198700D01*
X0475785Y0198676D01*
X0475625Y0198656D01*
X0475465Y0198640D01*
X0475305Y0198628D01*
X0475144Y0198620D01*
X0474983Y0198616D01*
X0474823Y0198616D01*
X0474662Y0198620D01*
X0474501Y0198628D01*
X0474341Y0198640D01*
X0474181Y0198656D01*
X0474021Y0198676D01*
X0473862Y0198700D01*
X0473704Y0198728D01*
X0473546Y0198759D01*
X0473390Y0198795D01*
X0473234Y0198834D01*
X0473079Y0198877D01*
X0472925Y0198924D01*
X0472772Y0198975D01*
X0472621Y0199030D01*
X0472471Y0199088D01*
X0472323Y0199150D01*
X0472176Y0199216D01*
X0472031Y0199285D01*
X0471888Y0199358D01*
X0471746Y0199434D01*
X0471607Y0199514D01*
X0471469Y0199597D01*
X0471334Y0199684D01*
X0471200Y0199774D01*
X0471069Y0199867D01*
X0470941Y0199963D01*
X0470815Y0200063D01*
X0470691Y0200166D01*
X0470570Y0200271D01*
X0470451Y0200380D01*
X0470335Y0200491D01*
X0470222Y0200606D01*
X0470112Y0200723D01*
X0470005Y0200843D01*
X0469901Y0200965D01*
X0469800Y0201090D01*
X0469702Y0201218D01*
X0469607Y0201348D01*
X0469515Y0201480D01*
X0469427Y0201614D01*
X0469342Y0201751D01*
X0469260Y0201889D01*
X0469182Y0202030D01*
X0469108Y0202172D01*
X0469037Y0202316D01*
X0468969Y0202462D01*
X0468906Y0202610D01*
X0468845Y0202759D01*
X0468789Y0202910D01*
X0468736Y0203062D01*
X0468687Y0203215D01*
X0468642Y0203369D01*
X0468601Y0203524D01*
X0468563Y0203681D01*
X0468530Y0203838D01*
X0468500Y0203996D01*
X0468474Y0204155D01*
X0468453Y0204314D01*
X0468435Y0204474D01*
X0468421Y0204634D01*
X0468411Y0204795D01*
X0468405Y0204955D01*
X0468403Y0205116D01*
X0419230Y0192045D02*
X0419232Y0192206D01*
X0419238Y0192366D01*
X0419248Y0192527D01*
X0419262Y0192687D01*
X0419280Y0192847D01*
X0419301Y0193006D01*
X0419327Y0193165D01*
X0419357Y0193323D01*
X0419390Y0193480D01*
X0419428Y0193637D01*
X0419469Y0193792D01*
X0419514Y0193946D01*
X0419563Y0194099D01*
X0419616Y0194251D01*
X0419672Y0194402D01*
X0419733Y0194551D01*
X0419796Y0194699D01*
X0419864Y0194845D01*
X0419935Y0194989D01*
X0420009Y0195131D01*
X0420087Y0195272D01*
X0420169Y0195410D01*
X0420254Y0195547D01*
X0420342Y0195681D01*
X0420434Y0195813D01*
X0420529Y0195943D01*
X0420627Y0196071D01*
X0420728Y0196196D01*
X0420832Y0196318D01*
X0420939Y0196438D01*
X0421049Y0196555D01*
X0421162Y0196670D01*
X0421278Y0196781D01*
X0421397Y0196890D01*
X0421518Y0196995D01*
X0421642Y0197098D01*
X0421768Y0197198D01*
X0421896Y0197294D01*
X0422027Y0197387D01*
X0422161Y0197477D01*
X0422296Y0197564D01*
X0422434Y0197647D01*
X0422573Y0197727D01*
X0422715Y0197803D01*
X0422858Y0197876D01*
X0423003Y0197945D01*
X0423150Y0198011D01*
X0423298Y0198073D01*
X0423448Y0198131D01*
X0423599Y0198186D01*
X0423752Y0198237D01*
X0423906Y0198284D01*
X0424061Y0198327D01*
X0424217Y0198366D01*
X0424373Y0198402D01*
X0424531Y0198433D01*
X0424689Y0198461D01*
X0424848Y0198485D01*
X0425008Y0198505D01*
X0425168Y0198521D01*
X0425328Y0198533D01*
X0425489Y0198541D01*
X0425650Y0198545D01*
X0425810Y0198545D01*
X0425971Y0198541D01*
X0426132Y0198533D01*
X0426292Y0198521D01*
X0426452Y0198505D01*
X0426612Y0198485D01*
X0426771Y0198461D01*
X0426929Y0198433D01*
X0427087Y0198402D01*
X0427243Y0198366D01*
X0427399Y0198327D01*
X0427554Y0198284D01*
X0427708Y0198237D01*
X0427861Y0198186D01*
X0428012Y0198131D01*
X0428162Y0198073D01*
X0428310Y0198011D01*
X0428457Y0197945D01*
X0428602Y0197876D01*
X0428745Y0197803D01*
X0428887Y0197727D01*
X0429026Y0197647D01*
X0429164Y0197564D01*
X0429299Y0197477D01*
X0429433Y0197387D01*
X0429564Y0197294D01*
X0429692Y0197198D01*
X0429818Y0197098D01*
X0429942Y0196995D01*
X0430063Y0196890D01*
X0430182Y0196781D01*
X0430298Y0196670D01*
X0430411Y0196555D01*
X0430521Y0196438D01*
X0430628Y0196318D01*
X0430732Y0196196D01*
X0430833Y0196071D01*
X0430931Y0195943D01*
X0431026Y0195813D01*
X0431118Y0195681D01*
X0431206Y0195547D01*
X0431291Y0195410D01*
X0431373Y0195272D01*
X0431451Y0195131D01*
X0431525Y0194989D01*
X0431596Y0194845D01*
X0431664Y0194699D01*
X0431727Y0194551D01*
X0431788Y0194402D01*
X0431844Y0194251D01*
X0431897Y0194099D01*
X0431946Y0193946D01*
X0431991Y0193792D01*
X0432032Y0193637D01*
X0432070Y0193480D01*
X0432103Y0193323D01*
X0432133Y0193165D01*
X0432159Y0193006D01*
X0432180Y0192847D01*
X0432198Y0192687D01*
X0432212Y0192527D01*
X0432222Y0192366D01*
X0432228Y0192206D01*
X0432230Y0192045D01*
X0432228Y0191884D01*
X0432222Y0191724D01*
X0432212Y0191563D01*
X0432198Y0191403D01*
X0432180Y0191243D01*
X0432159Y0191084D01*
X0432133Y0190925D01*
X0432103Y0190767D01*
X0432070Y0190610D01*
X0432032Y0190453D01*
X0431991Y0190298D01*
X0431946Y0190144D01*
X0431897Y0189991D01*
X0431844Y0189839D01*
X0431788Y0189688D01*
X0431727Y0189539D01*
X0431664Y0189391D01*
X0431596Y0189245D01*
X0431525Y0189101D01*
X0431451Y0188959D01*
X0431373Y0188818D01*
X0431291Y0188680D01*
X0431206Y0188543D01*
X0431118Y0188409D01*
X0431026Y0188277D01*
X0430931Y0188147D01*
X0430833Y0188019D01*
X0430732Y0187894D01*
X0430628Y0187772D01*
X0430521Y0187652D01*
X0430411Y0187535D01*
X0430298Y0187420D01*
X0430182Y0187309D01*
X0430063Y0187200D01*
X0429942Y0187095D01*
X0429818Y0186992D01*
X0429692Y0186892D01*
X0429564Y0186796D01*
X0429433Y0186703D01*
X0429299Y0186613D01*
X0429164Y0186526D01*
X0429026Y0186443D01*
X0428887Y0186363D01*
X0428745Y0186287D01*
X0428602Y0186214D01*
X0428457Y0186145D01*
X0428310Y0186079D01*
X0428162Y0186017D01*
X0428012Y0185959D01*
X0427861Y0185904D01*
X0427708Y0185853D01*
X0427554Y0185806D01*
X0427399Y0185763D01*
X0427243Y0185724D01*
X0427087Y0185688D01*
X0426929Y0185657D01*
X0426771Y0185629D01*
X0426612Y0185605D01*
X0426452Y0185585D01*
X0426292Y0185569D01*
X0426132Y0185557D01*
X0425971Y0185549D01*
X0425810Y0185545D01*
X0425650Y0185545D01*
X0425489Y0185549D01*
X0425328Y0185557D01*
X0425168Y0185569D01*
X0425008Y0185585D01*
X0424848Y0185605D01*
X0424689Y0185629D01*
X0424531Y0185657D01*
X0424373Y0185688D01*
X0424217Y0185724D01*
X0424061Y0185763D01*
X0423906Y0185806D01*
X0423752Y0185853D01*
X0423599Y0185904D01*
X0423448Y0185959D01*
X0423298Y0186017D01*
X0423150Y0186079D01*
X0423003Y0186145D01*
X0422858Y0186214D01*
X0422715Y0186287D01*
X0422573Y0186363D01*
X0422434Y0186443D01*
X0422296Y0186526D01*
X0422161Y0186613D01*
X0422027Y0186703D01*
X0421896Y0186796D01*
X0421768Y0186892D01*
X0421642Y0186992D01*
X0421518Y0187095D01*
X0421397Y0187200D01*
X0421278Y0187309D01*
X0421162Y0187420D01*
X0421049Y0187535D01*
X0420939Y0187652D01*
X0420832Y0187772D01*
X0420728Y0187894D01*
X0420627Y0188019D01*
X0420529Y0188147D01*
X0420434Y0188277D01*
X0420342Y0188409D01*
X0420254Y0188543D01*
X0420169Y0188680D01*
X0420087Y0188818D01*
X0420009Y0188959D01*
X0419935Y0189101D01*
X0419864Y0189245D01*
X0419796Y0189391D01*
X0419733Y0189539D01*
X0419672Y0189688D01*
X0419616Y0189839D01*
X0419563Y0189991D01*
X0419514Y0190144D01*
X0419469Y0190298D01*
X0419428Y0190453D01*
X0419390Y0190610D01*
X0419357Y0190767D01*
X0419327Y0190925D01*
X0419301Y0191084D01*
X0419280Y0191243D01*
X0419262Y0191403D01*
X0419248Y0191563D01*
X0419238Y0191724D01*
X0419232Y0191884D01*
X0419230Y0192045D01*
X0373029Y0192439D02*
X0373031Y0192600D01*
X0373037Y0192760D01*
X0373047Y0192921D01*
X0373061Y0193081D01*
X0373079Y0193241D01*
X0373100Y0193400D01*
X0373126Y0193559D01*
X0373156Y0193717D01*
X0373189Y0193874D01*
X0373227Y0194031D01*
X0373268Y0194186D01*
X0373313Y0194340D01*
X0373362Y0194493D01*
X0373415Y0194645D01*
X0373471Y0194796D01*
X0373532Y0194945D01*
X0373595Y0195093D01*
X0373663Y0195239D01*
X0373734Y0195383D01*
X0373808Y0195525D01*
X0373886Y0195666D01*
X0373968Y0195804D01*
X0374053Y0195941D01*
X0374141Y0196075D01*
X0374233Y0196207D01*
X0374328Y0196337D01*
X0374426Y0196465D01*
X0374527Y0196590D01*
X0374631Y0196712D01*
X0374738Y0196832D01*
X0374848Y0196949D01*
X0374961Y0197064D01*
X0375077Y0197175D01*
X0375196Y0197284D01*
X0375317Y0197389D01*
X0375441Y0197492D01*
X0375567Y0197592D01*
X0375695Y0197688D01*
X0375826Y0197781D01*
X0375960Y0197871D01*
X0376095Y0197958D01*
X0376233Y0198041D01*
X0376372Y0198121D01*
X0376514Y0198197D01*
X0376657Y0198270D01*
X0376802Y0198339D01*
X0376949Y0198405D01*
X0377097Y0198467D01*
X0377247Y0198525D01*
X0377398Y0198580D01*
X0377551Y0198631D01*
X0377705Y0198678D01*
X0377860Y0198721D01*
X0378016Y0198760D01*
X0378172Y0198796D01*
X0378330Y0198827D01*
X0378488Y0198855D01*
X0378647Y0198879D01*
X0378807Y0198899D01*
X0378967Y0198915D01*
X0379127Y0198927D01*
X0379288Y0198935D01*
X0379449Y0198939D01*
X0379609Y0198939D01*
X0379770Y0198935D01*
X0379931Y0198927D01*
X0380091Y0198915D01*
X0380251Y0198899D01*
X0380411Y0198879D01*
X0380570Y0198855D01*
X0380728Y0198827D01*
X0380886Y0198796D01*
X0381042Y0198760D01*
X0381198Y0198721D01*
X0381353Y0198678D01*
X0381507Y0198631D01*
X0381660Y0198580D01*
X0381811Y0198525D01*
X0381961Y0198467D01*
X0382109Y0198405D01*
X0382256Y0198339D01*
X0382401Y0198270D01*
X0382544Y0198197D01*
X0382686Y0198121D01*
X0382825Y0198041D01*
X0382963Y0197958D01*
X0383098Y0197871D01*
X0383232Y0197781D01*
X0383363Y0197688D01*
X0383491Y0197592D01*
X0383617Y0197492D01*
X0383741Y0197389D01*
X0383862Y0197284D01*
X0383981Y0197175D01*
X0384097Y0197064D01*
X0384210Y0196949D01*
X0384320Y0196832D01*
X0384427Y0196712D01*
X0384531Y0196590D01*
X0384632Y0196465D01*
X0384730Y0196337D01*
X0384825Y0196207D01*
X0384917Y0196075D01*
X0385005Y0195941D01*
X0385090Y0195804D01*
X0385172Y0195666D01*
X0385250Y0195525D01*
X0385324Y0195383D01*
X0385395Y0195239D01*
X0385463Y0195093D01*
X0385526Y0194945D01*
X0385587Y0194796D01*
X0385643Y0194645D01*
X0385696Y0194493D01*
X0385745Y0194340D01*
X0385790Y0194186D01*
X0385831Y0194031D01*
X0385869Y0193874D01*
X0385902Y0193717D01*
X0385932Y0193559D01*
X0385958Y0193400D01*
X0385979Y0193241D01*
X0385997Y0193081D01*
X0386011Y0192921D01*
X0386021Y0192760D01*
X0386027Y0192600D01*
X0386029Y0192439D01*
X0386027Y0192278D01*
X0386021Y0192118D01*
X0386011Y0191957D01*
X0385997Y0191797D01*
X0385979Y0191637D01*
X0385958Y0191478D01*
X0385932Y0191319D01*
X0385902Y0191161D01*
X0385869Y0191004D01*
X0385831Y0190847D01*
X0385790Y0190692D01*
X0385745Y0190538D01*
X0385696Y0190385D01*
X0385643Y0190233D01*
X0385587Y0190082D01*
X0385526Y0189933D01*
X0385463Y0189785D01*
X0385395Y0189639D01*
X0385324Y0189495D01*
X0385250Y0189353D01*
X0385172Y0189212D01*
X0385090Y0189074D01*
X0385005Y0188937D01*
X0384917Y0188803D01*
X0384825Y0188671D01*
X0384730Y0188541D01*
X0384632Y0188413D01*
X0384531Y0188288D01*
X0384427Y0188166D01*
X0384320Y0188046D01*
X0384210Y0187929D01*
X0384097Y0187814D01*
X0383981Y0187703D01*
X0383862Y0187594D01*
X0383741Y0187489D01*
X0383617Y0187386D01*
X0383491Y0187286D01*
X0383363Y0187190D01*
X0383232Y0187097D01*
X0383098Y0187007D01*
X0382963Y0186920D01*
X0382825Y0186837D01*
X0382686Y0186757D01*
X0382544Y0186681D01*
X0382401Y0186608D01*
X0382256Y0186539D01*
X0382109Y0186473D01*
X0381961Y0186411D01*
X0381811Y0186353D01*
X0381660Y0186298D01*
X0381507Y0186247D01*
X0381353Y0186200D01*
X0381198Y0186157D01*
X0381042Y0186118D01*
X0380886Y0186082D01*
X0380728Y0186051D01*
X0380570Y0186023D01*
X0380411Y0185999D01*
X0380251Y0185979D01*
X0380091Y0185963D01*
X0379931Y0185951D01*
X0379770Y0185943D01*
X0379609Y0185939D01*
X0379449Y0185939D01*
X0379288Y0185943D01*
X0379127Y0185951D01*
X0378967Y0185963D01*
X0378807Y0185979D01*
X0378647Y0185999D01*
X0378488Y0186023D01*
X0378330Y0186051D01*
X0378172Y0186082D01*
X0378016Y0186118D01*
X0377860Y0186157D01*
X0377705Y0186200D01*
X0377551Y0186247D01*
X0377398Y0186298D01*
X0377247Y0186353D01*
X0377097Y0186411D01*
X0376949Y0186473D01*
X0376802Y0186539D01*
X0376657Y0186608D01*
X0376514Y0186681D01*
X0376372Y0186757D01*
X0376233Y0186837D01*
X0376095Y0186920D01*
X0375960Y0187007D01*
X0375826Y0187097D01*
X0375695Y0187190D01*
X0375567Y0187286D01*
X0375441Y0187386D01*
X0375317Y0187489D01*
X0375196Y0187594D01*
X0375077Y0187703D01*
X0374961Y0187814D01*
X0374848Y0187929D01*
X0374738Y0188046D01*
X0374631Y0188166D01*
X0374527Y0188288D01*
X0374426Y0188413D01*
X0374328Y0188541D01*
X0374233Y0188671D01*
X0374141Y0188803D01*
X0374053Y0188937D01*
X0373968Y0189074D01*
X0373886Y0189212D01*
X0373808Y0189353D01*
X0373734Y0189495D01*
X0373663Y0189639D01*
X0373595Y0189785D01*
X0373532Y0189933D01*
X0373471Y0190082D01*
X0373415Y0190233D01*
X0373362Y0190385D01*
X0373313Y0190538D01*
X0373268Y0190692D01*
X0373227Y0190847D01*
X0373189Y0191004D01*
X0373156Y0191161D01*
X0373126Y0191319D01*
X0373100Y0191478D01*
X0373079Y0191637D01*
X0373061Y0191797D01*
X0373047Y0191957D01*
X0373037Y0192118D01*
X0373031Y0192278D01*
X0373029Y0192439D01*
X0325253Y0206041D02*
X0325255Y0206202D01*
X0325261Y0206362D01*
X0325271Y0206523D01*
X0325285Y0206683D01*
X0325303Y0206843D01*
X0325324Y0207002D01*
X0325350Y0207161D01*
X0325380Y0207319D01*
X0325413Y0207476D01*
X0325451Y0207633D01*
X0325492Y0207788D01*
X0325537Y0207942D01*
X0325586Y0208095D01*
X0325639Y0208247D01*
X0325695Y0208398D01*
X0325756Y0208547D01*
X0325819Y0208695D01*
X0325887Y0208841D01*
X0325958Y0208985D01*
X0326032Y0209127D01*
X0326110Y0209268D01*
X0326192Y0209406D01*
X0326277Y0209543D01*
X0326365Y0209677D01*
X0326457Y0209809D01*
X0326552Y0209939D01*
X0326650Y0210067D01*
X0326751Y0210192D01*
X0326855Y0210314D01*
X0326962Y0210434D01*
X0327072Y0210551D01*
X0327185Y0210666D01*
X0327301Y0210777D01*
X0327420Y0210886D01*
X0327541Y0210991D01*
X0327665Y0211094D01*
X0327791Y0211194D01*
X0327919Y0211290D01*
X0328050Y0211383D01*
X0328184Y0211473D01*
X0328319Y0211560D01*
X0328457Y0211643D01*
X0328596Y0211723D01*
X0328738Y0211799D01*
X0328881Y0211872D01*
X0329026Y0211941D01*
X0329173Y0212007D01*
X0329321Y0212069D01*
X0329471Y0212127D01*
X0329622Y0212182D01*
X0329775Y0212233D01*
X0329929Y0212280D01*
X0330084Y0212323D01*
X0330240Y0212362D01*
X0330396Y0212398D01*
X0330554Y0212429D01*
X0330712Y0212457D01*
X0330871Y0212481D01*
X0331031Y0212501D01*
X0331191Y0212517D01*
X0331351Y0212529D01*
X0331512Y0212537D01*
X0331673Y0212541D01*
X0331833Y0212541D01*
X0331994Y0212537D01*
X0332155Y0212529D01*
X0332315Y0212517D01*
X0332475Y0212501D01*
X0332635Y0212481D01*
X0332794Y0212457D01*
X0332952Y0212429D01*
X0333110Y0212398D01*
X0333266Y0212362D01*
X0333422Y0212323D01*
X0333577Y0212280D01*
X0333731Y0212233D01*
X0333884Y0212182D01*
X0334035Y0212127D01*
X0334185Y0212069D01*
X0334333Y0212007D01*
X0334480Y0211941D01*
X0334625Y0211872D01*
X0334768Y0211799D01*
X0334910Y0211723D01*
X0335049Y0211643D01*
X0335187Y0211560D01*
X0335322Y0211473D01*
X0335456Y0211383D01*
X0335587Y0211290D01*
X0335715Y0211194D01*
X0335841Y0211094D01*
X0335965Y0210991D01*
X0336086Y0210886D01*
X0336205Y0210777D01*
X0336321Y0210666D01*
X0336434Y0210551D01*
X0336544Y0210434D01*
X0336651Y0210314D01*
X0336755Y0210192D01*
X0336856Y0210067D01*
X0336954Y0209939D01*
X0337049Y0209809D01*
X0337141Y0209677D01*
X0337229Y0209543D01*
X0337314Y0209406D01*
X0337396Y0209268D01*
X0337474Y0209127D01*
X0337548Y0208985D01*
X0337619Y0208841D01*
X0337687Y0208695D01*
X0337750Y0208547D01*
X0337811Y0208398D01*
X0337867Y0208247D01*
X0337920Y0208095D01*
X0337969Y0207942D01*
X0338014Y0207788D01*
X0338055Y0207633D01*
X0338093Y0207476D01*
X0338126Y0207319D01*
X0338156Y0207161D01*
X0338182Y0207002D01*
X0338203Y0206843D01*
X0338221Y0206683D01*
X0338235Y0206523D01*
X0338245Y0206362D01*
X0338251Y0206202D01*
X0338253Y0206041D01*
X0338251Y0205880D01*
X0338245Y0205720D01*
X0338235Y0205559D01*
X0338221Y0205399D01*
X0338203Y0205239D01*
X0338182Y0205080D01*
X0338156Y0204921D01*
X0338126Y0204763D01*
X0338093Y0204606D01*
X0338055Y0204449D01*
X0338014Y0204294D01*
X0337969Y0204140D01*
X0337920Y0203987D01*
X0337867Y0203835D01*
X0337811Y0203684D01*
X0337750Y0203535D01*
X0337687Y0203387D01*
X0337619Y0203241D01*
X0337548Y0203097D01*
X0337474Y0202955D01*
X0337396Y0202814D01*
X0337314Y0202676D01*
X0337229Y0202539D01*
X0337141Y0202405D01*
X0337049Y0202273D01*
X0336954Y0202143D01*
X0336856Y0202015D01*
X0336755Y0201890D01*
X0336651Y0201768D01*
X0336544Y0201648D01*
X0336434Y0201531D01*
X0336321Y0201416D01*
X0336205Y0201305D01*
X0336086Y0201196D01*
X0335965Y0201091D01*
X0335841Y0200988D01*
X0335715Y0200888D01*
X0335587Y0200792D01*
X0335456Y0200699D01*
X0335322Y0200609D01*
X0335187Y0200522D01*
X0335049Y0200439D01*
X0334910Y0200359D01*
X0334768Y0200283D01*
X0334625Y0200210D01*
X0334480Y0200141D01*
X0334333Y0200075D01*
X0334185Y0200013D01*
X0334035Y0199955D01*
X0333884Y0199900D01*
X0333731Y0199849D01*
X0333577Y0199802D01*
X0333422Y0199759D01*
X0333266Y0199720D01*
X0333110Y0199684D01*
X0332952Y0199653D01*
X0332794Y0199625D01*
X0332635Y0199601D01*
X0332475Y0199581D01*
X0332315Y0199565D01*
X0332155Y0199553D01*
X0331994Y0199545D01*
X0331833Y0199541D01*
X0331673Y0199541D01*
X0331512Y0199545D01*
X0331351Y0199553D01*
X0331191Y0199565D01*
X0331031Y0199581D01*
X0330871Y0199601D01*
X0330712Y0199625D01*
X0330554Y0199653D01*
X0330396Y0199684D01*
X0330240Y0199720D01*
X0330084Y0199759D01*
X0329929Y0199802D01*
X0329775Y0199849D01*
X0329622Y0199900D01*
X0329471Y0199955D01*
X0329321Y0200013D01*
X0329173Y0200075D01*
X0329026Y0200141D01*
X0328881Y0200210D01*
X0328738Y0200283D01*
X0328596Y0200359D01*
X0328457Y0200439D01*
X0328319Y0200522D01*
X0328184Y0200609D01*
X0328050Y0200699D01*
X0327919Y0200792D01*
X0327791Y0200888D01*
X0327665Y0200988D01*
X0327541Y0201091D01*
X0327420Y0201196D01*
X0327301Y0201305D01*
X0327185Y0201416D01*
X0327072Y0201531D01*
X0326962Y0201648D01*
X0326855Y0201768D01*
X0326751Y0201890D01*
X0326650Y0202015D01*
X0326552Y0202143D01*
X0326457Y0202273D01*
X0326365Y0202405D01*
X0326277Y0202539D01*
X0326192Y0202676D01*
X0326110Y0202814D01*
X0326032Y0202955D01*
X0325958Y0203097D01*
X0325887Y0203241D01*
X0325819Y0203387D01*
X0325756Y0203535D01*
X0325695Y0203684D01*
X0325639Y0203835D01*
X0325586Y0203987D01*
X0325537Y0204140D01*
X0325492Y0204294D01*
X0325451Y0204449D01*
X0325413Y0204606D01*
X0325380Y0204763D01*
X0325350Y0204921D01*
X0325324Y0205080D01*
X0325303Y0205239D01*
X0325285Y0205399D01*
X0325271Y0205559D01*
X0325261Y0205720D01*
X0325255Y0205880D01*
X0325253Y0206041D01*
X0306743Y0233508D02*
X0306745Y0233656D01*
X0306751Y0233804D01*
X0306761Y0233952D01*
X0306775Y0234099D01*
X0306793Y0234246D01*
X0306814Y0234392D01*
X0306840Y0234538D01*
X0306870Y0234683D01*
X0306903Y0234827D01*
X0306941Y0234970D01*
X0306982Y0235112D01*
X0307027Y0235253D01*
X0307075Y0235393D01*
X0307128Y0235532D01*
X0307184Y0235669D01*
X0307244Y0235804D01*
X0307307Y0235938D01*
X0307374Y0236070D01*
X0307445Y0236200D01*
X0307519Y0236328D01*
X0307596Y0236454D01*
X0307677Y0236578D01*
X0307761Y0236700D01*
X0307848Y0236819D01*
X0307939Y0236936D01*
X0308033Y0237051D01*
X0308129Y0237163D01*
X0308229Y0237273D01*
X0308331Y0237379D01*
X0308437Y0237483D01*
X0308545Y0237584D01*
X0308656Y0237682D01*
X0308769Y0237778D01*
X0308885Y0237870D01*
X0309003Y0237959D01*
X0309124Y0238044D01*
X0309247Y0238127D01*
X0309372Y0238206D01*
X0309499Y0238282D01*
X0309628Y0238354D01*
X0309759Y0238423D01*
X0309892Y0238488D01*
X0310027Y0238549D01*
X0310163Y0238607D01*
X0310300Y0238662D01*
X0310439Y0238712D01*
X0310580Y0238759D01*
X0310721Y0238802D01*
X0310864Y0238842D01*
X0311008Y0238877D01*
X0311152Y0238909D01*
X0311298Y0238936D01*
X0311444Y0238960D01*
X0311591Y0238980D01*
X0311738Y0238996D01*
X0311885Y0239008D01*
X0312033Y0239016D01*
X0312181Y0239020D01*
X0312329Y0239020D01*
X0312477Y0239016D01*
X0312625Y0239008D01*
X0312772Y0238996D01*
X0312919Y0238980D01*
X0313066Y0238960D01*
X0313212Y0238936D01*
X0313358Y0238909D01*
X0313502Y0238877D01*
X0313646Y0238842D01*
X0313789Y0238802D01*
X0313930Y0238759D01*
X0314071Y0238712D01*
X0314210Y0238662D01*
X0314347Y0238607D01*
X0314483Y0238549D01*
X0314618Y0238488D01*
X0314751Y0238423D01*
X0314882Y0238354D01*
X0315011Y0238282D01*
X0315138Y0238206D01*
X0315263Y0238127D01*
X0315386Y0238044D01*
X0315507Y0237959D01*
X0315625Y0237870D01*
X0315741Y0237778D01*
X0315854Y0237682D01*
X0315965Y0237584D01*
X0316073Y0237483D01*
X0316179Y0237379D01*
X0316281Y0237273D01*
X0316381Y0237163D01*
X0316477Y0237051D01*
X0316571Y0236936D01*
X0316662Y0236819D01*
X0316749Y0236700D01*
X0316833Y0236578D01*
X0316914Y0236454D01*
X0316991Y0236328D01*
X0317065Y0236200D01*
X0317136Y0236070D01*
X0317203Y0235938D01*
X0317266Y0235804D01*
X0317326Y0235669D01*
X0317382Y0235532D01*
X0317435Y0235393D01*
X0317483Y0235253D01*
X0317528Y0235112D01*
X0317569Y0234970D01*
X0317607Y0234827D01*
X0317640Y0234683D01*
X0317670Y0234538D01*
X0317696Y0234392D01*
X0317717Y0234246D01*
X0317735Y0234099D01*
X0317749Y0233952D01*
X0317759Y0233804D01*
X0317765Y0233656D01*
X0317767Y0233508D01*
X0317765Y0233360D01*
X0317759Y0233212D01*
X0317749Y0233064D01*
X0317735Y0232917D01*
X0317717Y0232770D01*
X0317696Y0232624D01*
X0317670Y0232478D01*
X0317640Y0232333D01*
X0317607Y0232189D01*
X0317569Y0232046D01*
X0317528Y0231904D01*
X0317483Y0231763D01*
X0317435Y0231623D01*
X0317382Y0231484D01*
X0317326Y0231347D01*
X0317266Y0231212D01*
X0317203Y0231078D01*
X0317136Y0230946D01*
X0317065Y0230816D01*
X0316991Y0230688D01*
X0316914Y0230562D01*
X0316833Y0230438D01*
X0316749Y0230316D01*
X0316662Y0230197D01*
X0316571Y0230080D01*
X0316477Y0229965D01*
X0316381Y0229853D01*
X0316281Y0229743D01*
X0316179Y0229637D01*
X0316073Y0229533D01*
X0315965Y0229432D01*
X0315854Y0229334D01*
X0315741Y0229238D01*
X0315625Y0229146D01*
X0315507Y0229057D01*
X0315386Y0228972D01*
X0315263Y0228889D01*
X0315138Y0228810D01*
X0315011Y0228734D01*
X0314882Y0228662D01*
X0314751Y0228593D01*
X0314618Y0228528D01*
X0314483Y0228467D01*
X0314347Y0228409D01*
X0314210Y0228354D01*
X0314071Y0228304D01*
X0313930Y0228257D01*
X0313789Y0228214D01*
X0313646Y0228174D01*
X0313502Y0228139D01*
X0313358Y0228107D01*
X0313212Y0228080D01*
X0313066Y0228056D01*
X0312919Y0228036D01*
X0312772Y0228020D01*
X0312625Y0228008D01*
X0312477Y0228000D01*
X0312329Y0227996D01*
X0312181Y0227996D01*
X0312033Y0228000D01*
X0311885Y0228008D01*
X0311738Y0228020D01*
X0311591Y0228036D01*
X0311444Y0228056D01*
X0311298Y0228080D01*
X0311152Y0228107D01*
X0311008Y0228139D01*
X0310864Y0228174D01*
X0310721Y0228214D01*
X0310580Y0228257D01*
X0310439Y0228304D01*
X0310300Y0228354D01*
X0310163Y0228409D01*
X0310027Y0228467D01*
X0309892Y0228528D01*
X0309759Y0228593D01*
X0309628Y0228662D01*
X0309499Y0228734D01*
X0309372Y0228810D01*
X0309247Y0228889D01*
X0309124Y0228972D01*
X0309003Y0229057D01*
X0308885Y0229146D01*
X0308769Y0229238D01*
X0308656Y0229334D01*
X0308545Y0229432D01*
X0308437Y0229533D01*
X0308331Y0229637D01*
X0308229Y0229743D01*
X0308129Y0229853D01*
X0308033Y0229965D01*
X0307939Y0230080D01*
X0307848Y0230197D01*
X0307761Y0230316D01*
X0307677Y0230438D01*
X0307596Y0230562D01*
X0307519Y0230688D01*
X0307445Y0230816D01*
X0307374Y0230946D01*
X0307307Y0231078D01*
X0307244Y0231212D01*
X0307184Y0231347D01*
X0307128Y0231484D01*
X0307075Y0231623D01*
X0307027Y0231763D01*
X0306982Y0231904D01*
X0306941Y0232046D01*
X0306903Y0232189D01*
X0306870Y0232333D01*
X0306840Y0232478D01*
X0306814Y0232624D01*
X0306793Y0232770D01*
X0306775Y0232917D01*
X0306761Y0233064D01*
X0306751Y0233212D01*
X0306745Y0233360D01*
X0306743Y0233508D01*
X0287058Y0233508D02*
X0287060Y0233656D01*
X0287066Y0233804D01*
X0287076Y0233952D01*
X0287090Y0234099D01*
X0287108Y0234246D01*
X0287129Y0234392D01*
X0287155Y0234538D01*
X0287185Y0234683D01*
X0287218Y0234827D01*
X0287256Y0234970D01*
X0287297Y0235112D01*
X0287342Y0235253D01*
X0287390Y0235393D01*
X0287443Y0235532D01*
X0287499Y0235669D01*
X0287559Y0235804D01*
X0287622Y0235938D01*
X0287689Y0236070D01*
X0287760Y0236200D01*
X0287834Y0236328D01*
X0287911Y0236454D01*
X0287992Y0236578D01*
X0288076Y0236700D01*
X0288163Y0236819D01*
X0288254Y0236936D01*
X0288348Y0237051D01*
X0288444Y0237163D01*
X0288544Y0237273D01*
X0288646Y0237379D01*
X0288752Y0237483D01*
X0288860Y0237584D01*
X0288971Y0237682D01*
X0289084Y0237778D01*
X0289200Y0237870D01*
X0289318Y0237959D01*
X0289439Y0238044D01*
X0289562Y0238127D01*
X0289687Y0238206D01*
X0289814Y0238282D01*
X0289943Y0238354D01*
X0290074Y0238423D01*
X0290207Y0238488D01*
X0290342Y0238549D01*
X0290478Y0238607D01*
X0290615Y0238662D01*
X0290754Y0238712D01*
X0290895Y0238759D01*
X0291036Y0238802D01*
X0291179Y0238842D01*
X0291323Y0238877D01*
X0291467Y0238909D01*
X0291613Y0238936D01*
X0291759Y0238960D01*
X0291906Y0238980D01*
X0292053Y0238996D01*
X0292200Y0239008D01*
X0292348Y0239016D01*
X0292496Y0239020D01*
X0292644Y0239020D01*
X0292792Y0239016D01*
X0292940Y0239008D01*
X0293087Y0238996D01*
X0293234Y0238980D01*
X0293381Y0238960D01*
X0293527Y0238936D01*
X0293673Y0238909D01*
X0293817Y0238877D01*
X0293961Y0238842D01*
X0294104Y0238802D01*
X0294245Y0238759D01*
X0294386Y0238712D01*
X0294525Y0238662D01*
X0294662Y0238607D01*
X0294798Y0238549D01*
X0294933Y0238488D01*
X0295066Y0238423D01*
X0295197Y0238354D01*
X0295326Y0238282D01*
X0295453Y0238206D01*
X0295578Y0238127D01*
X0295701Y0238044D01*
X0295822Y0237959D01*
X0295940Y0237870D01*
X0296056Y0237778D01*
X0296169Y0237682D01*
X0296280Y0237584D01*
X0296388Y0237483D01*
X0296494Y0237379D01*
X0296596Y0237273D01*
X0296696Y0237163D01*
X0296792Y0237051D01*
X0296886Y0236936D01*
X0296977Y0236819D01*
X0297064Y0236700D01*
X0297148Y0236578D01*
X0297229Y0236454D01*
X0297306Y0236328D01*
X0297380Y0236200D01*
X0297451Y0236070D01*
X0297518Y0235938D01*
X0297581Y0235804D01*
X0297641Y0235669D01*
X0297697Y0235532D01*
X0297750Y0235393D01*
X0297798Y0235253D01*
X0297843Y0235112D01*
X0297884Y0234970D01*
X0297922Y0234827D01*
X0297955Y0234683D01*
X0297985Y0234538D01*
X0298011Y0234392D01*
X0298032Y0234246D01*
X0298050Y0234099D01*
X0298064Y0233952D01*
X0298074Y0233804D01*
X0298080Y0233656D01*
X0298082Y0233508D01*
X0298080Y0233360D01*
X0298074Y0233212D01*
X0298064Y0233064D01*
X0298050Y0232917D01*
X0298032Y0232770D01*
X0298011Y0232624D01*
X0297985Y0232478D01*
X0297955Y0232333D01*
X0297922Y0232189D01*
X0297884Y0232046D01*
X0297843Y0231904D01*
X0297798Y0231763D01*
X0297750Y0231623D01*
X0297697Y0231484D01*
X0297641Y0231347D01*
X0297581Y0231212D01*
X0297518Y0231078D01*
X0297451Y0230946D01*
X0297380Y0230816D01*
X0297306Y0230688D01*
X0297229Y0230562D01*
X0297148Y0230438D01*
X0297064Y0230316D01*
X0296977Y0230197D01*
X0296886Y0230080D01*
X0296792Y0229965D01*
X0296696Y0229853D01*
X0296596Y0229743D01*
X0296494Y0229637D01*
X0296388Y0229533D01*
X0296280Y0229432D01*
X0296169Y0229334D01*
X0296056Y0229238D01*
X0295940Y0229146D01*
X0295822Y0229057D01*
X0295701Y0228972D01*
X0295578Y0228889D01*
X0295453Y0228810D01*
X0295326Y0228734D01*
X0295197Y0228662D01*
X0295066Y0228593D01*
X0294933Y0228528D01*
X0294798Y0228467D01*
X0294662Y0228409D01*
X0294525Y0228354D01*
X0294386Y0228304D01*
X0294245Y0228257D01*
X0294104Y0228214D01*
X0293961Y0228174D01*
X0293817Y0228139D01*
X0293673Y0228107D01*
X0293527Y0228080D01*
X0293381Y0228056D01*
X0293234Y0228036D01*
X0293087Y0228020D01*
X0292940Y0228008D01*
X0292792Y0228000D01*
X0292644Y0227996D01*
X0292496Y0227996D01*
X0292348Y0228000D01*
X0292200Y0228008D01*
X0292053Y0228020D01*
X0291906Y0228036D01*
X0291759Y0228056D01*
X0291613Y0228080D01*
X0291467Y0228107D01*
X0291323Y0228139D01*
X0291179Y0228174D01*
X0291036Y0228214D01*
X0290895Y0228257D01*
X0290754Y0228304D01*
X0290615Y0228354D01*
X0290478Y0228409D01*
X0290342Y0228467D01*
X0290207Y0228528D01*
X0290074Y0228593D01*
X0289943Y0228662D01*
X0289814Y0228734D01*
X0289687Y0228810D01*
X0289562Y0228889D01*
X0289439Y0228972D01*
X0289318Y0229057D01*
X0289200Y0229146D01*
X0289084Y0229238D01*
X0288971Y0229334D01*
X0288860Y0229432D01*
X0288752Y0229533D01*
X0288646Y0229637D01*
X0288544Y0229743D01*
X0288444Y0229853D01*
X0288348Y0229965D01*
X0288254Y0230080D01*
X0288163Y0230197D01*
X0288076Y0230316D01*
X0287992Y0230438D01*
X0287911Y0230562D01*
X0287834Y0230688D01*
X0287760Y0230816D01*
X0287689Y0230946D01*
X0287622Y0231078D01*
X0287559Y0231212D01*
X0287499Y0231347D01*
X0287443Y0231484D01*
X0287390Y0231623D01*
X0287342Y0231763D01*
X0287297Y0231904D01*
X0287256Y0232046D01*
X0287218Y0232189D01*
X0287185Y0232333D01*
X0287155Y0232478D01*
X0287129Y0232624D01*
X0287108Y0232770D01*
X0287090Y0232917D01*
X0287076Y0233064D01*
X0287066Y0233212D01*
X0287060Y0233360D01*
X0287058Y0233508D01*
X0287058Y0253193D02*
X0287060Y0253341D01*
X0287066Y0253489D01*
X0287076Y0253637D01*
X0287090Y0253784D01*
X0287108Y0253931D01*
X0287129Y0254077D01*
X0287155Y0254223D01*
X0287185Y0254368D01*
X0287218Y0254512D01*
X0287256Y0254655D01*
X0287297Y0254797D01*
X0287342Y0254938D01*
X0287390Y0255078D01*
X0287443Y0255217D01*
X0287499Y0255354D01*
X0287559Y0255489D01*
X0287622Y0255623D01*
X0287689Y0255755D01*
X0287760Y0255885D01*
X0287834Y0256013D01*
X0287911Y0256139D01*
X0287992Y0256263D01*
X0288076Y0256385D01*
X0288163Y0256504D01*
X0288254Y0256621D01*
X0288348Y0256736D01*
X0288444Y0256848D01*
X0288544Y0256958D01*
X0288646Y0257064D01*
X0288752Y0257168D01*
X0288860Y0257269D01*
X0288971Y0257367D01*
X0289084Y0257463D01*
X0289200Y0257555D01*
X0289318Y0257644D01*
X0289439Y0257729D01*
X0289562Y0257812D01*
X0289687Y0257891D01*
X0289814Y0257967D01*
X0289943Y0258039D01*
X0290074Y0258108D01*
X0290207Y0258173D01*
X0290342Y0258234D01*
X0290478Y0258292D01*
X0290615Y0258347D01*
X0290754Y0258397D01*
X0290895Y0258444D01*
X0291036Y0258487D01*
X0291179Y0258527D01*
X0291323Y0258562D01*
X0291467Y0258594D01*
X0291613Y0258621D01*
X0291759Y0258645D01*
X0291906Y0258665D01*
X0292053Y0258681D01*
X0292200Y0258693D01*
X0292348Y0258701D01*
X0292496Y0258705D01*
X0292644Y0258705D01*
X0292792Y0258701D01*
X0292940Y0258693D01*
X0293087Y0258681D01*
X0293234Y0258665D01*
X0293381Y0258645D01*
X0293527Y0258621D01*
X0293673Y0258594D01*
X0293817Y0258562D01*
X0293961Y0258527D01*
X0294104Y0258487D01*
X0294245Y0258444D01*
X0294386Y0258397D01*
X0294525Y0258347D01*
X0294662Y0258292D01*
X0294798Y0258234D01*
X0294933Y0258173D01*
X0295066Y0258108D01*
X0295197Y0258039D01*
X0295326Y0257967D01*
X0295453Y0257891D01*
X0295578Y0257812D01*
X0295701Y0257729D01*
X0295822Y0257644D01*
X0295940Y0257555D01*
X0296056Y0257463D01*
X0296169Y0257367D01*
X0296280Y0257269D01*
X0296388Y0257168D01*
X0296494Y0257064D01*
X0296596Y0256958D01*
X0296696Y0256848D01*
X0296792Y0256736D01*
X0296886Y0256621D01*
X0296977Y0256504D01*
X0297064Y0256385D01*
X0297148Y0256263D01*
X0297229Y0256139D01*
X0297306Y0256013D01*
X0297380Y0255885D01*
X0297451Y0255755D01*
X0297518Y0255623D01*
X0297581Y0255489D01*
X0297641Y0255354D01*
X0297697Y0255217D01*
X0297750Y0255078D01*
X0297798Y0254938D01*
X0297843Y0254797D01*
X0297884Y0254655D01*
X0297922Y0254512D01*
X0297955Y0254368D01*
X0297985Y0254223D01*
X0298011Y0254077D01*
X0298032Y0253931D01*
X0298050Y0253784D01*
X0298064Y0253637D01*
X0298074Y0253489D01*
X0298080Y0253341D01*
X0298082Y0253193D01*
X0298080Y0253045D01*
X0298074Y0252897D01*
X0298064Y0252749D01*
X0298050Y0252602D01*
X0298032Y0252455D01*
X0298011Y0252309D01*
X0297985Y0252163D01*
X0297955Y0252018D01*
X0297922Y0251874D01*
X0297884Y0251731D01*
X0297843Y0251589D01*
X0297798Y0251448D01*
X0297750Y0251308D01*
X0297697Y0251169D01*
X0297641Y0251032D01*
X0297581Y0250897D01*
X0297518Y0250763D01*
X0297451Y0250631D01*
X0297380Y0250501D01*
X0297306Y0250373D01*
X0297229Y0250247D01*
X0297148Y0250123D01*
X0297064Y0250001D01*
X0296977Y0249882D01*
X0296886Y0249765D01*
X0296792Y0249650D01*
X0296696Y0249538D01*
X0296596Y0249428D01*
X0296494Y0249322D01*
X0296388Y0249218D01*
X0296280Y0249117D01*
X0296169Y0249019D01*
X0296056Y0248923D01*
X0295940Y0248831D01*
X0295822Y0248742D01*
X0295701Y0248657D01*
X0295578Y0248574D01*
X0295453Y0248495D01*
X0295326Y0248419D01*
X0295197Y0248347D01*
X0295066Y0248278D01*
X0294933Y0248213D01*
X0294798Y0248152D01*
X0294662Y0248094D01*
X0294525Y0248039D01*
X0294386Y0247989D01*
X0294245Y0247942D01*
X0294104Y0247899D01*
X0293961Y0247859D01*
X0293817Y0247824D01*
X0293673Y0247792D01*
X0293527Y0247765D01*
X0293381Y0247741D01*
X0293234Y0247721D01*
X0293087Y0247705D01*
X0292940Y0247693D01*
X0292792Y0247685D01*
X0292644Y0247681D01*
X0292496Y0247681D01*
X0292348Y0247685D01*
X0292200Y0247693D01*
X0292053Y0247705D01*
X0291906Y0247721D01*
X0291759Y0247741D01*
X0291613Y0247765D01*
X0291467Y0247792D01*
X0291323Y0247824D01*
X0291179Y0247859D01*
X0291036Y0247899D01*
X0290895Y0247942D01*
X0290754Y0247989D01*
X0290615Y0248039D01*
X0290478Y0248094D01*
X0290342Y0248152D01*
X0290207Y0248213D01*
X0290074Y0248278D01*
X0289943Y0248347D01*
X0289814Y0248419D01*
X0289687Y0248495D01*
X0289562Y0248574D01*
X0289439Y0248657D01*
X0289318Y0248742D01*
X0289200Y0248831D01*
X0289084Y0248923D01*
X0288971Y0249019D01*
X0288860Y0249117D01*
X0288752Y0249218D01*
X0288646Y0249322D01*
X0288544Y0249428D01*
X0288444Y0249538D01*
X0288348Y0249650D01*
X0288254Y0249765D01*
X0288163Y0249882D01*
X0288076Y0250001D01*
X0287992Y0250123D01*
X0287911Y0250247D01*
X0287834Y0250373D01*
X0287760Y0250501D01*
X0287689Y0250631D01*
X0287622Y0250763D01*
X0287559Y0250897D01*
X0287499Y0251032D01*
X0287443Y0251169D01*
X0287390Y0251308D01*
X0287342Y0251448D01*
X0287297Y0251589D01*
X0287256Y0251731D01*
X0287218Y0251874D01*
X0287185Y0252018D01*
X0287155Y0252163D01*
X0287129Y0252309D01*
X0287108Y0252455D01*
X0287090Y0252602D01*
X0287076Y0252749D01*
X0287066Y0252897D01*
X0287060Y0253045D01*
X0287058Y0253193D01*
X0306743Y0253193D02*
X0306745Y0253341D01*
X0306751Y0253489D01*
X0306761Y0253637D01*
X0306775Y0253784D01*
X0306793Y0253931D01*
X0306814Y0254077D01*
X0306840Y0254223D01*
X0306870Y0254368D01*
X0306903Y0254512D01*
X0306941Y0254655D01*
X0306982Y0254797D01*
X0307027Y0254938D01*
X0307075Y0255078D01*
X0307128Y0255217D01*
X0307184Y0255354D01*
X0307244Y0255489D01*
X0307307Y0255623D01*
X0307374Y0255755D01*
X0307445Y0255885D01*
X0307519Y0256013D01*
X0307596Y0256139D01*
X0307677Y0256263D01*
X0307761Y0256385D01*
X0307848Y0256504D01*
X0307939Y0256621D01*
X0308033Y0256736D01*
X0308129Y0256848D01*
X0308229Y0256958D01*
X0308331Y0257064D01*
X0308437Y0257168D01*
X0308545Y0257269D01*
X0308656Y0257367D01*
X0308769Y0257463D01*
X0308885Y0257555D01*
X0309003Y0257644D01*
X0309124Y0257729D01*
X0309247Y0257812D01*
X0309372Y0257891D01*
X0309499Y0257967D01*
X0309628Y0258039D01*
X0309759Y0258108D01*
X0309892Y0258173D01*
X0310027Y0258234D01*
X0310163Y0258292D01*
X0310300Y0258347D01*
X0310439Y0258397D01*
X0310580Y0258444D01*
X0310721Y0258487D01*
X0310864Y0258527D01*
X0311008Y0258562D01*
X0311152Y0258594D01*
X0311298Y0258621D01*
X0311444Y0258645D01*
X0311591Y0258665D01*
X0311738Y0258681D01*
X0311885Y0258693D01*
X0312033Y0258701D01*
X0312181Y0258705D01*
X0312329Y0258705D01*
X0312477Y0258701D01*
X0312625Y0258693D01*
X0312772Y0258681D01*
X0312919Y0258665D01*
X0313066Y0258645D01*
X0313212Y0258621D01*
X0313358Y0258594D01*
X0313502Y0258562D01*
X0313646Y0258527D01*
X0313789Y0258487D01*
X0313930Y0258444D01*
X0314071Y0258397D01*
X0314210Y0258347D01*
X0314347Y0258292D01*
X0314483Y0258234D01*
X0314618Y0258173D01*
X0314751Y0258108D01*
X0314882Y0258039D01*
X0315011Y0257967D01*
X0315138Y0257891D01*
X0315263Y0257812D01*
X0315386Y0257729D01*
X0315507Y0257644D01*
X0315625Y0257555D01*
X0315741Y0257463D01*
X0315854Y0257367D01*
X0315965Y0257269D01*
X0316073Y0257168D01*
X0316179Y0257064D01*
X0316281Y0256958D01*
X0316381Y0256848D01*
X0316477Y0256736D01*
X0316571Y0256621D01*
X0316662Y0256504D01*
X0316749Y0256385D01*
X0316833Y0256263D01*
X0316914Y0256139D01*
X0316991Y0256013D01*
X0317065Y0255885D01*
X0317136Y0255755D01*
X0317203Y0255623D01*
X0317266Y0255489D01*
X0317326Y0255354D01*
X0317382Y0255217D01*
X0317435Y0255078D01*
X0317483Y0254938D01*
X0317528Y0254797D01*
X0317569Y0254655D01*
X0317607Y0254512D01*
X0317640Y0254368D01*
X0317670Y0254223D01*
X0317696Y0254077D01*
X0317717Y0253931D01*
X0317735Y0253784D01*
X0317749Y0253637D01*
X0317759Y0253489D01*
X0317765Y0253341D01*
X0317767Y0253193D01*
X0317765Y0253045D01*
X0317759Y0252897D01*
X0317749Y0252749D01*
X0317735Y0252602D01*
X0317717Y0252455D01*
X0317696Y0252309D01*
X0317670Y0252163D01*
X0317640Y0252018D01*
X0317607Y0251874D01*
X0317569Y0251731D01*
X0317528Y0251589D01*
X0317483Y0251448D01*
X0317435Y0251308D01*
X0317382Y0251169D01*
X0317326Y0251032D01*
X0317266Y0250897D01*
X0317203Y0250763D01*
X0317136Y0250631D01*
X0317065Y0250501D01*
X0316991Y0250373D01*
X0316914Y0250247D01*
X0316833Y0250123D01*
X0316749Y0250001D01*
X0316662Y0249882D01*
X0316571Y0249765D01*
X0316477Y0249650D01*
X0316381Y0249538D01*
X0316281Y0249428D01*
X0316179Y0249322D01*
X0316073Y0249218D01*
X0315965Y0249117D01*
X0315854Y0249019D01*
X0315741Y0248923D01*
X0315625Y0248831D01*
X0315507Y0248742D01*
X0315386Y0248657D01*
X0315263Y0248574D01*
X0315138Y0248495D01*
X0315011Y0248419D01*
X0314882Y0248347D01*
X0314751Y0248278D01*
X0314618Y0248213D01*
X0314483Y0248152D01*
X0314347Y0248094D01*
X0314210Y0248039D01*
X0314071Y0247989D01*
X0313930Y0247942D01*
X0313789Y0247899D01*
X0313646Y0247859D01*
X0313502Y0247824D01*
X0313358Y0247792D01*
X0313212Y0247765D01*
X0313066Y0247741D01*
X0312919Y0247721D01*
X0312772Y0247705D01*
X0312625Y0247693D01*
X0312477Y0247685D01*
X0312329Y0247681D01*
X0312181Y0247681D01*
X0312033Y0247685D01*
X0311885Y0247693D01*
X0311738Y0247705D01*
X0311591Y0247721D01*
X0311444Y0247741D01*
X0311298Y0247765D01*
X0311152Y0247792D01*
X0311008Y0247824D01*
X0310864Y0247859D01*
X0310721Y0247899D01*
X0310580Y0247942D01*
X0310439Y0247989D01*
X0310300Y0248039D01*
X0310163Y0248094D01*
X0310027Y0248152D01*
X0309892Y0248213D01*
X0309759Y0248278D01*
X0309628Y0248347D01*
X0309499Y0248419D01*
X0309372Y0248495D01*
X0309247Y0248574D01*
X0309124Y0248657D01*
X0309003Y0248742D01*
X0308885Y0248831D01*
X0308769Y0248923D01*
X0308656Y0249019D01*
X0308545Y0249117D01*
X0308437Y0249218D01*
X0308331Y0249322D01*
X0308229Y0249428D01*
X0308129Y0249538D01*
X0308033Y0249650D01*
X0307939Y0249765D01*
X0307848Y0249882D01*
X0307761Y0250001D01*
X0307677Y0250123D01*
X0307596Y0250247D01*
X0307519Y0250373D01*
X0307445Y0250501D01*
X0307374Y0250631D01*
X0307307Y0250763D01*
X0307244Y0250897D01*
X0307184Y0251032D01*
X0307128Y0251169D01*
X0307075Y0251308D01*
X0307027Y0251448D01*
X0306982Y0251589D01*
X0306941Y0251731D01*
X0306903Y0251874D01*
X0306870Y0252018D01*
X0306840Y0252163D01*
X0306814Y0252309D01*
X0306793Y0252455D01*
X0306775Y0252602D01*
X0306761Y0252749D01*
X0306751Y0252897D01*
X0306745Y0253045D01*
X0306743Y0253193D01*
X0271552Y0205116D02*
X0271554Y0205277D01*
X0271560Y0205437D01*
X0271570Y0205598D01*
X0271584Y0205758D01*
X0271602Y0205918D01*
X0271623Y0206077D01*
X0271649Y0206236D01*
X0271679Y0206394D01*
X0271712Y0206551D01*
X0271750Y0206708D01*
X0271791Y0206863D01*
X0271836Y0207017D01*
X0271885Y0207170D01*
X0271938Y0207322D01*
X0271994Y0207473D01*
X0272055Y0207622D01*
X0272118Y0207770D01*
X0272186Y0207916D01*
X0272257Y0208060D01*
X0272331Y0208202D01*
X0272409Y0208343D01*
X0272491Y0208481D01*
X0272576Y0208618D01*
X0272664Y0208752D01*
X0272756Y0208884D01*
X0272851Y0209014D01*
X0272949Y0209142D01*
X0273050Y0209267D01*
X0273154Y0209389D01*
X0273261Y0209509D01*
X0273371Y0209626D01*
X0273484Y0209741D01*
X0273600Y0209852D01*
X0273719Y0209961D01*
X0273840Y0210066D01*
X0273964Y0210169D01*
X0274090Y0210269D01*
X0274218Y0210365D01*
X0274349Y0210458D01*
X0274483Y0210548D01*
X0274618Y0210635D01*
X0274756Y0210718D01*
X0274895Y0210798D01*
X0275037Y0210874D01*
X0275180Y0210947D01*
X0275325Y0211016D01*
X0275472Y0211082D01*
X0275620Y0211144D01*
X0275770Y0211202D01*
X0275921Y0211257D01*
X0276074Y0211308D01*
X0276228Y0211355D01*
X0276383Y0211398D01*
X0276539Y0211437D01*
X0276695Y0211473D01*
X0276853Y0211504D01*
X0277011Y0211532D01*
X0277170Y0211556D01*
X0277330Y0211576D01*
X0277490Y0211592D01*
X0277650Y0211604D01*
X0277811Y0211612D01*
X0277972Y0211616D01*
X0278132Y0211616D01*
X0278293Y0211612D01*
X0278454Y0211604D01*
X0278614Y0211592D01*
X0278774Y0211576D01*
X0278934Y0211556D01*
X0279093Y0211532D01*
X0279251Y0211504D01*
X0279409Y0211473D01*
X0279565Y0211437D01*
X0279721Y0211398D01*
X0279876Y0211355D01*
X0280030Y0211308D01*
X0280183Y0211257D01*
X0280334Y0211202D01*
X0280484Y0211144D01*
X0280632Y0211082D01*
X0280779Y0211016D01*
X0280924Y0210947D01*
X0281067Y0210874D01*
X0281209Y0210798D01*
X0281348Y0210718D01*
X0281486Y0210635D01*
X0281621Y0210548D01*
X0281755Y0210458D01*
X0281886Y0210365D01*
X0282014Y0210269D01*
X0282140Y0210169D01*
X0282264Y0210066D01*
X0282385Y0209961D01*
X0282504Y0209852D01*
X0282620Y0209741D01*
X0282733Y0209626D01*
X0282843Y0209509D01*
X0282950Y0209389D01*
X0283054Y0209267D01*
X0283155Y0209142D01*
X0283253Y0209014D01*
X0283348Y0208884D01*
X0283440Y0208752D01*
X0283528Y0208618D01*
X0283613Y0208481D01*
X0283695Y0208343D01*
X0283773Y0208202D01*
X0283847Y0208060D01*
X0283918Y0207916D01*
X0283986Y0207770D01*
X0284049Y0207622D01*
X0284110Y0207473D01*
X0284166Y0207322D01*
X0284219Y0207170D01*
X0284268Y0207017D01*
X0284313Y0206863D01*
X0284354Y0206708D01*
X0284392Y0206551D01*
X0284425Y0206394D01*
X0284455Y0206236D01*
X0284481Y0206077D01*
X0284502Y0205918D01*
X0284520Y0205758D01*
X0284534Y0205598D01*
X0284544Y0205437D01*
X0284550Y0205277D01*
X0284552Y0205116D01*
X0284550Y0204955D01*
X0284544Y0204795D01*
X0284534Y0204634D01*
X0284520Y0204474D01*
X0284502Y0204314D01*
X0284481Y0204155D01*
X0284455Y0203996D01*
X0284425Y0203838D01*
X0284392Y0203681D01*
X0284354Y0203524D01*
X0284313Y0203369D01*
X0284268Y0203215D01*
X0284219Y0203062D01*
X0284166Y0202910D01*
X0284110Y0202759D01*
X0284049Y0202610D01*
X0283986Y0202462D01*
X0283918Y0202316D01*
X0283847Y0202172D01*
X0283773Y0202030D01*
X0283695Y0201889D01*
X0283613Y0201751D01*
X0283528Y0201614D01*
X0283440Y0201480D01*
X0283348Y0201348D01*
X0283253Y0201218D01*
X0283155Y0201090D01*
X0283054Y0200965D01*
X0282950Y0200843D01*
X0282843Y0200723D01*
X0282733Y0200606D01*
X0282620Y0200491D01*
X0282504Y0200380D01*
X0282385Y0200271D01*
X0282264Y0200166D01*
X0282140Y0200063D01*
X0282014Y0199963D01*
X0281886Y0199867D01*
X0281755Y0199774D01*
X0281621Y0199684D01*
X0281486Y0199597D01*
X0281348Y0199514D01*
X0281209Y0199434D01*
X0281067Y0199358D01*
X0280924Y0199285D01*
X0280779Y0199216D01*
X0280632Y0199150D01*
X0280484Y0199088D01*
X0280334Y0199030D01*
X0280183Y0198975D01*
X0280030Y0198924D01*
X0279876Y0198877D01*
X0279721Y0198834D01*
X0279565Y0198795D01*
X0279409Y0198759D01*
X0279251Y0198728D01*
X0279093Y0198700D01*
X0278934Y0198676D01*
X0278774Y0198656D01*
X0278614Y0198640D01*
X0278454Y0198628D01*
X0278293Y0198620D01*
X0278132Y0198616D01*
X0277972Y0198616D01*
X0277811Y0198620D01*
X0277650Y0198628D01*
X0277490Y0198640D01*
X0277330Y0198656D01*
X0277170Y0198676D01*
X0277011Y0198700D01*
X0276853Y0198728D01*
X0276695Y0198759D01*
X0276539Y0198795D01*
X0276383Y0198834D01*
X0276228Y0198877D01*
X0276074Y0198924D01*
X0275921Y0198975D01*
X0275770Y0199030D01*
X0275620Y0199088D01*
X0275472Y0199150D01*
X0275325Y0199216D01*
X0275180Y0199285D01*
X0275037Y0199358D01*
X0274895Y0199434D01*
X0274756Y0199514D01*
X0274618Y0199597D01*
X0274483Y0199684D01*
X0274349Y0199774D01*
X0274218Y0199867D01*
X0274090Y0199963D01*
X0273964Y0200063D01*
X0273840Y0200166D01*
X0273719Y0200271D01*
X0273600Y0200380D01*
X0273484Y0200491D01*
X0273371Y0200606D01*
X0273261Y0200723D01*
X0273154Y0200843D01*
X0273050Y0200965D01*
X0272949Y0201090D01*
X0272851Y0201218D01*
X0272756Y0201348D01*
X0272664Y0201480D01*
X0272576Y0201614D01*
X0272491Y0201751D01*
X0272409Y0201889D01*
X0272331Y0202030D01*
X0272257Y0202172D01*
X0272186Y0202316D01*
X0272118Y0202462D01*
X0272055Y0202610D01*
X0271994Y0202759D01*
X0271938Y0202910D01*
X0271885Y0203062D01*
X0271836Y0203215D01*
X0271791Y0203369D01*
X0271750Y0203524D01*
X0271712Y0203681D01*
X0271679Y0203838D01*
X0271649Y0203996D01*
X0271623Y0204155D01*
X0271602Y0204314D01*
X0271584Y0204474D01*
X0271570Y0204634D01*
X0271560Y0204795D01*
X0271554Y0204955D01*
X0271552Y0205116D01*
X0287058Y0056343D02*
X0287060Y0056491D01*
X0287066Y0056639D01*
X0287076Y0056787D01*
X0287090Y0056934D01*
X0287108Y0057081D01*
X0287129Y0057227D01*
X0287155Y0057373D01*
X0287185Y0057518D01*
X0287218Y0057662D01*
X0287256Y0057805D01*
X0287297Y0057947D01*
X0287342Y0058088D01*
X0287390Y0058228D01*
X0287443Y0058367D01*
X0287499Y0058504D01*
X0287559Y0058639D01*
X0287622Y0058773D01*
X0287689Y0058905D01*
X0287760Y0059035D01*
X0287834Y0059163D01*
X0287911Y0059289D01*
X0287992Y0059413D01*
X0288076Y0059535D01*
X0288163Y0059654D01*
X0288254Y0059771D01*
X0288348Y0059886D01*
X0288444Y0059998D01*
X0288544Y0060108D01*
X0288646Y0060214D01*
X0288752Y0060318D01*
X0288860Y0060419D01*
X0288971Y0060517D01*
X0289084Y0060613D01*
X0289200Y0060705D01*
X0289318Y0060794D01*
X0289439Y0060879D01*
X0289562Y0060962D01*
X0289687Y0061041D01*
X0289814Y0061117D01*
X0289943Y0061189D01*
X0290074Y0061258D01*
X0290207Y0061323D01*
X0290342Y0061384D01*
X0290478Y0061442D01*
X0290615Y0061497D01*
X0290754Y0061547D01*
X0290895Y0061594D01*
X0291036Y0061637D01*
X0291179Y0061677D01*
X0291323Y0061712D01*
X0291467Y0061744D01*
X0291613Y0061771D01*
X0291759Y0061795D01*
X0291906Y0061815D01*
X0292053Y0061831D01*
X0292200Y0061843D01*
X0292348Y0061851D01*
X0292496Y0061855D01*
X0292644Y0061855D01*
X0292792Y0061851D01*
X0292940Y0061843D01*
X0293087Y0061831D01*
X0293234Y0061815D01*
X0293381Y0061795D01*
X0293527Y0061771D01*
X0293673Y0061744D01*
X0293817Y0061712D01*
X0293961Y0061677D01*
X0294104Y0061637D01*
X0294245Y0061594D01*
X0294386Y0061547D01*
X0294525Y0061497D01*
X0294662Y0061442D01*
X0294798Y0061384D01*
X0294933Y0061323D01*
X0295066Y0061258D01*
X0295197Y0061189D01*
X0295326Y0061117D01*
X0295453Y0061041D01*
X0295578Y0060962D01*
X0295701Y0060879D01*
X0295822Y0060794D01*
X0295940Y0060705D01*
X0296056Y0060613D01*
X0296169Y0060517D01*
X0296280Y0060419D01*
X0296388Y0060318D01*
X0296494Y0060214D01*
X0296596Y0060108D01*
X0296696Y0059998D01*
X0296792Y0059886D01*
X0296886Y0059771D01*
X0296977Y0059654D01*
X0297064Y0059535D01*
X0297148Y0059413D01*
X0297229Y0059289D01*
X0297306Y0059163D01*
X0297380Y0059035D01*
X0297451Y0058905D01*
X0297518Y0058773D01*
X0297581Y0058639D01*
X0297641Y0058504D01*
X0297697Y0058367D01*
X0297750Y0058228D01*
X0297798Y0058088D01*
X0297843Y0057947D01*
X0297884Y0057805D01*
X0297922Y0057662D01*
X0297955Y0057518D01*
X0297985Y0057373D01*
X0298011Y0057227D01*
X0298032Y0057081D01*
X0298050Y0056934D01*
X0298064Y0056787D01*
X0298074Y0056639D01*
X0298080Y0056491D01*
X0298082Y0056343D01*
X0298080Y0056195D01*
X0298074Y0056047D01*
X0298064Y0055899D01*
X0298050Y0055752D01*
X0298032Y0055605D01*
X0298011Y0055459D01*
X0297985Y0055313D01*
X0297955Y0055168D01*
X0297922Y0055024D01*
X0297884Y0054881D01*
X0297843Y0054739D01*
X0297798Y0054598D01*
X0297750Y0054458D01*
X0297697Y0054319D01*
X0297641Y0054182D01*
X0297581Y0054047D01*
X0297518Y0053913D01*
X0297451Y0053781D01*
X0297380Y0053651D01*
X0297306Y0053523D01*
X0297229Y0053397D01*
X0297148Y0053273D01*
X0297064Y0053151D01*
X0296977Y0053032D01*
X0296886Y0052915D01*
X0296792Y0052800D01*
X0296696Y0052688D01*
X0296596Y0052578D01*
X0296494Y0052472D01*
X0296388Y0052368D01*
X0296280Y0052267D01*
X0296169Y0052169D01*
X0296056Y0052073D01*
X0295940Y0051981D01*
X0295822Y0051892D01*
X0295701Y0051807D01*
X0295578Y0051724D01*
X0295453Y0051645D01*
X0295326Y0051569D01*
X0295197Y0051497D01*
X0295066Y0051428D01*
X0294933Y0051363D01*
X0294798Y0051302D01*
X0294662Y0051244D01*
X0294525Y0051189D01*
X0294386Y0051139D01*
X0294245Y0051092D01*
X0294104Y0051049D01*
X0293961Y0051009D01*
X0293817Y0050974D01*
X0293673Y0050942D01*
X0293527Y0050915D01*
X0293381Y0050891D01*
X0293234Y0050871D01*
X0293087Y0050855D01*
X0292940Y0050843D01*
X0292792Y0050835D01*
X0292644Y0050831D01*
X0292496Y0050831D01*
X0292348Y0050835D01*
X0292200Y0050843D01*
X0292053Y0050855D01*
X0291906Y0050871D01*
X0291759Y0050891D01*
X0291613Y0050915D01*
X0291467Y0050942D01*
X0291323Y0050974D01*
X0291179Y0051009D01*
X0291036Y0051049D01*
X0290895Y0051092D01*
X0290754Y0051139D01*
X0290615Y0051189D01*
X0290478Y0051244D01*
X0290342Y0051302D01*
X0290207Y0051363D01*
X0290074Y0051428D01*
X0289943Y0051497D01*
X0289814Y0051569D01*
X0289687Y0051645D01*
X0289562Y0051724D01*
X0289439Y0051807D01*
X0289318Y0051892D01*
X0289200Y0051981D01*
X0289084Y0052073D01*
X0288971Y0052169D01*
X0288860Y0052267D01*
X0288752Y0052368D01*
X0288646Y0052472D01*
X0288544Y0052578D01*
X0288444Y0052688D01*
X0288348Y0052800D01*
X0288254Y0052915D01*
X0288163Y0053032D01*
X0288076Y0053151D01*
X0287992Y0053273D01*
X0287911Y0053397D01*
X0287834Y0053523D01*
X0287760Y0053651D01*
X0287689Y0053781D01*
X0287622Y0053913D01*
X0287559Y0054047D01*
X0287499Y0054182D01*
X0287443Y0054319D01*
X0287390Y0054458D01*
X0287342Y0054598D01*
X0287297Y0054739D01*
X0287256Y0054881D01*
X0287218Y0055024D01*
X0287185Y0055168D01*
X0287155Y0055313D01*
X0287129Y0055459D01*
X0287108Y0055605D01*
X0287090Y0055752D01*
X0287076Y0055899D01*
X0287066Y0056047D01*
X0287060Y0056195D01*
X0287058Y0056343D01*
X0306743Y0056343D02*
X0306745Y0056491D01*
X0306751Y0056639D01*
X0306761Y0056787D01*
X0306775Y0056934D01*
X0306793Y0057081D01*
X0306814Y0057227D01*
X0306840Y0057373D01*
X0306870Y0057518D01*
X0306903Y0057662D01*
X0306941Y0057805D01*
X0306982Y0057947D01*
X0307027Y0058088D01*
X0307075Y0058228D01*
X0307128Y0058367D01*
X0307184Y0058504D01*
X0307244Y0058639D01*
X0307307Y0058773D01*
X0307374Y0058905D01*
X0307445Y0059035D01*
X0307519Y0059163D01*
X0307596Y0059289D01*
X0307677Y0059413D01*
X0307761Y0059535D01*
X0307848Y0059654D01*
X0307939Y0059771D01*
X0308033Y0059886D01*
X0308129Y0059998D01*
X0308229Y0060108D01*
X0308331Y0060214D01*
X0308437Y0060318D01*
X0308545Y0060419D01*
X0308656Y0060517D01*
X0308769Y0060613D01*
X0308885Y0060705D01*
X0309003Y0060794D01*
X0309124Y0060879D01*
X0309247Y0060962D01*
X0309372Y0061041D01*
X0309499Y0061117D01*
X0309628Y0061189D01*
X0309759Y0061258D01*
X0309892Y0061323D01*
X0310027Y0061384D01*
X0310163Y0061442D01*
X0310300Y0061497D01*
X0310439Y0061547D01*
X0310580Y0061594D01*
X0310721Y0061637D01*
X0310864Y0061677D01*
X0311008Y0061712D01*
X0311152Y0061744D01*
X0311298Y0061771D01*
X0311444Y0061795D01*
X0311591Y0061815D01*
X0311738Y0061831D01*
X0311885Y0061843D01*
X0312033Y0061851D01*
X0312181Y0061855D01*
X0312329Y0061855D01*
X0312477Y0061851D01*
X0312625Y0061843D01*
X0312772Y0061831D01*
X0312919Y0061815D01*
X0313066Y0061795D01*
X0313212Y0061771D01*
X0313358Y0061744D01*
X0313502Y0061712D01*
X0313646Y0061677D01*
X0313789Y0061637D01*
X0313930Y0061594D01*
X0314071Y0061547D01*
X0314210Y0061497D01*
X0314347Y0061442D01*
X0314483Y0061384D01*
X0314618Y0061323D01*
X0314751Y0061258D01*
X0314882Y0061189D01*
X0315011Y0061117D01*
X0315138Y0061041D01*
X0315263Y0060962D01*
X0315386Y0060879D01*
X0315507Y0060794D01*
X0315625Y0060705D01*
X0315741Y0060613D01*
X0315854Y0060517D01*
X0315965Y0060419D01*
X0316073Y0060318D01*
X0316179Y0060214D01*
X0316281Y0060108D01*
X0316381Y0059998D01*
X0316477Y0059886D01*
X0316571Y0059771D01*
X0316662Y0059654D01*
X0316749Y0059535D01*
X0316833Y0059413D01*
X0316914Y0059289D01*
X0316991Y0059163D01*
X0317065Y0059035D01*
X0317136Y0058905D01*
X0317203Y0058773D01*
X0317266Y0058639D01*
X0317326Y0058504D01*
X0317382Y0058367D01*
X0317435Y0058228D01*
X0317483Y0058088D01*
X0317528Y0057947D01*
X0317569Y0057805D01*
X0317607Y0057662D01*
X0317640Y0057518D01*
X0317670Y0057373D01*
X0317696Y0057227D01*
X0317717Y0057081D01*
X0317735Y0056934D01*
X0317749Y0056787D01*
X0317759Y0056639D01*
X0317765Y0056491D01*
X0317767Y0056343D01*
X0317765Y0056195D01*
X0317759Y0056047D01*
X0317749Y0055899D01*
X0317735Y0055752D01*
X0317717Y0055605D01*
X0317696Y0055459D01*
X0317670Y0055313D01*
X0317640Y0055168D01*
X0317607Y0055024D01*
X0317569Y0054881D01*
X0317528Y0054739D01*
X0317483Y0054598D01*
X0317435Y0054458D01*
X0317382Y0054319D01*
X0317326Y0054182D01*
X0317266Y0054047D01*
X0317203Y0053913D01*
X0317136Y0053781D01*
X0317065Y0053651D01*
X0316991Y0053523D01*
X0316914Y0053397D01*
X0316833Y0053273D01*
X0316749Y0053151D01*
X0316662Y0053032D01*
X0316571Y0052915D01*
X0316477Y0052800D01*
X0316381Y0052688D01*
X0316281Y0052578D01*
X0316179Y0052472D01*
X0316073Y0052368D01*
X0315965Y0052267D01*
X0315854Y0052169D01*
X0315741Y0052073D01*
X0315625Y0051981D01*
X0315507Y0051892D01*
X0315386Y0051807D01*
X0315263Y0051724D01*
X0315138Y0051645D01*
X0315011Y0051569D01*
X0314882Y0051497D01*
X0314751Y0051428D01*
X0314618Y0051363D01*
X0314483Y0051302D01*
X0314347Y0051244D01*
X0314210Y0051189D01*
X0314071Y0051139D01*
X0313930Y0051092D01*
X0313789Y0051049D01*
X0313646Y0051009D01*
X0313502Y0050974D01*
X0313358Y0050942D01*
X0313212Y0050915D01*
X0313066Y0050891D01*
X0312919Y0050871D01*
X0312772Y0050855D01*
X0312625Y0050843D01*
X0312477Y0050835D01*
X0312329Y0050831D01*
X0312181Y0050831D01*
X0312033Y0050835D01*
X0311885Y0050843D01*
X0311738Y0050855D01*
X0311591Y0050871D01*
X0311444Y0050891D01*
X0311298Y0050915D01*
X0311152Y0050942D01*
X0311008Y0050974D01*
X0310864Y0051009D01*
X0310721Y0051049D01*
X0310580Y0051092D01*
X0310439Y0051139D01*
X0310300Y0051189D01*
X0310163Y0051244D01*
X0310027Y0051302D01*
X0309892Y0051363D01*
X0309759Y0051428D01*
X0309628Y0051497D01*
X0309499Y0051569D01*
X0309372Y0051645D01*
X0309247Y0051724D01*
X0309124Y0051807D01*
X0309003Y0051892D01*
X0308885Y0051981D01*
X0308769Y0052073D01*
X0308656Y0052169D01*
X0308545Y0052267D01*
X0308437Y0052368D01*
X0308331Y0052472D01*
X0308229Y0052578D01*
X0308129Y0052688D01*
X0308033Y0052800D01*
X0307939Y0052915D01*
X0307848Y0053032D01*
X0307761Y0053151D01*
X0307677Y0053273D01*
X0307596Y0053397D01*
X0307519Y0053523D01*
X0307445Y0053651D01*
X0307374Y0053781D01*
X0307307Y0053913D01*
X0307244Y0054047D01*
X0307184Y0054182D01*
X0307128Y0054319D01*
X0307075Y0054458D01*
X0307027Y0054598D01*
X0306982Y0054739D01*
X0306941Y0054881D01*
X0306903Y0055024D01*
X0306870Y0055168D01*
X0306840Y0055313D01*
X0306814Y0055459D01*
X0306793Y0055605D01*
X0306775Y0055752D01*
X0306761Y0055899D01*
X0306751Y0056047D01*
X0306745Y0056195D01*
X0306743Y0056343D01*
X0483908Y0056343D02*
X0483910Y0056491D01*
X0483916Y0056639D01*
X0483926Y0056787D01*
X0483940Y0056934D01*
X0483958Y0057081D01*
X0483979Y0057227D01*
X0484005Y0057373D01*
X0484035Y0057518D01*
X0484068Y0057662D01*
X0484106Y0057805D01*
X0484147Y0057947D01*
X0484192Y0058088D01*
X0484240Y0058228D01*
X0484293Y0058367D01*
X0484349Y0058504D01*
X0484409Y0058639D01*
X0484472Y0058773D01*
X0484539Y0058905D01*
X0484610Y0059035D01*
X0484684Y0059163D01*
X0484761Y0059289D01*
X0484842Y0059413D01*
X0484926Y0059535D01*
X0485013Y0059654D01*
X0485104Y0059771D01*
X0485198Y0059886D01*
X0485294Y0059998D01*
X0485394Y0060108D01*
X0485496Y0060214D01*
X0485602Y0060318D01*
X0485710Y0060419D01*
X0485821Y0060517D01*
X0485934Y0060613D01*
X0486050Y0060705D01*
X0486168Y0060794D01*
X0486289Y0060879D01*
X0486412Y0060962D01*
X0486537Y0061041D01*
X0486664Y0061117D01*
X0486793Y0061189D01*
X0486924Y0061258D01*
X0487057Y0061323D01*
X0487192Y0061384D01*
X0487328Y0061442D01*
X0487465Y0061497D01*
X0487604Y0061547D01*
X0487745Y0061594D01*
X0487886Y0061637D01*
X0488029Y0061677D01*
X0488173Y0061712D01*
X0488317Y0061744D01*
X0488463Y0061771D01*
X0488609Y0061795D01*
X0488756Y0061815D01*
X0488903Y0061831D01*
X0489050Y0061843D01*
X0489198Y0061851D01*
X0489346Y0061855D01*
X0489494Y0061855D01*
X0489642Y0061851D01*
X0489790Y0061843D01*
X0489937Y0061831D01*
X0490084Y0061815D01*
X0490231Y0061795D01*
X0490377Y0061771D01*
X0490523Y0061744D01*
X0490667Y0061712D01*
X0490811Y0061677D01*
X0490954Y0061637D01*
X0491095Y0061594D01*
X0491236Y0061547D01*
X0491375Y0061497D01*
X0491512Y0061442D01*
X0491648Y0061384D01*
X0491783Y0061323D01*
X0491916Y0061258D01*
X0492047Y0061189D01*
X0492176Y0061117D01*
X0492303Y0061041D01*
X0492428Y0060962D01*
X0492551Y0060879D01*
X0492672Y0060794D01*
X0492790Y0060705D01*
X0492906Y0060613D01*
X0493019Y0060517D01*
X0493130Y0060419D01*
X0493238Y0060318D01*
X0493344Y0060214D01*
X0493446Y0060108D01*
X0493546Y0059998D01*
X0493642Y0059886D01*
X0493736Y0059771D01*
X0493827Y0059654D01*
X0493914Y0059535D01*
X0493998Y0059413D01*
X0494079Y0059289D01*
X0494156Y0059163D01*
X0494230Y0059035D01*
X0494301Y0058905D01*
X0494368Y0058773D01*
X0494431Y0058639D01*
X0494491Y0058504D01*
X0494547Y0058367D01*
X0494600Y0058228D01*
X0494648Y0058088D01*
X0494693Y0057947D01*
X0494734Y0057805D01*
X0494772Y0057662D01*
X0494805Y0057518D01*
X0494835Y0057373D01*
X0494861Y0057227D01*
X0494882Y0057081D01*
X0494900Y0056934D01*
X0494914Y0056787D01*
X0494924Y0056639D01*
X0494930Y0056491D01*
X0494932Y0056343D01*
X0494930Y0056195D01*
X0494924Y0056047D01*
X0494914Y0055899D01*
X0494900Y0055752D01*
X0494882Y0055605D01*
X0494861Y0055459D01*
X0494835Y0055313D01*
X0494805Y0055168D01*
X0494772Y0055024D01*
X0494734Y0054881D01*
X0494693Y0054739D01*
X0494648Y0054598D01*
X0494600Y0054458D01*
X0494547Y0054319D01*
X0494491Y0054182D01*
X0494431Y0054047D01*
X0494368Y0053913D01*
X0494301Y0053781D01*
X0494230Y0053651D01*
X0494156Y0053523D01*
X0494079Y0053397D01*
X0493998Y0053273D01*
X0493914Y0053151D01*
X0493827Y0053032D01*
X0493736Y0052915D01*
X0493642Y0052800D01*
X0493546Y0052688D01*
X0493446Y0052578D01*
X0493344Y0052472D01*
X0493238Y0052368D01*
X0493130Y0052267D01*
X0493019Y0052169D01*
X0492906Y0052073D01*
X0492790Y0051981D01*
X0492672Y0051892D01*
X0492551Y0051807D01*
X0492428Y0051724D01*
X0492303Y0051645D01*
X0492176Y0051569D01*
X0492047Y0051497D01*
X0491916Y0051428D01*
X0491783Y0051363D01*
X0491648Y0051302D01*
X0491512Y0051244D01*
X0491375Y0051189D01*
X0491236Y0051139D01*
X0491095Y0051092D01*
X0490954Y0051049D01*
X0490811Y0051009D01*
X0490667Y0050974D01*
X0490523Y0050942D01*
X0490377Y0050915D01*
X0490231Y0050891D01*
X0490084Y0050871D01*
X0489937Y0050855D01*
X0489790Y0050843D01*
X0489642Y0050835D01*
X0489494Y0050831D01*
X0489346Y0050831D01*
X0489198Y0050835D01*
X0489050Y0050843D01*
X0488903Y0050855D01*
X0488756Y0050871D01*
X0488609Y0050891D01*
X0488463Y0050915D01*
X0488317Y0050942D01*
X0488173Y0050974D01*
X0488029Y0051009D01*
X0487886Y0051049D01*
X0487745Y0051092D01*
X0487604Y0051139D01*
X0487465Y0051189D01*
X0487328Y0051244D01*
X0487192Y0051302D01*
X0487057Y0051363D01*
X0486924Y0051428D01*
X0486793Y0051497D01*
X0486664Y0051569D01*
X0486537Y0051645D01*
X0486412Y0051724D01*
X0486289Y0051807D01*
X0486168Y0051892D01*
X0486050Y0051981D01*
X0485934Y0052073D01*
X0485821Y0052169D01*
X0485710Y0052267D01*
X0485602Y0052368D01*
X0485496Y0052472D01*
X0485394Y0052578D01*
X0485294Y0052688D01*
X0485198Y0052800D01*
X0485104Y0052915D01*
X0485013Y0053032D01*
X0484926Y0053151D01*
X0484842Y0053273D01*
X0484761Y0053397D01*
X0484684Y0053523D01*
X0484610Y0053651D01*
X0484539Y0053781D01*
X0484472Y0053913D01*
X0484409Y0054047D01*
X0484349Y0054182D01*
X0484293Y0054319D01*
X0484240Y0054458D01*
X0484192Y0054598D01*
X0484147Y0054739D01*
X0484106Y0054881D01*
X0484068Y0055024D01*
X0484035Y0055168D01*
X0484005Y0055313D01*
X0483979Y0055459D01*
X0483958Y0055605D01*
X0483940Y0055752D01*
X0483926Y0055899D01*
X0483916Y0056047D01*
X0483910Y0056195D01*
X0483908Y0056343D01*
D12*
X0489420Y0056343D03*
X0489420Y0233508D03*
X0489420Y0253193D03*
X0489420Y0430358D03*
X0312255Y0430358D03*
X0292570Y0430358D03*
X0292570Y0253193D03*
X0312255Y0253193D03*
X0312255Y0233508D03*
X0292570Y0233508D03*
X0115405Y0233508D03*
X0115405Y0253193D03*
X0115405Y0430358D03*
X0115405Y0056343D03*
X0292570Y0056343D03*
X0312255Y0056343D03*
D13*
X0359056Y0062494D03*
X0344312Y0122337D03*
X0251330Y0123990D03*
X0252068Y0058144D03*
X0162206Y0062494D03*
X0147462Y0122337D03*
X0262619Y0225919D03*
X0252068Y0254994D03*
X0251330Y0320841D03*
X0162206Y0259344D03*
X0147462Y0319187D03*
X0262619Y0422770D03*
X0344312Y0319187D03*
X0359056Y0259344D03*
X0448919Y0254994D03*
X0459470Y0225919D03*
X0448180Y0320841D03*
X0459470Y0422770D03*
X0448180Y0123990D03*
X0448919Y0058144D03*
D14*
X0456793Y0058144D03*
X0456054Y0123990D03*
X0359056Y0054620D03*
X0352186Y0122337D03*
X0259204Y0123990D03*
X0259942Y0058144D03*
X0162206Y0054620D03*
X0155336Y0122337D03*
X0262619Y0233793D03*
X0259942Y0254994D03*
X0259204Y0320841D03*
X0352186Y0319187D03*
X0359056Y0251470D03*
X0456793Y0254994D03*
X0459470Y0233793D03*
X0456054Y0320841D03*
X0459470Y0430644D03*
X0262619Y0430644D03*
X0155336Y0319187D03*
X0162206Y0251470D03*
D15*
X0148505Y0263744D03*
X0126005Y0269994D03*
X0113869Y0270457D03*
X0113869Y0310457D03*
X0126005Y0309994D03*
X0148505Y0303744D03*
X0222255Y0307494D03*
X0222255Y0267494D03*
X0281143Y0269344D03*
X0293446Y0269482D03*
X0310720Y0270457D03*
X0322856Y0269994D03*
X0345356Y0263744D03*
X0345356Y0303744D03*
X0322856Y0309994D03*
X0310720Y0310457D03*
X0293446Y0309482D03*
X0281143Y0309344D03*
X0419106Y0307494D03*
X0419106Y0267494D03*
X0477993Y0269344D03*
X0490296Y0269482D03*
X0490296Y0309482D03*
X0477993Y0309344D03*
X0477993Y0112494D03*
X0490296Y0112632D03*
X0490296Y0072632D03*
X0477993Y0072494D03*
X0419106Y0070644D03*
X0419106Y0110644D03*
X0345356Y0106894D03*
X0322856Y0113144D03*
X0310720Y0113606D03*
X0293446Y0112632D03*
X0281143Y0112494D03*
X0281143Y0072494D03*
X0293446Y0072632D03*
X0310720Y0073606D03*
X0322856Y0073144D03*
X0345356Y0066894D03*
X0222255Y0070644D03*
X0222255Y0110644D03*
X0148505Y0106894D03*
X0126005Y0113144D03*
X0113869Y0113606D03*
X0113869Y0073606D03*
X0126005Y0073144D03*
X0148505Y0066894D03*
D16*
X0130759Y0054965D03*
X0212019Y0062986D03*
X0327609Y0054965D03*
X0408869Y0062986D03*
X0327609Y0251815D03*
X0408869Y0259837D03*
X0212019Y0259837D03*
X0130759Y0251815D03*
D17*
X0140759Y0251815D03*
X0182019Y0259837D03*
X0192019Y0259837D03*
X0202019Y0259837D03*
X0337609Y0251815D03*
X0378869Y0259837D03*
X0388869Y0259837D03*
X0398869Y0259837D03*
X0398869Y0062986D03*
X0388869Y0062986D03*
X0378869Y0062986D03*
X0337609Y0054965D03*
X0202019Y0062986D03*
X0192019Y0062986D03*
X0182019Y0062986D03*
X0140759Y0054965D03*
D18*
X0172678Y0120139D02*
X0172678Y0126739D01*
X0182678Y0126739D02*
X0182678Y0120139D01*
X0192678Y0120139D02*
X0192678Y0126739D01*
X0218879Y0126345D02*
X0218879Y0119745D01*
X0228879Y0119745D02*
X0228879Y0126345D01*
X0238879Y0126345D02*
X0238879Y0119745D01*
X0268052Y0132816D02*
X0268052Y0139416D01*
X0278052Y0139416D02*
X0278052Y0132816D01*
X0288052Y0132816D02*
X0288052Y0139416D01*
X0321753Y0140341D02*
X0321753Y0133741D01*
X0331753Y0133741D02*
X0331753Y0140341D01*
X0341753Y0140341D02*
X0341753Y0133741D01*
X0369529Y0126739D02*
X0369529Y0120139D01*
X0379529Y0120139D02*
X0379529Y0126739D01*
X0389529Y0126739D02*
X0389529Y0120139D01*
X0415730Y0119745D02*
X0415730Y0126345D01*
X0425730Y0126345D02*
X0425730Y0119745D01*
X0435730Y0119745D02*
X0435730Y0126345D01*
X0464903Y0132816D02*
X0464903Y0139416D01*
X0474903Y0139416D02*
X0474903Y0132816D01*
X0484903Y0132816D02*
X0484903Y0139416D01*
X0435730Y0316596D02*
X0435730Y0323196D01*
X0425730Y0323196D02*
X0425730Y0316596D01*
X0415730Y0316596D02*
X0415730Y0323196D01*
X0389529Y0323589D02*
X0389529Y0316989D01*
X0379529Y0316989D02*
X0379529Y0323589D01*
X0369529Y0323589D02*
X0369529Y0316989D01*
X0341753Y0330592D02*
X0341753Y0337192D01*
X0331753Y0337192D02*
X0331753Y0330592D01*
X0321753Y0330592D02*
X0321753Y0337192D01*
X0288052Y0336267D02*
X0288052Y0329667D01*
X0278052Y0329667D02*
X0278052Y0336267D01*
X0268052Y0336267D02*
X0268052Y0329667D01*
X0238879Y0323196D02*
X0238879Y0316596D01*
X0228879Y0316596D02*
X0228879Y0323196D01*
X0218879Y0323196D02*
X0218879Y0316596D01*
X0192678Y0316989D02*
X0192678Y0323589D01*
X0182678Y0323589D02*
X0182678Y0316989D01*
X0172678Y0316989D02*
X0172678Y0323589D01*
X0144903Y0330592D02*
X0144903Y0337192D01*
X0134903Y0337192D02*
X0134903Y0330592D01*
X0124903Y0330592D02*
X0124903Y0337192D01*
X0124903Y0140341D02*
X0124903Y0133741D01*
X0134903Y0133741D02*
X0134903Y0140341D01*
X0144903Y0140341D02*
X0144903Y0133741D01*
X0464903Y0329667D02*
X0464903Y0336267D01*
X0474903Y0336267D02*
X0474903Y0329667D01*
X0484903Y0329667D02*
X0484903Y0336267D01*
D19*
X0425730Y0388896D03*
X0379529Y0389289D03*
X0331753Y0402892D03*
X0278052Y0401967D03*
X0228879Y0388896D03*
X0182678Y0389289D03*
X0134903Y0402892D03*
X0134903Y0206041D03*
X0182678Y0192439D03*
X0228879Y0192045D03*
X0278052Y0205116D03*
X0331753Y0206041D03*
X0379529Y0192439D03*
X0425730Y0192045D03*
X0474903Y0205116D03*
X0474903Y0401967D03*
D20*
X0475651Y0347169D03*
X0485651Y0347169D03*
X0415198Y0336146D03*
X0405198Y0336146D03*
X0384824Y0335043D03*
X0374824Y0335043D03*
X0336546Y0349354D03*
X0326546Y0349354D03*
X0288800Y0347169D03*
X0278800Y0347169D03*
X0218348Y0336146D03*
X0208348Y0336146D03*
X0187974Y0335043D03*
X0177974Y0335043D03*
X0139696Y0349354D03*
X0129696Y0349354D03*
X0129696Y0152504D03*
X0139696Y0152504D03*
X0177974Y0138193D03*
X0187974Y0138193D03*
X0208348Y0139295D03*
X0218348Y0139295D03*
X0278800Y0150319D03*
X0288800Y0150319D03*
X0326546Y0152504D03*
X0336546Y0152504D03*
X0374824Y0138193D03*
X0384824Y0138193D03*
X0405198Y0139295D03*
X0415198Y0139295D03*
X0475651Y0150319D03*
X0485651Y0150319D03*
D21*
X0432206Y0072278D03*
X0359568Y0077317D03*
X0235356Y0072278D03*
X0162718Y0077317D03*
X0235356Y0269128D03*
X0162718Y0274167D03*
X0359568Y0274167D03*
X0432206Y0269128D03*
D22*
X0442206Y0269128D03*
X0452206Y0269128D03*
X0462206Y0269128D03*
X0462206Y0299128D03*
X0452206Y0299128D03*
X0442206Y0299128D03*
X0432206Y0299128D03*
X0389568Y0304167D03*
X0379568Y0304167D03*
X0369568Y0304167D03*
X0359568Y0304167D03*
X0369568Y0274167D03*
X0379568Y0274167D03*
X0389568Y0274167D03*
X0265356Y0269128D03*
X0255356Y0269128D03*
X0245356Y0269128D03*
X0245356Y0299128D03*
X0255356Y0299128D03*
X0265356Y0299128D03*
X0235356Y0299128D03*
X0192718Y0304167D03*
X0182718Y0304167D03*
X0172718Y0304167D03*
X0162718Y0304167D03*
X0172718Y0274167D03*
X0182718Y0274167D03*
X0192718Y0274167D03*
X0192718Y0107317D03*
X0182718Y0107317D03*
X0172718Y0107317D03*
X0162718Y0107317D03*
X0172718Y0077317D03*
X0182718Y0077317D03*
X0192718Y0077317D03*
X0235356Y0102278D03*
X0245356Y0102278D03*
X0255356Y0102278D03*
X0265356Y0102278D03*
X0265356Y0072278D03*
X0255356Y0072278D03*
X0245356Y0072278D03*
X0359568Y0107317D03*
X0369568Y0107317D03*
X0379568Y0107317D03*
X0389568Y0107317D03*
X0389568Y0077317D03*
X0379568Y0077317D03*
X0369568Y0077317D03*
X0432206Y0102278D03*
X0442206Y0102278D03*
X0452206Y0102278D03*
X0462206Y0102278D03*
X0462206Y0072278D03*
X0452206Y0072278D03*
X0442206Y0072278D03*
D23*
X0414981Y0150250D03*
X0395730Y0150250D03*
X0386231Y0149000D03*
X0366980Y0149000D03*
X0344981Y0164000D03*
X0325730Y0164000D03*
X0291881Y0161500D03*
X0272629Y0161500D03*
X0218131Y0150250D03*
X0198879Y0150250D03*
X0189381Y0149000D03*
X0170129Y0149000D03*
X0148131Y0164000D03*
X0128879Y0164000D03*
X0170129Y0345850D03*
X0189381Y0345850D03*
X0198879Y0347100D03*
X0218131Y0347100D03*
X0272629Y0358350D03*
X0291881Y0358350D03*
X0325730Y0360850D03*
X0344981Y0360850D03*
X0366980Y0345850D03*
X0386231Y0345850D03*
X0395730Y0347100D03*
X0414981Y0347100D03*
X0469480Y0358350D03*
X0488731Y0358350D03*
X0488731Y0161500D03*
X0469480Y0161500D03*
X0148131Y0360850D03*
X0128879Y0360850D03*
D24*
X0190208Y0425358D03*
X0237452Y0425358D03*
X0387058Y0425358D03*
X0434302Y0425358D03*
X0434302Y0228508D03*
X0387058Y0228508D03*
X0237452Y0228508D03*
X0190208Y0228508D03*
D25*
X0170523Y0228508D03*
X0217767Y0228508D03*
X0367373Y0228508D03*
X0414617Y0228508D03*
X0414617Y0425358D03*
X0367373Y0425358D03*
X0217767Y0425358D03*
X0170523Y0425358D03*
M02*
