%
M48
M72
T01C0.02362
T02C0.03150
T03C0.03500
T04C0.04400
T05C0.04600
T06C0.11024
T07C0.13000
%
T01
X208505Y91620
X405356Y91620
X208505Y288470
X405356Y288470
T02
X162206Y50990
X162206Y58864
X155336Y118707
X147462Y118707
X162206Y247841
X162206Y255715
X155336Y315557
X147462Y315557
X262619Y419140
X262619Y427014
X459470Y419140
X459470Y427014
X456054Y317211
X448180Y317211
X448919Y251364
X456793Y251364
X459470Y230163
X459470Y222289
X262619Y230163
X262619Y222289
X252068Y251364
X259942Y251364
X359056Y247841
X359056Y255715
X352186Y315557
X344312Y315557
X259204Y317211
X251330Y317211
X251330Y120360
X259204Y120360
X259942Y54514
X252068Y54514
X359056Y50990
X359056Y58864
X352186Y118707
X344312Y118707
X448180Y120360
X456054Y120360
X456793Y54514
X448919Y54514
T03
X327609Y51335
X337609Y51335
X378869Y59356
X388869Y59356
X398869Y59356
X408869Y59356
X130759Y51335
X140759Y51335
X182019Y59356
X192019Y59356
X202019Y59356
X212019Y59356
X130759Y248185
X140759Y248185
X182019Y256207
X192019Y256207
X202019Y256207
X212019Y256207
X327609Y248185
X337609Y248185
X378869Y256207
X388869Y256207
X398869Y256207
X408869Y256207
T04
X490296Y265852
X477993Y265715
X462206Y265498
X452206Y265498
X442206Y265498
X432206Y265498
X419106Y263864
X389568Y270537
X379568Y270537
X369568Y270537
X359568Y270537
X345356Y260114
X322856Y266364
X310720Y266827
X293446Y265852
X281143Y265715
X265356Y265498
X255356Y265498
X245356Y265498
X235356Y265498
X222255Y263864
X192718Y270537
X182718Y270537
X172718Y270537
X162718Y270537
X148505Y260114
X126005Y266364
X113869Y266827
X113869Y69976
X126005Y69514
X148505Y63264
X162718Y73687
X172718Y73687
X182718Y73687
X192718Y73687
X192718Y103687
X182718Y103687
X172718Y103687
X162718Y103687
X148505Y103264
X126005Y109514
X113869Y109976
X124903Y133411
X134903Y133411
X144903Y133411
X172678Y119809
X182678Y119809
X192678Y119809
X218879Y119415
X228879Y119415
X238879Y119415
X235356Y98648
X245356Y98648
X255356Y98648
X265356Y98648
X281143Y108864
X293446Y109002
X310720Y109976
X322856Y109514
X345356Y103264
X359568Y103687
X369568Y103687
X379568Y103687
X389568Y103687
X389529Y119809
X379529Y119809
X369529Y119809
X341753Y133411
X331753Y133411
X321753Y133411
X288052Y132486
X278052Y132486
X268052Y132486
X222255Y107014
X222255Y67014
X235356Y68648
X245356Y68648
X255356Y68648
X265356Y68648
X281143Y68864
X293446Y69002
X310720Y69976
X322856Y69514
X345356Y63264
X359568Y73687
X369568Y73687
X379568Y73687
X389568Y73687
X419106Y67014
X432206Y68648
X442206Y68648
X452206Y68648
X462206Y68648
X477993Y68864
X490296Y69002
X462206Y98648
X452206Y98648
X442206Y98648
X432206Y98648
X419106Y107014
X415730Y119415
X425730Y119415
X435730Y119415
X464903Y132486
X474903Y132486
X484903Y132486
X490296Y109002
X477993Y108864
X462206Y295498
X452206Y295498
X442206Y295498
X432206Y295498
X419106Y303864
X415730Y316266
X425730Y316266
X435730Y316266
X464903Y329337
X474903Y329337
X484903Y329337
X490296Y305852
X477993Y305715
X124903Y330262
X134903Y330262
X144903Y330262
X126005Y306364
X113869Y306827
X148505Y300114
X162718Y300537
X172718Y300537
X182718Y300537
X192718Y300537
X192678Y316659
X182678Y316659
X172678Y316659
X218879Y316266
X228879Y316266
X238879Y316266
X235356Y295498
X245356Y295498
X255356Y295498
X265356Y295498
X281143Y305715
X293446Y305852
X310720Y306827
X322856Y306364
X345356Y300114
X359568Y300537
X369568Y300537
X379568Y300537
X389568Y300537
X389529Y316659
X379529Y316659
X369529Y316659
X341753Y330262
X331753Y330262
X321753Y330262
X288052Y329337
X278052Y329337
X268052Y329337
X222255Y303864
T05
X170523Y224878
X190208Y224878
X217767Y224878
X237452Y224878
X367373Y224878
X387058Y224878
X414617Y224878
X434302Y224878
X414617Y421728
X434302Y421728
X387058Y421728
X367373Y421728
X237452Y421728
X217767Y421728
X190208Y421728
X170523Y421728
T06
X115405Y229878
X115405Y249563
X115405Y426728
X292570Y426728
X312255Y426728
X489420Y426728
X489420Y249563
X489420Y52713
X312255Y52713
X115405Y52713
X292570Y229878
X292570Y249563
X312255Y249563
X312255Y229878
X489420Y229878
X292570Y52713
T07
X182678Y188809
X134903Y202411
X228879Y188415
X278052Y201486
X331753Y202411
X379529Y188809
X425730Y188415
X474903Y201486
X425730Y385266
X379529Y385659
X331753Y399262
X278052Y398337
X228879Y385266
X182678Y385659
X134903Y399262
X474903Y398337
M30
